G04 #@! TF.GenerationSoftware,KiCad,Pcbnew,(5.0.2)-1*
G04 #@! TF.CreationDate,2019-03-14T17:04:46+01:00*
G04 #@! TF.ProjectId,RX_Ant,52585f41-6e74-42e6-9b69-6361645f7063,rev?*
G04 #@! TF.SameCoordinates,Original*
G04 #@! TF.FileFunction,Soldermask,Bot*
G04 #@! TF.FilePolarity,Negative*
%FSLAX46Y46*%
G04 Gerber Fmt 4.6, Leading zero omitted, Abs format (unit mm)*
G04 Created by KiCad (PCBNEW (5.0.2)-1) date 14/03/2019 17:04:46*
%MOMM*%
%LPD*%
G01*
G04 APERTURE LIST*
%ADD10C,0.150000*%
%ADD11C,0.100000*%
G04 APERTURE END LIST*
D10*
X120000000Y-75000000D02*
X120000000Y-125000000D01*
X120000000Y-125000000D02*
X20000000Y-125000000D01*
X20000000Y-125000000D02*
X20000000Y-75000000D01*
X20000000Y-25000000D02*
X25000000Y-25000000D01*
X20000000Y-75000000D02*
X20000000Y-25000000D01*
X120000000Y-25000000D02*
X120000000Y-75000000D01*
X25000000Y-25000000D02*
X120000000Y-25000000D01*
D11*
G36*
X107962947Y-121145722D02*
X108226833Y-121255027D01*
X108464324Y-121413713D01*
X108666287Y-121615676D01*
X108824973Y-121853167D01*
X108934278Y-122117053D01*
X108990000Y-122397186D01*
X108990000Y-122682814D01*
X108934278Y-122962947D01*
X108824973Y-123226833D01*
X108666287Y-123464324D01*
X108464324Y-123666287D01*
X108226833Y-123824973D01*
X107962947Y-123934278D01*
X107682814Y-123990000D01*
X107397186Y-123990000D01*
X107117053Y-123934278D01*
X106853167Y-123824973D01*
X106615676Y-123666287D01*
X106413713Y-123464324D01*
X106255027Y-123226833D01*
X106145722Y-122962947D01*
X106090000Y-122682814D01*
X106090000Y-122397186D01*
X106145722Y-122117053D01*
X106255027Y-121853167D01*
X106413713Y-121615676D01*
X106615676Y-121413713D01*
X106853167Y-121255027D01*
X107117053Y-121145722D01*
X107397186Y-121090000D01*
X107682814Y-121090000D01*
X107962947Y-121145722D01*
X107962947Y-121145722D01*
G37*
G36*
X102882947Y-121145722D02*
X103146833Y-121255027D01*
X103384324Y-121413713D01*
X103586287Y-121615676D01*
X103744973Y-121853167D01*
X103854278Y-122117053D01*
X103910000Y-122397186D01*
X103910000Y-122682814D01*
X103854278Y-122962947D01*
X103744973Y-123226833D01*
X103586287Y-123464324D01*
X103384324Y-123666287D01*
X103146833Y-123824973D01*
X102882947Y-123934278D01*
X102602814Y-123990000D01*
X102317186Y-123990000D01*
X102037053Y-123934278D01*
X101773167Y-123824973D01*
X101535676Y-123666287D01*
X101333713Y-123464324D01*
X101175027Y-123226833D01*
X101065722Y-122962947D01*
X101010000Y-122682814D01*
X101010000Y-122397186D01*
X101065722Y-122117053D01*
X101175027Y-121853167D01*
X101333713Y-121615676D01*
X101535676Y-121413713D01*
X101773167Y-121255027D01*
X102037053Y-121145722D01*
X102317186Y-121090000D01*
X102602814Y-121090000D01*
X102882947Y-121145722D01*
X102882947Y-121145722D01*
G37*
G36*
X47462947Y-121145722D02*
X47726833Y-121255027D01*
X47964324Y-121413713D01*
X48166287Y-121615676D01*
X48324973Y-121853167D01*
X48434278Y-122117053D01*
X48490000Y-122397186D01*
X48490000Y-122682814D01*
X48434278Y-122962947D01*
X48324973Y-123226833D01*
X48166287Y-123464324D01*
X47964324Y-123666287D01*
X47726833Y-123824973D01*
X47462947Y-123934278D01*
X47182814Y-123990000D01*
X46897186Y-123990000D01*
X46617053Y-123934278D01*
X46353167Y-123824973D01*
X46115676Y-123666287D01*
X45913713Y-123464324D01*
X45755027Y-123226833D01*
X45645722Y-122962947D01*
X45590000Y-122682814D01*
X45590000Y-122397186D01*
X45645722Y-122117053D01*
X45755027Y-121853167D01*
X45913713Y-121615676D01*
X46115676Y-121413713D01*
X46353167Y-121255027D01*
X46617053Y-121145722D01*
X46897186Y-121090000D01*
X47182814Y-121090000D01*
X47462947Y-121145722D01*
X47462947Y-121145722D01*
G37*
G36*
X42382947Y-121145722D02*
X42646833Y-121255027D01*
X42884324Y-121413713D01*
X43086287Y-121615676D01*
X43244973Y-121853167D01*
X43354278Y-122117053D01*
X43410000Y-122397186D01*
X43410000Y-122682814D01*
X43354278Y-122962947D01*
X43244973Y-123226833D01*
X43086287Y-123464324D01*
X42884324Y-123666287D01*
X42646833Y-123824973D01*
X42382947Y-123934278D01*
X42102814Y-123990000D01*
X41817186Y-123990000D01*
X41537053Y-123934278D01*
X41273167Y-123824973D01*
X41035676Y-123666287D01*
X40833713Y-123464324D01*
X40675027Y-123226833D01*
X40565722Y-122962947D01*
X40510000Y-122682814D01*
X40510000Y-122397186D01*
X40565722Y-122117053D01*
X40675027Y-121853167D01*
X40833713Y-121615676D01*
X41035676Y-121413713D01*
X41273167Y-121255027D01*
X41537053Y-121145722D01*
X41817186Y-121090000D01*
X42102814Y-121090000D01*
X42382947Y-121145722D01*
X42382947Y-121145722D01*
G37*
G36*
X62962947Y-121145722D02*
X63226833Y-121255027D01*
X63464324Y-121413713D01*
X63666287Y-121615676D01*
X63824973Y-121853167D01*
X63934278Y-122117053D01*
X63990000Y-122397186D01*
X63990000Y-122682814D01*
X63934278Y-122962947D01*
X63824973Y-123226833D01*
X63666287Y-123464324D01*
X63464324Y-123666287D01*
X63226833Y-123824973D01*
X62962947Y-123934278D01*
X62682814Y-123990000D01*
X62397186Y-123990000D01*
X62117053Y-123934278D01*
X61853167Y-123824973D01*
X61615676Y-123666287D01*
X61413713Y-123464324D01*
X61255027Y-123226833D01*
X61145722Y-122962947D01*
X61090000Y-122682814D01*
X61090000Y-122397186D01*
X61145722Y-122117053D01*
X61255027Y-121853167D01*
X61413713Y-121615676D01*
X61615676Y-121413713D01*
X61853167Y-121255027D01*
X62117053Y-121145722D01*
X62397186Y-121090000D01*
X62682814Y-121090000D01*
X62962947Y-121145722D01*
X62962947Y-121145722D01*
G37*
G36*
X57882947Y-121145722D02*
X58146833Y-121255027D01*
X58384324Y-121413713D01*
X58586287Y-121615676D01*
X58744973Y-121853167D01*
X58854278Y-122117053D01*
X58910000Y-122397186D01*
X58910000Y-122682814D01*
X58854278Y-122962947D01*
X58744973Y-123226833D01*
X58586287Y-123464324D01*
X58384324Y-123666287D01*
X58146833Y-123824973D01*
X57882947Y-123934278D01*
X57602814Y-123990000D01*
X57317186Y-123990000D01*
X57037053Y-123934278D01*
X56773167Y-123824973D01*
X56535676Y-123666287D01*
X56333713Y-123464324D01*
X56175027Y-123226833D01*
X56065722Y-122962947D01*
X56010000Y-122682814D01*
X56010000Y-122397186D01*
X56065722Y-122117053D01*
X56175027Y-121853167D01*
X56333713Y-121615676D01*
X56535676Y-121413713D01*
X56773167Y-121255027D01*
X57037053Y-121145722D01*
X57317186Y-121090000D01*
X57602814Y-121090000D01*
X57882947Y-121145722D01*
X57882947Y-121145722D01*
G37*
G36*
X87882947Y-121145722D02*
X88146833Y-121255027D01*
X88384324Y-121413713D01*
X88586287Y-121615676D01*
X88744973Y-121853167D01*
X88854278Y-122117053D01*
X88910000Y-122397186D01*
X88910000Y-122682814D01*
X88854278Y-122962947D01*
X88744973Y-123226833D01*
X88586287Y-123464324D01*
X88384324Y-123666287D01*
X88146833Y-123824973D01*
X87882947Y-123934278D01*
X87602814Y-123990000D01*
X87317186Y-123990000D01*
X87037053Y-123934278D01*
X86773167Y-123824973D01*
X86535676Y-123666287D01*
X86333713Y-123464324D01*
X86175027Y-123226833D01*
X86065722Y-122962947D01*
X86010000Y-122682814D01*
X86010000Y-122397186D01*
X86065722Y-122117053D01*
X86175027Y-121853167D01*
X86333713Y-121615676D01*
X86535676Y-121413713D01*
X86773167Y-121255027D01*
X87037053Y-121145722D01*
X87317186Y-121090000D01*
X87602814Y-121090000D01*
X87882947Y-121145722D01*
X87882947Y-121145722D01*
G37*
G36*
X92962947Y-121145722D02*
X93226833Y-121255027D01*
X93464324Y-121413713D01*
X93666287Y-121615676D01*
X93824973Y-121853167D01*
X93934278Y-122117053D01*
X93990000Y-122397186D01*
X93990000Y-122682814D01*
X93934278Y-122962947D01*
X93824973Y-123226833D01*
X93666287Y-123464324D01*
X93464324Y-123666287D01*
X93226833Y-123824973D01*
X92962947Y-123934278D01*
X92682814Y-123990000D01*
X92397186Y-123990000D01*
X92117053Y-123934278D01*
X91853167Y-123824973D01*
X91615676Y-123666287D01*
X91413713Y-123464324D01*
X91255027Y-123226833D01*
X91145722Y-122962947D01*
X91090000Y-122682814D01*
X91090000Y-122397186D01*
X91145722Y-122117053D01*
X91255027Y-121853167D01*
X91413713Y-121615676D01*
X91615676Y-121413713D01*
X91853167Y-121255027D01*
X92117053Y-121145722D01*
X92397186Y-121090000D01*
X92682814Y-121090000D01*
X92962947Y-121145722D01*
X92962947Y-121145722D01*
G37*
G36*
X72882947Y-121145722D02*
X73146833Y-121255027D01*
X73384324Y-121413713D01*
X73586287Y-121615676D01*
X73744973Y-121853167D01*
X73854278Y-122117053D01*
X73910000Y-122397186D01*
X73910000Y-122682814D01*
X73854278Y-122962947D01*
X73744973Y-123226833D01*
X73586287Y-123464324D01*
X73384324Y-123666287D01*
X73146833Y-123824973D01*
X72882947Y-123934278D01*
X72602814Y-123990000D01*
X72317186Y-123990000D01*
X72037053Y-123934278D01*
X71773167Y-123824973D01*
X71535676Y-123666287D01*
X71333713Y-123464324D01*
X71175027Y-123226833D01*
X71065722Y-122962947D01*
X71010000Y-122682814D01*
X71010000Y-122397186D01*
X71065722Y-122117053D01*
X71175027Y-121853167D01*
X71333713Y-121615676D01*
X71535676Y-121413713D01*
X71773167Y-121255027D01*
X72037053Y-121145722D01*
X72317186Y-121090000D01*
X72602814Y-121090000D01*
X72882947Y-121145722D01*
X72882947Y-121145722D01*
G37*
G36*
X77962947Y-121145722D02*
X78226833Y-121255027D01*
X78464324Y-121413713D01*
X78666287Y-121615676D01*
X78824973Y-121853167D01*
X78934278Y-122117053D01*
X78990000Y-122397186D01*
X78990000Y-122682814D01*
X78934278Y-122962947D01*
X78824973Y-123226833D01*
X78666287Y-123464324D01*
X78464324Y-123666287D01*
X78226833Y-123824973D01*
X77962947Y-123934278D01*
X77682814Y-123990000D01*
X77397186Y-123990000D01*
X77117053Y-123934278D01*
X76853167Y-123824973D01*
X76615676Y-123666287D01*
X76413713Y-123464324D01*
X76255027Y-123226833D01*
X76145722Y-122962947D01*
X76090000Y-122682814D01*
X76090000Y-122397186D01*
X76145722Y-122117053D01*
X76255027Y-121853167D01*
X76413713Y-121615676D01*
X76615676Y-121413713D01*
X76853167Y-121255027D01*
X77117053Y-121145722D01*
X77397186Y-121090000D01*
X77682814Y-121090000D01*
X77962947Y-121145722D01*
X77962947Y-121145722D01*
G37*
G36*
X116079249Y-116442188D02*
X116473693Y-116605572D01*
X116752607Y-116721102D01*
X117225458Y-117037051D01*
X117358616Y-117126024D01*
X117873976Y-117641384D01*
X117873978Y-117641387D01*
X118278898Y-118247393D01*
X118394428Y-118526307D01*
X118557812Y-118920751D01*
X118700000Y-119635580D01*
X118700000Y-120364420D01*
X118557812Y-121079249D01*
X118467152Y-121298121D01*
X118278898Y-121752607D01*
X118035384Y-122117051D01*
X117873976Y-122358616D01*
X117358616Y-122873976D01*
X117358613Y-122873978D01*
X116752607Y-123278898D01*
X116473693Y-123394428D01*
X116079249Y-123557812D01*
X115364420Y-123700000D01*
X114635580Y-123700000D01*
X113920751Y-123557812D01*
X113526307Y-123394428D01*
X113247393Y-123278898D01*
X112641387Y-122873978D01*
X112641384Y-122873976D01*
X112126024Y-122358616D01*
X111964616Y-122117051D01*
X111721102Y-121752607D01*
X111532848Y-121298121D01*
X111442188Y-121079249D01*
X111300000Y-120364420D01*
X111300000Y-119635580D01*
X111442188Y-118920751D01*
X111605572Y-118526307D01*
X111721102Y-118247393D01*
X112126022Y-117641387D01*
X112126024Y-117641384D01*
X112641384Y-117126024D01*
X112774542Y-117037051D01*
X113247393Y-116721102D01*
X113526307Y-116605572D01*
X113920751Y-116442188D01*
X114635580Y-116300000D01*
X115364420Y-116300000D01*
X116079249Y-116442188D01*
X116079249Y-116442188D01*
G37*
G36*
X26079249Y-116442188D02*
X26473693Y-116605572D01*
X26752607Y-116721102D01*
X27225458Y-117037051D01*
X27358616Y-117126024D01*
X27873976Y-117641384D01*
X27873978Y-117641387D01*
X28278898Y-118247393D01*
X28394428Y-118526307D01*
X28557812Y-118920751D01*
X28700000Y-119635580D01*
X28700000Y-120364420D01*
X28557812Y-121079249D01*
X28467152Y-121298121D01*
X28278898Y-121752607D01*
X28035384Y-122117051D01*
X27873976Y-122358616D01*
X27358616Y-122873976D01*
X27358613Y-122873978D01*
X26752607Y-123278898D01*
X26473693Y-123394428D01*
X26079249Y-123557812D01*
X25364420Y-123700000D01*
X24635580Y-123700000D01*
X23920751Y-123557812D01*
X23526307Y-123394428D01*
X23247393Y-123278898D01*
X22641387Y-122873978D01*
X22641384Y-122873976D01*
X22126024Y-122358616D01*
X21964616Y-122117051D01*
X21721102Y-121752607D01*
X21532848Y-121298121D01*
X21442188Y-121079249D01*
X21300000Y-120364420D01*
X21300000Y-119635580D01*
X21442188Y-118920751D01*
X21605572Y-118526307D01*
X21721102Y-118247393D01*
X22126022Y-117641387D01*
X22126024Y-117641384D01*
X22641384Y-117126024D01*
X22774542Y-117037051D01*
X23247393Y-116721102D01*
X23526307Y-116605572D01*
X23920751Y-116442188D01*
X24635580Y-116300000D01*
X25364420Y-116300000D01*
X26079249Y-116442188D01*
X26079249Y-116442188D01*
G37*
G36*
X44893778Y-118701879D02*
X45139466Y-118803646D01*
X45360578Y-118951389D01*
X45548611Y-119139422D01*
X45696354Y-119360534D01*
X45798121Y-119606222D01*
X45850000Y-119867035D01*
X45850000Y-120132965D01*
X45798121Y-120393778D01*
X45696354Y-120639466D01*
X45548611Y-120860578D01*
X45360578Y-121048611D01*
X45139466Y-121196354D01*
X44893778Y-121298121D01*
X44632965Y-121350000D01*
X44367035Y-121350000D01*
X44106222Y-121298121D01*
X43860534Y-121196354D01*
X43639422Y-121048611D01*
X43451389Y-120860578D01*
X43303646Y-120639466D01*
X43201879Y-120393778D01*
X43150000Y-120132965D01*
X43150000Y-119867035D01*
X43201879Y-119606222D01*
X43303646Y-119360534D01*
X43451389Y-119139422D01*
X43639422Y-118951389D01*
X43860534Y-118803646D01*
X44106222Y-118701879D01*
X44367035Y-118650000D01*
X44632965Y-118650000D01*
X44893778Y-118701879D01*
X44893778Y-118701879D01*
G37*
G36*
X60393778Y-118701879D02*
X60639466Y-118803646D01*
X60860578Y-118951389D01*
X61048611Y-119139422D01*
X61196354Y-119360534D01*
X61298121Y-119606222D01*
X61350000Y-119867035D01*
X61350000Y-120132965D01*
X61298121Y-120393778D01*
X61196354Y-120639466D01*
X61048611Y-120860578D01*
X60860578Y-121048611D01*
X60639466Y-121196354D01*
X60393778Y-121298121D01*
X60132965Y-121350000D01*
X59867035Y-121350000D01*
X59606222Y-121298121D01*
X59360534Y-121196354D01*
X59139422Y-121048611D01*
X58951389Y-120860578D01*
X58803646Y-120639466D01*
X58701879Y-120393778D01*
X58650000Y-120132965D01*
X58650000Y-119867035D01*
X58701879Y-119606222D01*
X58803646Y-119360534D01*
X58951389Y-119139422D01*
X59139422Y-118951389D01*
X59360534Y-118803646D01*
X59606222Y-118701879D01*
X59867035Y-118650000D01*
X60132965Y-118650000D01*
X60393778Y-118701879D01*
X60393778Y-118701879D01*
G37*
G36*
X105393778Y-118701879D02*
X105639466Y-118803646D01*
X105860578Y-118951389D01*
X106048611Y-119139422D01*
X106196354Y-119360534D01*
X106298121Y-119606222D01*
X106350000Y-119867035D01*
X106350000Y-120132965D01*
X106298121Y-120393778D01*
X106196354Y-120639466D01*
X106048611Y-120860578D01*
X105860578Y-121048611D01*
X105639466Y-121196354D01*
X105393778Y-121298121D01*
X105132965Y-121350000D01*
X104867035Y-121350000D01*
X104606222Y-121298121D01*
X104360534Y-121196354D01*
X104139422Y-121048611D01*
X103951389Y-120860578D01*
X103803646Y-120639466D01*
X103701879Y-120393778D01*
X103650000Y-120132965D01*
X103650000Y-119867035D01*
X103701879Y-119606222D01*
X103803646Y-119360534D01*
X103951389Y-119139422D01*
X104139422Y-118951389D01*
X104360534Y-118803646D01*
X104606222Y-118701879D01*
X104867035Y-118650000D01*
X105132965Y-118650000D01*
X105393778Y-118701879D01*
X105393778Y-118701879D01*
G37*
G36*
X90393778Y-118701879D02*
X90639466Y-118803646D01*
X90860578Y-118951389D01*
X91048611Y-119139422D01*
X91196354Y-119360534D01*
X91298121Y-119606222D01*
X91350000Y-119867035D01*
X91350000Y-120132965D01*
X91298121Y-120393778D01*
X91196354Y-120639466D01*
X91048611Y-120860578D01*
X90860578Y-121048611D01*
X90639466Y-121196354D01*
X90393778Y-121298121D01*
X90132965Y-121350000D01*
X89867035Y-121350000D01*
X89606222Y-121298121D01*
X89360534Y-121196354D01*
X89139422Y-121048611D01*
X88951389Y-120860578D01*
X88803646Y-120639466D01*
X88701879Y-120393778D01*
X88650000Y-120132965D01*
X88650000Y-119867035D01*
X88701879Y-119606222D01*
X88803646Y-119360534D01*
X88951389Y-119139422D01*
X89139422Y-118951389D01*
X89360534Y-118803646D01*
X89606222Y-118701879D01*
X89867035Y-118650000D01*
X90132965Y-118650000D01*
X90393778Y-118701879D01*
X90393778Y-118701879D01*
G37*
G36*
X75393778Y-118701879D02*
X75639466Y-118803646D01*
X75860578Y-118951389D01*
X76048611Y-119139422D01*
X76196354Y-119360534D01*
X76298121Y-119606222D01*
X76350000Y-119867035D01*
X76350000Y-120132965D01*
X76298121Y-120393778D01*
X76196354Y-120639466D01*
X76048611Y-120860578D01*
X75860578Y-121048611D01*
X75639466Y-121196354D01*
X75393778Y-121298121D01*
X75132965Y-121350000D01*
X74867035Y-121350000D01*
X74606222Y-121298121D01*
X74360534Y-121196354D01*
X74139422Y-121048611D01*
X73951389Y-120860578D01*
X73803646Y-120639466D01*
X73701879Y-120393778D01*
X73650000Y-120132965D01*
X73650000Y-119867035D01*
X73701879Y-119606222D01*
X73803646Y-119360534D01*
X73951389Y-119139422D01*
X74139422Y-118951389D01*
X74360534Y-118803646D01*
X74606222Y-118701879D01*
X74867035Y-118650000D01*
X75132965Y-118650000D01*
X75393778Y-118701879D01*
X75393778Y-118701879D01*
G37*
G36*
X92962947Y-116065722D02*
X93226833Y-116175027D01*
X93464324Y-116333713D01*
X93666287Y-116535676D01*
X93824973Y-116773167D01*
X93934278Y-117037053D01*
X93990000Y-117317186D01*
X93990000Y-117602814D01*
X93934278Y-117882947D01*
X93824973Y-118146833D01*
X93666287Y-118384324D01*
X93464324Y-118586287D01*
X93226833Y-118744973D01*
X92962947Y-118854278D01*
X92682814Y-118910000D01*
X92397186Y-118910000D01*
X92117053Y-118854278D01*
X91853167Y-118744973D01*
X91615676Y-118586287D01*
X91413713Y-118384324D01*
X91255027Y-118146833D01*
X91145722Y-117882947D01*
X91090000Y-117602814D01*
X91090000Y-117317186D01*
X91145722Y-117037053D01*
X91255027Y-116773167D01*
X91413713Y-116535676D01*
X91615676Y-116333713D01*
X91853167Y-116175027D01*
X92117053Y-116065722D01*
X92397186Y-116010000D01*
X92682814Y-116010000D01*
X92962947Y-116065722D01*
X92962947Y-116065722D01*
G37*
G36*
X72882947Y-116065722D02*
X73146833Y-116175027D01*
X73384324Y-116333713D01*
X73586287Y-116535676D01*
X73744973Y-116773167D01*
X73854278Y-117037053D01*
X73910000Y-117317186D01*
X73910000Y-117602814D01*
X73854278Y-117882947D01*
X73744973Y-118146833D01*
X73586287Y-118384324D01*
X73384324Y-118586287D01*
X73146833Y-118744973D01*
X72882947Y-118854278D01*
X72602814Y-118910000D01*
X72317186Y-118910000D01*
X72037053Y-118854278D01*
X71773167Y-118744973D01*
X71535676Y-118586287D01*
X71333713Y-118384324D01*
X71175027Y-118146833D01*
X71065722Y-117882947D01*
X71010000Y-117602814D01*
X71010000Y-117317186D01*
X71065722Y-117037053D01*
X71175027Y-116773167D01*
X71333713Y-116535676D01*
X71535676Y-116333713D01*
X71773167Y-116175027D01*
X72037053Y-116065722D01*
X72317186Y-116010000D01*
X72602814Y-116010000D01*
X72882947Y-116065722D01*
X72882947Y-116065722D01*
G37*
G36*
X87882947Y-116065722D02*
X88146833Y-116175027D01*
X88384324Y-116333713D01*
X88586287Y-116535676D01*
X88744973Y-116773167D01*
X88854278Y-117037053D01*
X88910000Y-117317186D01*
X88910000Y-117602814D01*
X88854278Y-117882947D01*
X88744973Y-118146833D01*
X88586287Y-118384324D01*
X88384324Y-118586287D01*
X88146833Y-118744973D01*
X87882947Y-118854278D01*
X87602814Y-118910000D01*
X87317186Y-118910000D01*
X87037053Y-118854278D01*
X86773167Y-118744973D01*
X86535676Y-118586287D01*
X86333713Y-118384324D01*
X86175027Y-118146833D01*
X86065722Y-117882947D01*
X86010000Y-117602814D01*
X86010000Y-117317186D01*
X86065722Y-117037053D01*
X86175027Y-116773167D01*
X86333713Y-116535676D01*
X86535676Y-116333713D01*
X86773167Y-116175027D01*
X87037053Y-116065722D01*
X87317186Y-116010000D01*
X87602814Y-116010000D01*
X87882947Y-116065722D01*
X87882947Y-116065722D01*
G37*
G36*
X42382947Y-116065722D02*
X42646833Y-116175027D01*
X42884324Y-116333713D01*
X43086287Y-116535676D01*
X43244973Y-116773167D01*
X43354278Y-117037053D01*
X43410000Y-117317186D01*
X43410000Y-117602814D01*
X43354278Y-117882947D01*
X43244973Y-118146833D01*
X43086287Y-118384324D01*
X42884324Y-118586287D01*
X42646833Y-118744973D01*
X42382947Y-118854278D01*
X42102814Y-118910000D01*
X41817186Y-118910000D01*
X41537053Y-118854278D01*
X41273167Y-118744973D01*
X41035676Y-118586287D01*
X40833713Y-118384324D01*
X40675027Y-118146833D01*
X40565722Y-117882947D01*
X40510000Y-117602814D01*
X40510000Y-117317186D01*
X40565722Y-117037053D01*
X40675027Y-116773167D01*
X40833713Y-116535676D01*
X41035676Y-116333713D01*
X41273167Y-116175027D01*
X41537053Y-116065722D01*
X41817186Y-116010000D01*
X42102814Y-116010000D01*
X42382947Y-116065722D01*
X42382947Y-116065722D01*
G37*
G36*
X47462947Y-116065722D02*
X47726833Y-116175027D01*
X47964324Y-116333713D01*
X48166287Y-116535676D01*
X48324973Y-116773167D01*
X48434278Y-117037053D01*
X48490000Y-117317186D01*
X48490000Y-117602814D01*
X48434278Y-117882947D01*
X48324973Y-118146833D01*
X48166287Y-118384324D01*
X47964324Y-118586287D01*
X47726833Y-118744973D01*
X47462947Y-118854278D01*
X47182814Y-118910000D01*
X46897186Y-118910000D01*
X46617053Y-118854278D01*
X46353167Y-118744973D01*
X46115676Y-118586287D01*
X45913713Y-118384324D01*
X45755027Y-118146833D01*
X45645722Y-117882947D01*
X45590000Y-117602814D01*
X45590000Y-117317186D01*
X45645722Y-117037053D01*
X45755027Y-116773167D01*
X45913713Y-116535676D01*
X46115676Y-116333713D01*
X46353167Y-116175027D01*
X46617053Y-116065722D01*
X46897186Y-116010000D01*
X47182814Y-116010000D01*
X47462947Y-116065722D01*
X47462947Y-116065722D01*
G37*
G36*
X102882947Y-116065722D02*
X103146833Y-116175027D01*
X103384324Y-116333713D01*
X103586287Y-116535676D01*
X103744973Y-116773167D01*
X103854278Y-117037053D01*
X103910000Y-117317186D01*
X103910000Y-117602814D01*
X103854278Y-117882947D01*
X103744973Y-118146833D01*
X103586287Y-118384324D01*
X103384324Y-118586287D01*
X103146833Y-118744973D01*
X102882947Y-118854278D01*
X102602814Y-118910000D01*
X102317186Y-118910000D01*
X102037053Y-118854278D01*
X101773167Y-118744973D01*
X101535676Y-118586287D01*
X101333713Y-118384324D01*
X101175027Y-118146833D01*
X101065722Y-117882947D01*
X101010000Y-117602814D01*
X101010000Y-117317186D01*
X101065722Y-117037053D01*
X101175027Y-116773167D01*
X101333713Y-116535676D01*
X101535676Y-116333713D01*
X101773167Y-116175027D01*
X102037053Y-116065722D01*
X102317186Y-116010000D01*
X102602814Y-116010000D01*
X102882947Y-116065722D01*
X102882947Y-116065722D01*
G37*
G36*
X62962947Y-116065722D02*
X63226833Y-116175027D01*
X63464324Y-116333713D01*
X63666287Y-116535676D01*
X63824973Y-116773167D01*
X63934278Y-117037053D01*
X63990000Y-117317186D01*
X63990000Y-117602814D01*
X63934278Y-117882947D01*
X63824973Y-118146833D01*
X63666287Y-118384324D01*
X63464324Y-118586287D01*
X63226833Y-118744973D01*
X62962947Y-118854278D01*
X62682814Y-118910000D01*
X62397186Y-118910000D01*
X62117053Y-118854278D01*
X61853167Y-118744973D01*
X61615676Y-118586287D01*
X61413713Y-118384324D01*
X61255027Y-118146833D01*
X61145722Y-117882947D01*
X61090000Y-117602814D01*
X61090000Y-117317186D01*
X61145722Y-117037053D01*
X61255027Y-116773167D01*
X61413713Y-116535676D01*
X61615676Y-116333713D01*
X61853167Y-116175027D01*
X62117053Y-116065722D01*
X62397186Y-116010000D01*
X62682814Y-116010000D01*
X62962947Y-116065722D01*
X62962947Y-116065722D01*
G37*
G36*
X57882947Y-116065722D02*
X58146833Y-116175027D01*
X58384324Y-116333713D01*
X58586287Y-116535676D01*
X58744973Y-116773167D01*
X58854278Y-117037053D01*
X58910000Y-117317186D01*
X58910000Y-117602814D01*
X58854278Y-117882947D01*
X58744973Y-118146833D01*
X58586287Y-118384324D01*
X58384324Y-118586287D01*
X58146833Y-118744973D01*
X57882947Y-118854278D01*
X57602814Y-118910000D01*
X57317186Y-118910000D01*
X57037053Y-118854278D01*
X56773167Y-118744973D01*
X56535676Y-118586287D01*
X56333713Y-118384324D01*
X56175027Y-118146833D01*
X56065722Y-117882947D01*
X56010000Y-117602814D01*
X56010000Y-117317186D01*
X56065722Y-117037053D01*
X56175027Y-116773167D01*
X56333713Y-116535676D01*
X56535676Y-116333713D01*
X56773167Y-116175027D01*
X57037053Y-116065722D01*
X57317186Y-116010000D01*
X57602814Y-116010000D01*
X57882947Y-116065722D01*
X57882947Y-116065722D01*
G37*
G36*
X107962947Y-116065722D02*
X108226833Y-116175027D01*
X108464324Y-116333713D01*
X108666287Y-116535676D01*
X108824973Y-116773167D01*
X108934278Y-117037053D01*
X108990000Y-117317186D01*
X108990000Y-117602814D01*
X108934278Y-117882947D01*
X108824973Y-118146833D01*
X108666287Y-118384324D01*
X108464324Y-118586287D01*
X108226833Y-118744973D01*
X107962947Y-118854278D01*
X107682814Y-118910000D01*
X107397186Y-118910000D01*
X107117053Y-118854278D01*
X106853167Y-118744973D01*
X106615676Y-118586287D01*
X106413713Y-118384324D01*
X106255027Y-118146833D01*
X106145722Y-117882947D01*
X106090000Y-117602814D01*
X106090000Y-117317186D01*
X106145722Y-117037053D01*
X106255027Y-116773167D01*
X106413713Y-116535676D01*
X106615676Y-116333713D01*
X106853167Y-116175027D01*
X107117053Y-116065722D01*
X107397186Y-116010000D01*
X107682814Y-116010000D01*
X107962947Y-116065722D01*
X107962947Y-116065722D01*
G37*
G36*
X77962947Y-116065722D02*
X78226833Y-116175027D01*
X78464324Y-116333713D01*
X78666287Y-116535676D01*
X78824973Y-116773167D01*
X78934278Y-117037053D01*
X78990000Y-117317186D01*
X78990000Y-117602814D01*
X78934278Y-117882947D01*
X78824973Y-118146833D01*
X78666287Y-118384324D01*
X78464324Y-118586287D01*
X78226833Y-118744973D01*
X77962947Y-118854278D01*
X77682814Y-118910000D01*
X77397186Y-118910000D01*
X77117053Y-118854278D01*
X76853167Y-118744973D01*
X76615676Y-118586287D01*
X76413713Y-118384324D01*
X76255027Y-118146833D01*
X76145722Y-117882947D01*
X76090000Y-117602814D01*
X76090000Y-117317186D01*
X76145722Y-117037053D01*
X76255027Y-116773167D01*
X76413713Y-116535676D01*
X76615676Y-116333713D01*
X76853167Y-116175027D01*
X77117053Y-116065722D01*
X77397186Y-116010000D01*
X77682814Y-116010000D01*
X77962947Y-116065722D01*
X77962947Y-116065722D01*
G37*
G36*
X29500000Y-91200000D02*
X28837690Y-91200000D01*
X28813304Y-91202402D01*
X28789855Y-91209515D01*
X28768244Y-91221066D01*
X28749302Y-91236612D01*
X28733756Y-91255554D01*
X28722205Y-91277165D01*
X28715092Y-91300614D01*
X28712690Y-91325000D01*
X28715092Y-91349386D01*
X28722205Y-91372835D01*
X28733756Y-91394446D01*
X28749302Y-91413388D01*
X28768244Y-91428934D01*
X28778766Y-91435240D01*
X28969910Y-91537408D01*
X29152634Y-91687366D01*
X29302592Y-91870090D01*
X29414017Y-92078553D01*
X29414018Y-92078556D01*
X29414019Y-92078558D01*
X29482637Y-92304759D01*
X29505806Y-92540000D01*
X29482637Y-92775241D01*
X29414019Y-93001442D01*
X29414017Y-93001447D01*
X29302592Y-93209910D01*
X29152634Y-93392634D01*
X28969910Y-93542592D01*
X28761446Y-93654018D01*
X28722034Y-93665973D01*
X28641565Y-93690384D01*
X28618929Y-93699760D01*
X28598555Y-93713374D01*
X28581228Y-93730701D01*
X28567614Y-93751075D01*
X28558236Y-93773714D01*
X28553456Y-93797748D01*
X28553456Y-93822252D01*
X28558236Y-93846285D01*
X28567614Y-93868925D01*
X28581228Y-93889299D01*
X28598555Y-93906626D01*
X28618929Y-93920240D01*
X28641565Y-93929616D01*
X28722034Y-93954027D01*
X28761446Y-93965982D01*
X28969910Y-94077408D01*
X29152634Y-94227366D01*
X29302592Y-94410090D01*
X29414017Y-94618553D01*
X29414018Y-94618556D01*
X29414019Y-94618558D01*
X29482637Y-94844759D01*
X29505806Y-95080000D01*
X29482637Y-95315241D01*
X29414019Y-95541442D01*
X29414017Y-95541447D01*
X29302592Y-95749910D01*
X29152634Y-95932634D01*
X28969910Y-96082592D01*
X28761446Y-96194018D01*
X28722034Y-96205973D01*
X28641565Y-96230384D01*
X28618929Y-96239760D01*
X28598555Y-96253374D01*
X28581228Y-96270701D01*
X28567614Y-96291075D01*
X28558236Y-96313714D01*
X28553456Y-96337748D01*
X28553456Y-96362252D01*
X28558236Y-96386285D01*
X28567614Y-96408925D01*
X28581228Y-96429299D01*
X28598555Y-96446626D01*
X28618929Y-96460240D01*
X28641565Y-96469616D01*
X28722034Y-96494027D01*
X28761446Y-96505982D01*
X28969910Y-96617408D01*
X29152634Y-96767366D01*
X29302592Y-96950090D01*
X29414017Y-97158553D01*
X29414018Y-97158556D01*
X29414019Y-97158558D01*
X29482637Y-97384759D01*
X29505806Y-97620000D01*
X29482637Y-97855241D01*
X29414019Y-98081442D01*
X29414017Y-98081447D01*
X29302592Y-98289910D01*
X29152634Y-98472634D01*
X28969910Y-98622592D01*
X28761446Y-98734018D01*
X28722034Y-98745973D01*
X28641565Y-98770384D01*
X28618929Y-98779760D01*
X28598555Y-98793374D01*
X28581228Y-98810701D01*
X28567614Y-98831075D01*
X28558236Y-98853714D01*
X28553456Y-98877748D01*
X28553456Y-98902252D01*
X28558236Y-98926285D01*
X28567614Y-98948925D01*
X28581228Y-98969299D01*
X28598555Y-98986626D01*
X28618929Y-99000240D01*
X28641565Y-99009616D01*
X28722034Y-99034027D01*
X28761446Y-99045982D01*
X28969910Y-99157408D01*
X29152634Y-99307366D01*
X29302592Y-99490090D01*
X29414017Y-99698553D01*
X29414018Y-99698556D01*
X29414019Y-99698558D01*
X29482637Y-99924759D01*
X29505806Y-100160000D01*
X29482637Y-100395241D01*
X29414019Y-100621442D01*
X29414017Y-100621447D01*
X29302592Y-100829910D01*
X29152634Y-101012634D01*
X28969910Y-101162592D01*
X28761446Y-101274018D01*
X28722034Y-101285973D01*
X28641565Y-101310384D01*
X28618929Y-101319760D01*
X28598555Y-101333374D01*
X28581228Y-101350701D01*
X28567614Y-101371075D01*
X28558236Y-101393714D01*
X28553456Y-101417748D01*
X28553456Y-101442252D01*
X28558236Y-101466285D01*
X28567614Y-101488925D01*
X28581228Y-101509299D01*
X28598555Y-101526626D01*
X28618929Y-101540240D01*
X28641565Y-101549616D01*
X28722034Y-101574027D01*
X28761446Y-101585982D01*
X28969910Y-101697408D01*
X29152634Y-101847366D01*
X29302592Y-102030090D01*
X29414017Y-102238553D01*
X29414018Y-102238556D01*
X29414019Y-102238558D01*
X29482637Y-102464759D01*
X29505806Y-102700000D01*
X29482637Y-102935241D01*
X29414019Y-103161442D01*
X29414017Y-103161447D01*
X29302592Y-103369910D01*
X29152634Y-103552634D01*
X28969910Y-103702592D01*
X28761446Y-103814018D01*
X28722034Y-103825973D01*
X28641565Y-103850384D01*
X28618929Y-103859760D01*
X28598555Y-103873374D01*
X28581228Y-103890701D01*
X28567614Y-103911075D01*
X28558236Y-103933714D01*
X28553456Y-103957748D01*
X28553456Y-103982252D01*
X28558236Y-104006285D01*
X28567614Y-104028925D01*
X28581228Y-104049299D01*
X28598555Y-104066626D01*
X28618929Y-104080240D01*
X28641565Y-104089616D01*
X28722034Y-104114027D01*
X28761446Y-104125982D01*
X28969910Y-104237408D01*
X29152634Y-104387366D01*
X29302592Y-104570090D01*
X29414017Y-104778553D01*
X29414018Y-104778556D01*
X29414019Y-104778558D01*
X29482637Y-105004759D01*
X29505806Y-105240000D01*
X29482637Y-105475241D01*
X29414019Y-105701442D01*
X29414017Y-105701447D01*
X29302592Y-105909910D01*
X29152634Y-106092634D01*
X28969910Y-106242592D01*
X28761447Y-106354017D01*
X28761444Y-106354018D01*
X28761442Y-106354019D01*
X28535241Y-106422637D01*
X28394208Y-106436527D01*
X28358951Y-106440000D01*
X27641049Y-106440000D01*
X27605792Y-106436527D01*
X27464759Y-106422637D01*
X27238558Y-106354019D01*
X27238556Y-106354018D01*
X27238553Y-106354017D01*
X27030090Y-106242592D01*
X26847366Y-106092634D01*
X26697408Y-105909910D01*
X26585983Y-105701447D01*
X26585981Y-105701442D01*
X26517363Y-105475241D01*
X26494194Y-105240000D01*
X26517363Y-105004759D01*
X26585981Y-104778558D01*
X26585982Y-104778556D01*
X26585983Y-104778553D01*
X26697408Y-104570090D01*
X26847366Y-104387366D01*
X27030090Y-104237408D01*
X27238554Y-104125982D01*
X27277966Y-104114027D01*
X27358435Y-104089616D01*
X27381071Y-104080240D01*
X27401445Y-104066626D01*
X27418772Y-104049299D01*
X27432386Y-104028925D01*
X27441764Y-104006286D01*
X27446544Y-103982252D01*
X27446544Y-103957748D01*
X27441764Y-103933715D01*
X27432386Y-103911075D01*
X27418772Y-103890701D01*
X27401445Y-103873374D01*
X27381071Y-103859760D01*
X27358435Y-103850384D01*
X27277966Y-103825973D01*
X27238554Y-103814018D01*
X27030090Y-103702592D01*
X26847366Y-103552634D01*
X26697408Y-103369910D01*
X26585983Y-103161447D01*
X26585981Y-103161442D01*
X26517363Y-102935241D01*
X26494194Y-102700000D01*
X26517363Y-102464759D01*
X26585981Y-102238558D01*
X26585982Y-102238556D01*
X26585983Y-102238553D01*
X26697408Y-102030090D01*
X26847366Y-101847366D01*
X27030090Y-101697408D01*
X27238554Y-101585982D01*
X27277966Y-101574027D01*
X27358435Y-101549616D01*
X27381071Y-101540240D01*
X27401445Y-101526626D01*
X27418772Y-101509299D01*
X27432386Y-101488925D01*
X27441764Y-101466286D01*
X27446544Y-101442252D01*
X27446544Y-101417748D01*
X27441764Y-101393715D01*
X27432386Y-101371075D01*
X27418772Y-101350701D01*
X27401445Y-101333374D01*
X27381071Y-101319760D01*
X27358435Y-101310384D01*
X27277966Y-101285973D01*
X27238554Y-101274018D01*
X27030090Y-101162592D01*
X26847366Y-101012634D01*
X26697408Y-100829910D01*
X26585983Y-100621447D01*
X26585981Y-100621442D01*
X26517363Y-100395241D01*
X26494194Y-100160000D01*
X26517363Y-99924759D01*
X26585981Y-99698558D01*
X26585982Y-99698556D01*
X26585983Y-99698553D01*
X26697408Y-99490090D01*
X26847366Y-99307366D01*
X27030090Y-99157408D01*
X27238554Y-99045982D01*
X27277966Y-99034027D01*
X27358435Y-99009616D01*
X27381071Y-99000240D01*
X27401445Y-98986626D01*
X27418772Y-98969299D01*
X27432386Y-98948925D01*
X27441764Y-98926286D01*
X27446544Y-98902252D01*
X27446544Y-98877748D01*
X27441764Y-98853715D01*
X27432386Y-98831075D01*
X27418772Y-98810701D01*
X27401445Y-98793374D01*
X27381071Y-98779760D01*
X27358435Y-98770384D01*
X27277966Y-98745973D01*
X27238554Y-98734018D01*
X27030090Y-98622592D01*
X26847366Y-98472634D01*
X26697408Y-98289910D01*
X26585983Y-98081447D01*
X26585981Y-98081442D01*
X26517363Y-97855241D01*
X26494194Y-97620000D01*
X26517363Y-97384759D01*
X26585981Y-97158558D01*
X26585982Y-97158556D01*
X26585983Y-97158553D01*
X26697408Y-96950090D01*
X26847366Y-96767366D01*
X27030090Y-96617408D01*
X27238554Y-96505982D01*
X27277966Y-96494027D01*
X27358435Y-96469616D01*
X27381071Y-96460240D01*
X27401445Y-96446626D01*
X27418772Y-96429299D01*
X27432386Y-96408925D01*
X27441764Y-96386286D01*
X27446544Y-96362252D01*
X27446544Y-96337748D01*
X27441764Y-96313715D01*
X27432386Y-96291075D01*
X27418772Y-96270701D01*
X27401445Y-96253374D01*
X27381071Y-96239760D01*
X27358435Y-96230384D01*
X27277966Y-96205973D01*
X27238554Y-96194018D01*
X27030090Y-96082592D01*
X26847366Y-95932634D01*
X26697408Y-95749910D01*
X26585983Y-95541447D01*
X26585981Y-95541442D01*
X26517363Y-95315241D01*
X26494194Y-95080000D01*
X26517363Y-94844759D01*
X26585981Y-94618558D01*
X26585982Y-94618556D01*
X26585983Y-94618553D01*
X26697408Y-94410090D01*
X26847366Y-94227366D01*
X27030090Y-94077408D01*
X27238554Y-93965982D01*
X27277966Y-93954027D01*
X27358435Y-93929616D01*
X27381071Y-93920240D01*
X27401445Y-93906626D01*
X27418772Y-93889299D01*
X27432386Y-93868925D01*
X27441764Y-93846286D01*
X27446544Y-93822252D01*
X27446544Y-93797748D01*
X27441764Y-93773715D01*
X27432386Y-93751075D01*
X27418772Y-93730701D01*
X27401445Y-93713374D01*
X27381071Y-93699760D01*
X27358435Y-93690384D01*
X27277966Y-93665973D01*
X27238554Y-93654018D01*
X27030090Y-93542592D01*
X26847366Y-93392634D01*
X26697408Y-93209910D01*
X26585983Y-93001447D01*
X26585981Y-93001442D01*
X26517363Y-92775241D01*
X26494194Y-92540000D01*
X26517363Y-92304759D01*
X26585981Y-92078558D01*
X26585982Y-92078556D01*
X26585983Y-92078553D01*
X26697408Y-91870090D01*
X26847366Y-91687366D01*
X27030090Y-91537408D01*
X27221234Y-91435240D01*
X27241609Y-91421626D01*
X27258936Y-91404299D01*
X27272550Y-91383925D01*
X27281927Y-91361286D01*
X27286708Y-91337252D01*
X27286708Y-91312748D01*
X27281928Y-91288715D01*
X27272550Y-91266076D01*
X27258936Y-91245701D01*
X27241609Y-91228374D01*
X27221235Y-91214760D01*
X27198596Y-91205383D01*
X27174562Y-91200602D01*
X27162310Y-91200000D01*
X26500000Y-91200000D01*
X26500000Y-88800000D01*
X29500000Y-88800000D01*
X29500000Y-91200000D01*
X29500000Y-91200000D01*
G37*
G36*
X53390026Y-94346115D02*
X53608412Y-94436573D01*
X53804958Y-94567901D01*
X53972099Y-94735042D01*
X54103427Y-94931588D01*
X54193885Y-95149974D01*
X54240000Y-95381809D01*
X54240000Y-95618191D01*
X54193885Y-95850026D01*
X54103427Y-96068412D01*
X53972099Y-96264958D01*
X53804958Y-96432099D01*
X53608412Y-96563427D01*
X53388505Y-96654515D01*
X53366894Y-96666066D01*
X53347952Y-96681611D01*
X53332406Y-96700554D01*
X53320855Y-96722164D01*
X53313742Y-96745613D01*
X53311340Y-96770000D01*
X53313742Y-96794386D01*
X53320855Y-96817835D01*
X53332406Y-96839446D01*
X53347951Y-96858388D01*
X53366894Y-96873934D01*
X53388505Y-96885485D01*
X53608412Y-96976573D01*
X53804958Y-97107901D01*
X53972099Y-97275042D01*
X54103427Y-97471588D01*
X54193885Y-97689974D01*
X54240000Y-97921809D01*
X54240000Y-98158191D01*
X54193885Y-98390026D01*
X54103427Y-98608412D01*
X53972099Y-98804958D01*
X53804958Y-98972099D01*
X53608412Y-99103427D01*
X53388505Y-99194515D01*
X53366894Y-99206066D01*
X53347952Y-99221611D01*
X53332406Y-99240554D01*
X53320855Y-99262164D01*
X53313742Y-99285613D01*
X53311340Y-99310000D01*
X53313742Y-99334386D01*
X53320855Y-99357835D01*
X53332406Y-99379446D01*
X53347951Y-99398388D01*
X53366894Y-99413934D01*
X53388505Y-99425485D01*
X53608412Y-99516573D01*
X53804958Y-99647901D01*
X53972099Y-99815042D01*
X54103427Y-100011588D01*
X54193885Y-100229974D01*
X54240000Y-100461809D01*
X54240000Y-100698191D01*
X54193885Y-100930026D01*
X54103427Y-101148412D01*
X53972099Y-101344958D01*
X53804958Y-101512099D01*
X53608412Y-101643427D01*
X53390026Y-101733885D01*
X53158191Y-101780000D01*
X52921809Y-101780000D01*
X52689974Y-101733885D01*
X52471588Y-101643427D01*
X52275042Y-101512099D01*
X52107901Y-101344958D01*
X51976573Y-101148412D01*
X51886115Y-100930026D01*
X51840000Y-100698191D01*
X51840000Y-100461809D01*
X51886115Y-100229974D01*
X51976573Y-100011588D01*
X52107901Y-99815042D01*
X52275042Y-99647901D01*
X52471588Y-99516573D01*
X52691495Y-99425485D01*
X52713106Y-99413934D01*
X52732048Y-99398389D01*
X52747594Y-99379446D01*
X52759145Y-99357836D01*
X52766258Y-99334387D01*
X52768660Y-99310000D01*
X52766258Y-99285614D01*
X52759145Y-99262165D01*
X52747594Y-99240554D01*
X52732049Y-99221612D01*
X52713106Y-99206066D01*
X52691495Y-99194515D01*
X52471588Y-99103427D01*
X52275042Y-98972099D01*
X52107901Y-98804958D01*
X51976573Y-98608412D01*
X51886115Y-98390026D01*
X51840000Y-98158191D01*
X51840000Y-97921809D01*
X51886115Y-97689974D01*
X51976573Y-97471588D01*
X52107901Y-97275042D01*
X52275042Y-97107901D01*
X52471588Y-96976573D01*
X52691495Y-96885485D01*
X52713106Y-96873934D01*
X52732048Y-96858389D01*
X52747594Y-96839446D01*
X52759145Y-96817836D01*
X52766258Y-96794387D01*
X52768660Y-96770000D01*
X52766258Y-96745614D01*
X52759145Y-96722165D01*
X52747594Y-96700554D01*
X52732049Y-96681612D01*
X52713106Y-96666066D01*
X52691495Y-96654515D01*
X52471588Y-96563427D01*
X52275042Y-96432099D01*
X52107901Y-96264958D01*
X51976573Y-96068412D01*
X51886115Y-95850026D01*
X51840000Y-95618191D01*
X51840000Y-95381809D01*
X51886115Y-95149974D01*
X51976573Y-94931588D01*
X52107901Y-94735042D01*
X52275042Y-94567901D01*
X52471588Y-94436573D01*
X52689974Y-94346115D01*
X52921809Y-94300000D01*
X53158191Y-94300000D01*
X53390026Y-94346115D01*
X53390026Y-94346115D01*
G37*
G36*
X64310026Y-94346115D02*
X64528412Y-94436573D01*
X64724958Y-94567901D01*
X64892099Y-94735042D01*
X65023427Y-94931588D01*
X65113885Y-95149974D01*
X65160000Y-95381809D01*
X65160000Y-95618191D01*
X65113885Y-95850026D01*
X65023427Y-96068412D01*
X64892099Y-96264958D01*
X64724958Y-96432099D01*
X64528412Y-96563427D01*
X64308505Y-96654515D01*
X64286894Y-96666066D01*
X64267952Y-96681611D01*
X64252406Y-96700554D01*
X64240855Y-96722164D01*
X64233742Y-96745613D01*
X64231340Y-96770000D01*
X64233742Y-96794386D01*
X64240855Y-96817835D01*
X64252406Y-96839446D01*
X64267951Y-96858388D01*
X64286894Y-96873934D01*
X64308505Y-96885485D01*
X64528412Y-96976573D01*
X64724958Y-97107901D01*
X64892099Y-97275042D01*
X65023427Y-97471588D01*
X65113885Y-97689974D01*
X65160000Y-97921809D01*
X65160000Y-98158191D01*
X65113885Y-98390026D01*
X65023427Y-98608412D01*
X64892099Y-98804958D01*
X64724958Y-98972099D01*
X64528412Y-99103427D01*
X64308505Y-99194515D01*
X64286894Y-99206066D01*
X64267952Y-99221611D01*
X64252406Y-99240554D01*
X64240855Y-99262164D01*
X64233742Y-99285613D01*
X64231340Y-99310000D01*
X64233742Y-99334386D01*
X64240855Y-99357835D01*
X64252406Y-99379446D01*
X64267951Y-99398388D01*
X64286894Y-99413934D01*
X64308505Y-99425485D01*
X64528412Y-99516573D01*
X64724958Y-99647901D01*
X64892099Y-99815042D01*
X65023427Y-100011588D01*
X65113885Y-100229974D01*
X65160000Y-100461809D01*
X65160000Y-100698191D01*
X65113885Y-100930026D01*
X65023427Y-101148412D01*
X64892099Y-101344958D01*
X64724958Y-101512099D01*
X64528412Y-101643427D01*
X64310026Y-101733885D01*
X64078191Y-101780000D01*
X63841809Y-101780000D01*
X63609974Y-101733885D01*
X63391588Y-101643427D01*
X63195042Y-101512099D01*
X63027901Y-101344958D01*
X62896573Y-101148412D01*
X62806115Y-100930026D01*
X62760000Y-100698191D01*
X62760000Y-100461809D01*
X62806115Y-100229974D01*
X62896573Y-100011588D01*
X63027901Y-99815042D01*
X63195042Y-99647901D01*
X63391588Y-99516573D01*
X63611495Y-99425485D01*
X63633106Y-99413934D01*
X63652048Y-99398389D01*
X63667594Y-99379446D01*
X63679145Y-99357836D01*
X63686258Y-99334387D01*
X63688660Y-99310000D01*
X63686258Y-99285614D01*
X63679145Y-99262165D01*
X63667594Y-99240554D01*
X63652049Y-99221612D01*
X63633106Y-99206066D01*
X63611495Y-99194515D01*
X63391588Y-99103427D01*
X63195042Y-98972099D01*
X63027901Y-98804958D01*
X62896573Y-98608412D01*
X62806115Y-98390026D01*
X62760000Y-98158191D01*
X62760000Y-97921809D01*
X62806115Y-97689974D01*
X62896573Y-97471588D01*
X63027901Y-97275042D01*
X63195042Y-97107901D01*
X63391588Y-96976573D01*
X63611495Y-96885485D01*
X63633106Y-96873934D01*
X63652048Y-96858389D01*
X63667594Y-96839446D01*
X63679145Y-96817836D01*
X63686258Y-96794387D01*
X63688660Y-96770000D01*
X63686258Y-96745614D01*
X63679145Y-96722165D01*
X63667594Y-96700554D01*
X63652049Y-96681612D01*
X63633106Y-96666066D01*
X63611495Y-96654515D01*
X63391588Y-96563427D01*
X63195042Y-96432099D01*
X63027901Y-96264958D01*
X62896573Y-96068412D01*
X62806115Y-95850026D01*
X62760000Y-95618191D01*
X62760000Y-95381809D01*
X62806115Y-95149974D01*
X62896573Y-94931588D01*
X63027901Y-94735042D01*
X63195042Y-94567901D01*
X63391588Y-94436573D01*
X63609974Y-94346115D01*
X63841809Y-94300000D01*
X64078191Y-94300000D01*
X64310026Y-94346115D01*
X64310026Y-94346115D01*
G37*
G36*
X69390026Y-94346115D02*
X69608412Y-94436573D01*
X69804958Y-94567901D01*
X69972099Y-94735042D01*
X70103427Y-94931588D01*
X70193885Y-95149974D01*
X70240000Y-95381809D01*
X70240000Y-95618191D01*
X70193885Y-95850026D01*
X70103427Y-96068412D01*
X69972099Y-96264958D01*
X69804958Y-96432099D01*
X69608412Y-96563427D01*
X69388505Y-96654515D01*
X69366894Y-96666066D01*
X69347952Y-96681611D01*
X69332406Y-96700554D01*
X69320855Y-96722164D01*
X69313742Y-96745613D01*
X69311340Y-96770000D01*
X69313742Y-96794386D01*
X69320855Y-96817835D01*
X69332406Y-96839446D01*
X69347951Y-96858388D01*
X69366894Y-96873934D01*
X69388505Y-96885485D01*
X69608412Y-96976573D01*
X69804958Y-97107901D01*
X69972099Y-97275042D01*
X70103427Y-97471588D01*
X70193885Y-97689974D01*
X70240000Y-97921809D01*
X70240000Y-98158191D01*
X70193885Y-98390026D01*
X70103427Y-98608412D01*
X69972099Y-98804958D01*
X69804958Y-98972099D01*
X69608412Y-99103427D01*
X69388505Y-99194515D01*
X69366894Y-99206066D01*
X69347952Y-99221611D01*
X69332406Y-99240554D01*
X69320855Y-99262164D01*
X69313742Y-99285613D01*
X69311340Y-99310000D01*
X69313742Y-99334386D01*
X69320855Y-99357835D01*
X69332406Y-99379446D01*
X69347951Y-99398388D01*
X69366894Y-99413934D01*
X69388505Y-99425485D01*
X69608412Y-99516573D01*
X69804958Y-99647901D01*
X69972099Y-99815042D01*
X70103427Y-100011588D01*
X70193885Y-100229974D01*
X70240000Y-100461809D01*
X70240000Y-100698191D01*
X70193885Y-100930026D01*
X70103427Y-101148412D01*
X69972099Y-101344958D01*
X69804958Y-101512099D01*
X69608412Y-101643427D01*
X69390026Y-101733885D01*
X69158191Y-101780000D01*
X68921809Y-101780000D01*
X68689974Y-101733885D01*
X68471588Y-101643427D01*
X68275042Y-101512099D01*
X68107901Y-101344958D01*
X67976573Y-101148412D01*
X67886115Y-100930026D01*
X67840000Y-100698191D01*
X67840000Y-100461809D01*
X67886115Y-100229974D01*
X67976573Y-100011588D01*
X68107901Y-99815042D01*
X68275042Y-99647901D01*
X68471588Y-99516573D01*
X68691495Y-99425485D01*
X68713106Y-99413934D01*
X68732048Y-99398389D01*
X68747594Y-99379446D01*
X68759145Y-99357836D01*
X68766258Y-99334387D01*
X68768660Y-99310000D01*
X68766258Y-99285614D01*
X68759145Y-99262165D01*
X68747594Y-99240554D01*
X68732049Y-99221612D01*
X68713106Y-99206066D01*
X68691495Y-99194515D01*
X68471588Y-99103427D01*
X68275042Y-98972099D01*
X68107901Y-98804958D01*
X67976573Y-98608412D01*
X67886115Y-98390026D01*
X67840000Y-98158191D01*
X67840000Y-97921809D01*
X67886115Y-97689974D01*
X67976573Y-97471588D01*
X68107901Y-97275042D01*
X68275042Y-97107901D01*
X68471588Y-96976573D01*
X68691495Y-96885485D01*
X68713106Y-96873934D01*
X68732048Y-96858389D01*
X68747594Y-96839446D01*
X68759145Y-96817836D01*
X68766258Y-96794387D01*
X68768660Y-96770000D01*
X68766258Y-96745614D01*
X68759145Y-96722165D01*
X68747594Y-96700554D01*
X68732049Y-96681612D01*
X68713106Y-96666066D01*
X68691495Y-96654515D01*
X68471588Y-96563427D01*
X68275042Y-96432099D01*
X68107901Y-96264958D01*
X67976573Y-96068412D01*
X67886115Y-95850026D01*
X67840000Y-95618191D01*
X67840000Y-95381809D01*
X67886115Y-95149974D01*
X67976573Y-94931588D01*
X68107901Y-94735042D01*
X68275042Y-94567901D01*
X68471588Y-94436573D01*
X68689974Y-94346115D01*
X68921809Y-94300000D01*
X69158191Y-94300000D01*
X69390026Y-94346115D01*
X69390026Y-94346115D01*
G37*
G36*
X48310026Y-94346115D02*
X48528412Y-94436573D01*
X48724958Y-94567901D01*
X48892099Y-94735042D01*
X49023427Y-94931588D01*
X49113885Y-95149974D01*
X49160000Y-95381809D01*
X49160000Y-95618191D01*
X49113885Y-95850026D01*
X49023427Y-96068412D01*
X48892099Y-96264958D01*
X48724958Y-96432099D01*
X48528412Y-96563427D01*
X48308505Y-96654515D01*
X48286894Y-96666066D01*
X48267952Y-96681611D01*
X48252406Y-96700554D01*
X48240855Y-96722164D01*
X48233742Y-96745613D01*
X48231340Y-96770000D01*
X48233742Y-96794386D01*
X48240855Y-96817835D01*
X48252406Y-96839446D01*
X48267951Y-96858388D01*
X48286894Y-96873934D01*
X48308505Y-96885485D01*
X48528412Y-96976573D01*
X48724958Y-97107901D01*
X48892099Y-97275042D01*
X49023427Y-97471588D01*
X49113885Y-97689974D01*
X49160000Y-97921809D01*
X49160000Y-98158191D01*
X49113885Y-98390026D01*
X49023427Y-98608412D01*
X48892099Y-98804958D01*
X48724958Y-98972099D01*
X48528412Y-99103427D01*
X48308505Y-99194515D01*
X48286894Y-99206066D01*
X48267952Y-99221611D01*
X48252406Y-99240554D01*
X48240855Y-99262164D01*
X48233742Y-99285613D01*
X48231340Y-99310000D01*
X48233742Y-99334386D01*
X48240855Y-99357835D01*
X48252406Y-99379446D01*
X48267951Y-99398388D01*
X48286894Y-99413934D01*
X48308505Y-99425485D01*
X48528412Y-99516573D01*
X48724958Y-99647901D01*
X48892099Y-99815042D01*
X49023427Y-100011588D01*
X49113885Y-100229974D01*
X49160000Y-100461809D01*
X49160000Y-100698191D01*
X49113885Y-100930026D01*
X49023427Y-101148412D01*
X48892099Y-101344958D01*
X48724958Y-101512099D01*
X48528412Y-101643427D01*
X48310026Y-101733885D01*
X48078191Y-101780000D01*
X47841809Y-101780000D01*
X47609974Y-101733885D01*
X47391588Y-101643427D01*
X47195042Y-101512099D01*
X47027901Y-101344958D01*
X46896573Y-101148412D01*
X46806115Y-100930026D01*
X46760000Y-100698191D01*
X46760000Y-100461809D01*
X46806115Y-100229974D01*
X46896573Y-100011588D01*
X47027901Y-99815042D01*
X47195042Y-99647901D01*
X47391588Y-99516573D01*
X47611495Y-99425485D01*
X47633106Y-99413934D01*
X47652048Y-99398389D01*
X47667594Y-99379446D01*
X47679145Y-99357836D01*
X47686258Y-99334387D01*
X47688660Y-99310000D01*
X47686258Y-99285614D01*
X47679145Y-99262165D01*
X47667594Y-99240554D01*
X47652049Y-99221612D01*
X47633106Y-99206066D01*
X47611495Y-99194515D01*
X47391588Y-99103427D01*
X47195042Y-98972099D01*
X47027901Y-98804958D01*
X46896573Y-98608412D01*
X46806115Y-98390026D01*
X46760000Y-98158191D01*
X46760000Y-97921809D01*
X46806115Y-97689974D01*
X46896573Y-97471588D01*
X47027901Y-97275042D01*
X47195042Y-97107901D01*
X47391588Y-96976573D01*
X47611495Y-96885485D01*
X47633106Y-96873934D01*
X47652048Y-96858389D01*
X47667594Y-96839446D01*
X47679145Y-96817836D01*
X47686258Y-96794387D01*
X47688660Y-96770000D01*
X47686258Y-96745614D01*
X47679145Y-96722165D01*
X47667594Y-96700554D01*
X47652049Y-96681612D01*
X47633106Y-96666066D01*
X47611495Y-96654515D01*
X47391588Y-96563427D01*
X47195042Y-96432099D01*
X47027901Y-96264958D01*
X46896573Y-96068412D01*
X46806115Y-95850026D01*
X46760000Y-95618191D01*
X46760000Y-95381809D01*
X46806115Y-95149974D01*
X46896573Y-94931588D01*
X47027901Y-94735042D01*
X47195042Y-94567901D01*
X47391588Y-94436573D01*
X47609974Y-94346115D01*
X47841809Y-94300000D01*
X48078191Y-94300000D01*
X48310026Y-94346115D01*
X48310026Y-94346115D01*
G37*
G36*
X103810026Y-93846115D02*
X104028412Y-93936573D01*
X104224958Y-94067901D01*
X104392099Y-94235042D01*
X104523427Y-94431588D01*
X104613885Y-94649974D01*
X104660000Y-94881809D01*
X104660000Y-95118191D01*
X104613885Y-95350026D01*
X104523427Y-95568412D01*
X104392099Y-95764958D01*
X104224958Y-95932099D01*
X104028412Y-96063427D01*
X103808505Y-96154515D01*
X103786894Y-96166066D01*
X103767952Y-96181611D01*
X103752406Y-96200554D01*
X103740855Y-96222164D01*
X103733742Y-96245613D01*
X103731340Y-96270000D01*
X103733742Y-96294386D01*
X103740855Y-96317835D01*
X103752406Y-96339446D01*
X103767951Y-96358388D01*
X103786894Y-96373934D01*
X103808505Y-96385485D01*
X104028412Y-96476573D01*
X104224958Y-96607901D01*
X104392099Y-96775042D01*
X104523427Y-96971588D01*
X104613885Y-97189974D01*
X104660000Y-97421809D01*
X104660000Y-97658191D01*
X104613885Y-97890026D01*
X104523427Y-98108412D01*
X104392099Y-98304958D01*
X104224958Y-98472099D01*
X104028412Y-98603427D01*
X103808505Y-98694515D01*
X103786894Y-98706066D01*
X103767952Y-98721611D01*
X103752406Y-98740554D01*
X103740855Y-98762164D01*
X103733742Y-98785613D01*
X103731340Y-98810000D01*
X103733742Y-98834386D01*
X103740855Y-98857835D01*
X103752406Y-98879446D01*
X103767951Y-98898388D01*
X103786894Y-98913934D01*
X103808505Y-98925485D01*
X104028412Y-99016573D01*
X104224958Y-99147901D01*
X104392099Y-99315042D01*
X104523427Y-99511588D01*
X104613885Y-99729974D01*
X104660000Y-99961809D01*
X104660000Y-100198191D01*
X104613885Y-100430026D01*
X104523427Y-100648412D01*
X104392099Y-100844958D01*
X104224958Y-101012099D01*
X104028412Y-101143427D01*
X103810026Y-101233885D01*
X103578191Y-101280000D01*
X103341809Y-101280000D01*
X103109974Y-101233885D01*
X102891588Y-101143427D01*
X102695042Y-101012099D01*
X102527901Y-100844958D01*
X102396573Y-100648412D01*
X102306115Y-100430026D01*
X102260000Y-100198191D01*
X102260000Y-99961809D01*
X102306115Y-99729974D01*
X102396573Y-99511588D01*
X102527901Y-99315042D01*
X102695042Y-99147901D01*
X102891588Y-99016573D01*
X103111495Y-98925485D01*
X103133106Y-98913934D01*
X103152048Y-98898389D01*
X103167594Y-98879446D01*
X103179145Y-98857836D01*
X103186258Y-98834387D01*
X103188660Y-98810000D01*
X103186258Y-98785614D01*
X103179145Y-98762165D01*
X103167594Y-98740554D01*
X103152049Y-98721612D01*
X103133106Y-98706066D01*
X103111495Y-98694515D01*
X102891588Y-98603427D01*
X102695042Y-98472099D01*
X102527901Y-98304958D01*
X102396573Y-98108412D01*
X102306115Y-97890026D01*
X102260000Y-97658191D01*
X102260000Y-97421809D01*
X102306115Y-97189974D01*
X102396573Y-96971588D01*
X102527901Y-96775042D01*
X102695042Y-96607901D01*
X102891588Y-96476573D01*
X103111495Y-96385485D01*
X103133106Y-96373934D01*
X103152048Y-96358389D01*
X103167594Y-96339446D01*
X103179145Y-96317836D01*
X103186258Y-96294387D01*
X103188660Y-96270000D01*
X103186258Y-96245614D01*
X103179145Y-96222165D01*
X103167594Y-96200554D01*
X103152049Y-96181612D01*
X103133106Y-96166066D01*
X103111495Y-96154515D01*
X102891588Y-96063427D01*
X102695042Y-95932099D01*
X102527901Y-95764958D01*
X102396573Y-95568412D01*
X102306115Y-95350026D01*
X102260000Y-95118191D01*
X102260000Y-94881809D01*
X102306115Y-94649974D01*
X102396573Y-94431588D01*
X102527901Y-94235042D01*
X102695042Y-94067901D01*
X102891588Y-93936573D01*
X103109974Y-93846115D01*
X103341809Y-93800000D01*
X103578191Y-93800000D01*
X103810026Y-93846115D01*
X103810026Y-93846115D01*
G37*
G36*
X96890026Y-93846115D02*
X97108412Y-93936573D01*
X97304958Y-94067901D01*
X97472099Y-94235042D01*
X97603427Y-94431588D01*
X97693885Y-94649974D01*
X97740000Y-94881809D01*
X97740000Y-95118191D01*
X97693885Y-95350026D01*
X97603427Y-95568412D01*
X97472099Y-95764958D01*
X97304958Y-95932099D01*
X97108412Y-96063427D01*
X96888505Y-96154515D01*
X96866894Y-96166066D01*
X96847952Y-96181611D01*
X96832406Y-96200554D01*
X96820855Y-96222164D01*
X96813742Y-96245613D01*
X96811340Y-96270000D01*
X96813742Y-96294386D01*
X96820855Y-96317835D01*
X96832406Y-96339446D01*
X96847951Y-96358388D01*
X96866894Y-96373934D01*
X96888505Y-96385485D01*
X97108412Y-96476573D01*
X97304958Y-96607901D01*
X97472099Y-96775042D01*
X97603427Y-96971588D01*
X97693885Y-97189974D01*
X97740000Y-97421809D01*
X97740000Y-97658191D01*
X97693885Y-97890026D01*
X97603427Y-98108412D01*
X97472099Y-98304958D01*
X97304958Y-98472099D01*
X97108412Y-98603427D01*
X96888505Y-98694515D01*
X96866894Y-98706066D01*
X96847952Y-98721611D01*
X96832406Y-98740554D01*
X96820855Y-98762164D01*
X96813742Y-98785613D01*
X96811340Y-98810000D01*
X96813742Y-98834386D01*
X96820855Y-98857835D01*
X96832406Y-98879446D01*
X96847951Y-98898388D01*
X96866894Y-98913934D01*
X96888505Y-98925485D01*
X97108412Y-99016573D01*
X97304958Y-99147901D01*
X97472099Y-99315042D01*
X97603427Y-99511588D01*
X97693885Y-99729974D01*
X97740000Y-99961809D01*
X97740000Y-100198191D01*
X97693885Y-100430026D01*
X97603427Y-100648412D01*
X97472099Y-100844958D01*
X97304958Y-101012099D01*
X97108412Y-101143427D01*
X96890026Y-101233885D01*
X96658191Y-101280000D01*
X96421809Y-101280000D01*
X96189974Y-101233885D01*
X95971588Y-101143427D01*
X95775042Y-101012099D01*
X95607901Y-100844958D01*
X95476573Y-100648412D01*
X95386115Y-100430026D01*
X95340000Y-100198191D01*
X95340000Y-99961809D01*
X95386115Y-99729974D01*
X95476573Y-99511588D01*
X95607901Y-99315042D01*
X95775042Y-99147901D01*
X95971588Y-99016573D01*
X96191495Y-98925485D01*
X96213106Y-98913934D01*
X96232048Y-98898389D01*
X96247594Y-98879446D01*
X96259145Y-98857836D01*
X96266258Y-98834387D01*
X96268660Y-98810000D01*
X96266258Y-98785614D01*
X96259145Y-98762165D01*
X96247594Y-98740554D01*
X96232049Y-98721612D01*
X96213106Y-98706066D01*
X96191495Y-98694515D01*
X95971588Y-98603427D01*
X95775042Y-98472099D01*
X95607901Y-98304958D01*
X95476573Y-98108412D01*
X95386115Y-97890026D01*
X95340000Y-97658191D01*
X95340000Y-97421809D01*
X95386115Y-97189974D01*
X95476573Y-96971588D01*
X95607901Y-96775042D01*
X95775042Y-96607901D01*
X95971588Y-96476573D01*
X96191495Y-96385485D01*
X96213106Y-96373934D01*
X96232048Y-96358389D01*
X96247594Y-96339446D01*
X96259145Y-96317836D01*
X96266258Y-96294387D01*
X96268660Y-96270000D01*
X96266258Y-96245614D01*
X96259145Y-96222165D01*
X96247594Y-96200554D01*
X96232049Y-96181612D01*
X96213106Y-96166066D01*
X96191495Y-96154515D01*
X95971588Y-96063427D01*
X95775042Y-95932099D01*
X95607901Y-95764958D01*
X95476573Y-95568412D01*
X95386115Y-95350026D01*
X95340000Y-95118191D01*
X95340000Y-94881809D01*
X95386115Y-94649974D01*
X95476573Y-94431588D01*
X95607901Y-94235042D01*
X95775042Y-94067901D01*
X95971588Y-93936573D01*
X96189974Y-93846115D01*
X96421809Y-93800000D01*
X96658191Y-93800000D01*
X96890026Y-93846115D01*
X96890026Y-93846115D01*
G37*
G36*
X108890026Y-93846115D02*
X109108412Y-93936573D01*
X109304958Y-94067901D01*
X109472099Y-94235042D01*
X109603427Y-94431588D01*
X109693885Y-94649974D01*
X109740000Y-94881809D01*
X109740000Y-95118191D01*
X109693885Y-95350026D01*
X109603427Y-95568412D01*
X109472099Y-95764958D01*
X109304958Y-95932099D01*
X109108412Y-96063427D01*
X108888505Y-96154515D01*
X108866894Y-96166066D01*
X108847952Y-96181611D01*
X108832406Y-96200554D01*
X108820855Y-96222164D01*
X108813742Y-96245613D01*
X108811340Y-96270000D01*
X108813742Y-96294386D01*
X108820855Y-96317835D01*
X108832406Y-96339446D01*
X108847951Y-96358388D01*
X108866894Y-96373934D01*
X108888505Y-96385485D01*
X109108412Y-96476573D01*
X109304958Y-96607901D01*
X109472099Y-96775042D01*
X109603427Y-96971588D01*
X109693885Y-97189974D01*
X109740000Y-97421809D01*
X109740000Y-97658191D01*
X109693885Y-97890026D01*
X109603427Y-98108412D01*
X109472099Y-98304958D01*
X109304958Y-98472099D01*
X109108412Y-98603427D01*
X108888505Y-98694515D01*
X108866894Y-98706066D01*
X108847952Y-98721611D01*
X108832406Y-98740554D01*
X108820855Y-98762164D01*
X108813742Y-98785613D01*
X108811340Y-98810000D01*
X108813742Y-98834386D01*
X108820855Y-98857835D01*
X108832406Y-98879446D01*
X108847951Y-98898388D01*
X108866894Y-98913934D01*
X108888505Y-98925485D01*
X109108412Y-99016573D01*
X109304958Y-99147901D01*
X109472099Y-99315042D01*
X109603427Y-99511588D01*
X109693885Y-99729974D01*
X109740000Y-99961809D01*
X109740000Y-100198191D01*
X109693885Y-100430026D01*
X109603427Y-100648412D01*
X109472099Y-100844958D01*
X109304958Y-101012099D01*
X109108412Y-101143427D01*
X108890026Y-101233885D01*
X108658191Y-101280000D01*
X108421809Y-101280000D01*
X108189974Y-101233885D01*
X107971588Y-101143427D01*
X107775042Y-101012099D01*
X107607901Y-100844958D01*
X107476573Y-100648412D01*
X107386115Y-100430026D01*
X107340000Y-100198191D01*
X107340000Y-99961809D01*
X107386115Y-99729974D01*
X107476573Y-99511588D01*
X107607901Y-99315042D01*
X107775042Y-99147901D01*
X107971588Y-99016573D01*
X108191495Y-98925485D01*
X108213106Y-98913934D01*
X108232048Y-98898389D01*
X108247594Y-98879446D01*
X108259145Y-98857836D01*
X108266258Y-98834387D01*
X108268660Y-98810000D01*
X108266258Y-98785614D01*
X108259145Y-98762165D01*
X108247594Y-98740554D01*
X108232049Y-98721612D01*
X108213106Y-98706066D01*
X108191495Y-98694515D01*
X107971588Y-98603427D01*
X107775042Y-98472099D01*
X107607901Y-98304958D01*
X107476573Y-98108412D01*
X107386115Y-97890026D01*
X107340000Y-97658191D01*
X107340000Y-97421809D01*
X107386115Y-97189974D01*
X107476573Y-96971588D01*
X107607901Y-96775042D01*
X107775042Y-96607901D01*
X107971588Y-96476573D01*
X108191495Y-96385485D01*
X108213106Y-96373934D01*
X108232048Y-96358389D01*
X108247594Y-96339446D01*
X108259145Y-96317836D01*
X108266258Y-96294387D01*
X108268660Y-96270000D01*
X108266258Y-96245614D01*
X108259145Y-96222165D01*
X108247594Y-96200554D01*
X108232049Y-96181612D01*
X108213106Y-96166066D01*
X108191495Y-96154515D01*
X107971588Y-96063427D01*
X107775042Y-95932099D01*
X107607901Y-95764958D01*
X107476573Y-95568412D01*
X107386115Y-95350026D01*
X107340000Y-95118191D01*
X107340000Y-94881809D01*
X107386115Y-94649974D01*
X107476573Y-94431588D01*
X107607901Y-94235042D01*
X107775042Y-94067901D01*
X107971588Y-93936573D01*
X108189974Y-93846115D01*
X108421809Y-93800000D01*
X108658191Y-93800000D01*
X108890026Y-93846115D01*
X108890026Y-93846115D01*
G37*
G36*
X84890026Y-93846115D02*
X85108412Y-93936573D01*
X85304958Y-94067901D01*
X85472099Y-94235042D01*
X85603427Y-94431588D01*
X85693885Y-94649974D01*
X85740000Y-94881809D01*
X85740000Y-95118191D01*
X85693885Y-95350026D01*
X85603427Y-95568412D01*
X85472099Y-95764958D01*
X85304958Y-95932099D01*
X85108412Y-96063427D01*
X84888505Y-96154515D01*
X84866894Y-96166066D01*
X84847952Y-96181611D01*
X84832406Y-96200554D01*
X84820855Y-96222164D01*
X84813742Y-96245613D01*
X84811340Y-96270000D01*
X84813742Y-96294386D01*
X84820855Y-96317835D01*
X84832406Y-96339446D01*
X84847951Y-96358388D01*
X84866894Y-96373934D01*
X84888505Y-96385485D01*
X85108412Y-96476573D01*
X85304958Y-96607901D01*
X85472099Y-96775042D01*
X85603427Y-96971588D01*
X85693885Y-97189974D01*
X85740000Y-97421809D01*
X85740000Y-97658191D01*
X85693885Y-97890026D01*
X85603427Y-98108412D01*
X85472099Y-98304958D01*
X85304958Y-98472099D01*
X85108412Y-98603427D01*
X84888505Y-98694515D01*
X84866894Y-98706066D01*
X84847952Y-98721611D01*
X84832406Y-98740554D01*
X84820855Y-98762164D01*
X84813742Y-98785613D01*
X84811340Y-98810000D01*
X84813742Y-98834386D01*
X84820855Y-98857835D01*
X84832406Y-98879446D01*
X84847951Y-98898388D01*
X84866894Y-98913934D01*
X84888505Y-98925485D01*
X85108412Y-99016573D01*
X85304958Y-99147901D01*
X85472099Y-99315042D01*
X85603427Y-99511588D01*
X85693885Y-99729974D01*
X85740000Y-99961809D01*
X85740000Y-100198191D01*
X85693885Y-100430026D01*
X85603427Y-100648412D01*
X85472099Y-100844958D01*
X85304958Y-101012099D01*
X85108412Y-101143427D01*
X84890026Y-101233885D01*
X84658191Y-101280000D01*
X84421809Y-101280000D01*
X84189974Y-101233885D01*
X83971588Y-101143427D01*
X83775042Y-101012099D01*
X83607901Y-100844958D01*
X83476573Y-100648412D01*
X83386115Y-100430026D01*
X83340000Y-100198191D01*
X83340000Y-99961809D01*
X83386115Y-99729974D01*
X83476573Y-99511588D01*
X83607901Y-99315042D01*
X83775042Y-99147901D01*
X83971588Y-99016573D01*
X84191495Y-98925485D01*
X84213106Y-98913934D01*
X84232048Y-98898389D01*
X84247594Y-98879446D01*
X84259145Y-98857836D01*
X84266258Y-98834387D01*
X84268660Y-98810000D01*
X84266258Y-98785614D01*
X84259145Y-98762165D01*
X84247594Y-98740554D01*
X84232049Y-98721612D01*
X84213106Y-98706066D01*
X84191495Y-98694515D01*
X83971588Y-98603427D01*
X83775042Y-98472099D01*
X83607901Y-98304958D01*
X83476573Y-98108412D01*
X83386115Y-97890026D01*
X83340000Y-97658191D01*
X83340000Y-97421809D01*
X83386115Y-97189974D01*
X83476573Y-96971588D01*
X83607901Y-96775042D01*
X83775042Y-96607901D01*
X83971588Y-96476573D01*
X84191495Y-96385485D01*
X84213106Y-96373934D01*
X84232048Y-96358389D01*
X84247594Y-96339446D01*
X84259145Y-96317836D01*
X84266258Y-96294387D01*
X84268660Y-96270000D01*
X84266258Y-96245614D01*
X84259145Y-96222165D01*
X84247594Y-96200554D01*
X84232049Y-96181612D01*
X84213106Y-96166066D01*
X84191495Y-96154515D01*
X83971588Y-96063427D01*
X83775042Y-95932099D01*
X83607901Y-95764958D01*
X83476573Y-95568412D01*
X83386115Y-95350026D01*
X83340000Y-95118191D01*
X83340000Y-94881809D01*
X83386115Y-94649974D01*
X83476573Y-94431588D01*
X83607901Y-94235042D01*
X83775042Y-94067901D01*
X83971588Y-93936573D01*
X84189974Y-93846115D01*
X84421809Y-93800000D01*
X84658191Y-93800000D01*
X84890026Y-93846115D01*
X84890026Y-93846115D01*
G37*
G36*
X91810026Y-93846115D02*
X92028412Y-93936573D01*
X92224958Y-94067901D01*
X92392099Y-94235042D01*
X92523427Y-94431588D01*
X92613885Y-94649974D01*
X92660000Y-94881809D01*
X92660000Y-95118191D01*
X92613885Y-95350026D01*
X92523427Y-95568412D01*
X92392099Y-95764958D01*
X92224958Y-95932099D01*
X92028412Y-96063427D01*
X91808505Y-96154515D01*
X91786894Y-96166066D01*
X91767952Y-96181611D01*
X91752406Y-96200554D01*
X91740855Y-96222164D01*
X91733742Y-96245613D01*
X91731340Y-96270000D01*
X91733742Y-96294386D01*
X91740855Y-96317835D01*
X91752406Y-96339446D01*
X91767951Y-96358388D01*
X91786894Y-96373934D01*
X91808505Y-96385485D01*
X92028412Y-96476573D01*
X92224958Y-96607901D01*
X92392099Y-96775042D01*
X92523427Y-96971588D01*
X92613885Y-97189974D01*
X92660000Y-97421809D01*
X92660000Y-97658191D01*
X92613885Y-97890026D01*
X92523427Y-98108412D01*
X92392099Y-98304958D01*
X92224958Y-98472099D01*
X92028412Y-98603427D01*
X91808505Y-98694515D01*
X91786894Y-98706066D01*
X91767952Y-98721611D01*
X91752406Y-98740554D01*
X91740855Y-98762164D01*
X91733742Y-98785613D01*
X91731340Y-98810000D01*
X91733742Y-98834386D01*
X91740855Y-98857835D01*
X91752406Y-98879446D01*
X91767951Y-98898388D01*
X91786894Y-98913934D01*
X91808505Y-98925485D01*
X92028412Y-99016573D01*
X92224958Y-99147901D01*
X92392099Y-99315042D01*
X92523427Y-99511588D01*
X92613885Y-99729974D01*
X92660000Y-99961809D01*
X92660000Y-100198191D01*
X92613885Y-100430026D01*
X92523427Y-100648412D01*
X92392099Y-100844958D01*
X92224958Y-101012099D01*
X92028412Y-101143427D01*
X91810026Y-101233885D01*
X91578191Y-101280000D01*
X91341809Y-101280000D01*
X91109974Y-101233885D01*
X90891588Y-101143427D01*
X90695042Y-101012099D01*
X90527901Y-100844958D01*
X90396573Y-100648412D01*
X90306115Y-100430026D01*
X90260000Y-100198191D01*
X90260000Y-99961809D01*
X90306115Y-99729974D01*
X90396573Y-99511588D01*
X90527901Y-99315042D01*
X90695042Y-99147901D01*
X90891588Y-99016573D01*
X91111495Y-98925485D01*
X91133106Y-98913934D01*
X91152048Y-98898389D01*
X91167594Y-98879446D01*
X91179145Y-98857836D01*
X91186258Y-98834387D01*
X91188660Y-98810000D01*
X91186258Y-98785614D01*
X91179145Y-98762165D01*
X91167594Y-98740554D01*
X91152049Y-98721612D01*
X91133106Y-98706066D01*
X91111495Y-98694515D01*
X90891588Y-98603427D01*
X90695042Y-98472099D01*
X90527901Y-98304958D01*
X90396573Y-98108412D01*
X90306115Y-97890026D01*
X90260000Y-97658191D01*
X90260000Y-97421809D01*
X90306115Y-97189974D01*
X90396573Y-96971588D01*
X90527901Y-96775042D01*
X90695042Y-96607901D01*
X90891588Y-96476573D01*
X91111495Y-96385485D01*
X91133106Y-96373934D01*
X91152048Y-96358389D01*
X91167594Y-96339446D01*
X91179145Y-96317836D01*
X91186258Y-96294387D01*
X91188660Y-96270000D01*
X91186258Y-96245614D01*
X91179145Y-96222165D01*
X91167594Y-96200554D01*
X91152049Y-96181612D01*
X91133106Y-96166066D01*
X91111495Y-96154515D01*
X90891588Y-96063427D01*
X90695042Y-95932099D01*
X90527901Y-95764958D01*
X90396573Y-95568412D01*
X90306115Y-95350026D01*
X90260000Y-95118191D01*
X90260000Y-94881809D01*
X90306115Y-94649974D01*
X90396573Y-94431588D01*
X90527901Y-94235042D01*
X90695042Y-94067901D01*
X90891588Y-93936573D01*
X91109974Y-93846115D01*
X91341809Y-93800000D01*
X91578191Y-93800000D01*
X91810026Y-93846115D01*
X91810026Y-93846115D01*
G37*
G36*
X79810026Y-93846115D02*
X80028412Y-93936573D01*
X80224958Y-94067901D01*
X80392099Y-94235042D01*
X80523427Y-94431588D01*
X80613885Y-94649974D01*
X80660000Y-94881809D01*
X80660000Y-95118191D01*
X80613885Y-95350026D01*
X80523427Y-95568412D01*
X80392099Y-95764958D01*
X80224958Y-95932099D01*
X80028412Y-96063427D01*
X79808505Y-96154515D01*
X79786894Y-96166066D01*
X79767952Y-96181611D01*
X79752406Y-96200554D01*
X79740855Y-96222164D01*
X79733742Y-96245613D01*
X79731340Y-96270000D01*
X79733742Y-96294386D01*
X79740855Y-96317835D01*
X79752406Y-96339446D01*
X79767951Y-96358388D01*
X79786894Y-96373934D01*
X79808505Y-96385485D01*
X80028412Y-96476573D01*
X80224958Y-96607901D01*
X80392099Y-96775042D01*
X80523427Y-96971588D01*
X80613885Y-97189974D01*
X80660000Y-97421809D01*
X80660000Y-97658191D01*
X80613885Y-97890026D01*
X80523427Y-98108412D01*
X80392099Y-98304958D01*
X80224958Y-98472099D01*
X80028412Y-98603427D01*
X79808505Y-98694515D01*
X79786894Y-98706066D01*
X79767952Y-98721611D01*
X79752406Y-98740554D01*
X79740855Y-98762164D01*
X79733742Y-98785613D01*
X79731340Y-98810000D01*
X79733742Y-98834386D01*
X79740855Y-98857835D01*
X79752406Y-98879446D01*
X79767951Y-98898388D01*
X79786894Y-98913934D01*
X79808505Y-98925485D01*
X80028412Y-99016573D01*
X80224958Y-99147901D01*
X80392099Y-99315042D01*
X80523427Y-99511588D01*
X80613885Y-99729974D01*
X80660000Y-99961809D01*
X80660000Y-100198191D01*
X80613885Y-100430026D01*
X80523427Y-100648412D01*
X80392099Y-100844958D01*
X80224958Y-101012099D01*
X80028412Y-101143427D01*
X79810026Y-101233885D01*
X79578191Y-101280000D01*
X79341809Y-101280000D01*
X79109974Y-101233885D01*
X78891588Y-101143427D01*
X78695042Y-101012099D01*
X78527901Y-100844958D01*
X78396573Y-100648412D01*
X78306115Y-100430026D01*
X78260000Y-100198191D01*
X78260000Y-99961809D01*
X78306115Y-99729974D01*
X78396573Y-99511588D01*
X78527901Y-99315042D01*
X78695042Y-99147901D01*
X78891588Y-99016573D01*
X79111495Y-98925485D01*
X79133106Y-98913934D01*
X79152048Y-98898389D01*
X79167594Y-98879446D01*
X79179145Y-98857836D01*
X79186258Y-98834387D01*
X79188660Y-98810000D01*
X79186258Y-98785614D01*
X79179145Y-98762165D01*
X79167594Y-98740554D01*
X79152049Y-98721612D01*
X79133106Y-98706066D01*
X79111495Y-98694515D01*
X78891588Y-98603427D01*
X78695042Y-98472099D01*
X78527901Y-98304958D01*
X78396573Y-98108412D01*
X78306115Y-97890026D01*
X78260000Y-97658191D01*
X78260000Y-97421809D01*
X78306115Y-97189974D01*
X78396573Y-96971588D01*
X78527901Y-96775042D01*
X78695042Y-96607901D01*
X78891588Y-96476573D01*
X79111495Y-96385485D01*
X79133106Y-96373934D01*
X79152048Y-96358389D01*
X79167594Y-96339446D01*
X79179145Y-96317836D01*
X79186258Y-96294387D01*
X79188660Y-96270000D01*
X79186258Y-96245614D01*
X79179145Y-96222165D01*
X79167594Y-96200554D01*
X79152049Y-96181612D01*
X79133106Y-96166066D01*
X79111495Y-96154515D01*
X78891588Y-96063427D01*
X78695042Y-95932099D01*
X78527901Y-95764958D01*
X78396573Y-95568412D01*
X78306115Y-95350026D01*
X78260000Y-95118191D01*
X78260000Y-94881809D01*
X78306115Y-94649974D01*
X78396573Y-94431588D01*
X78527901Y-94235042D01*
X78695042Y-94067901D01*
X78891588Y-93936573D01*
X79109974Y-93846115D01*
X79341809Y-93800000D01*
X79578191Y-93800000D01*
X79810026Y-93846115D01*
X79810026Y-93846115D01*
G37*
G36*
X49450000Y-93575000D02*
X47550000Y-93575000D01*
X47550000Y-91925000D01*
X49450000Y-91925000D01*
X49450000Y-93575000D01*
X49450000Y-93575000D01*
G37*
G36*
X51950000Y-93575000D02*
X50050000Y-93575000D01*
X50050000Y-91925000D01*
X51950000Y-91925000D01*
X51950000Y-93575000D01*
X51950000Y-93575000D01*
G37*
G36*
X64310026Y-89266115D02*
X64528412Y-89356573D01*
X64724958Y-89487901D01*
X64892099Y-89655042D01*
X65023427Y-89851588D01*
X65113885Y-90069974D01*
X65160000Y-90301809D01*
X65160000Y-90538191D01*
X65113885Y-90770026D01*
X65023427Y-90988412D01*
X64892099Y-91184958D01*
X64724958Y-91352099D01*
X64584327Y-91446066D01*
X64565385Y-91461612D01*
X64549839Y-91480554D01*
X64538288Y-91502165D01*
X64531175Y-91525614D01*
X64528773Y-91550000D01*
X64531175Y-91574386D01*
X64538288Y-91597836D01*
X64549839Y-91619446D01*
X64565385Y-91638388D01*
X64584327Y-91653934D01*
X64605938Y-91665485D01*
X64629387Y-91672598D01*
X64653773Y-91675000D01*
X65200000Y-91675000D01*
X65200000Y-93325000D01*
X63300000Y-93325000D01*
X63300000Y-91669751D01*
X63314062Y-91665485D01*
X63335673Y-91653934D01*
X63354615Y-91638388D01*
X63370161Y-91619446D01*
X63381712Y-91597835D01*
X63388825Y-91574386D01*
X63391227Y-91550000D01*
X63388825Y-91525614D01*
X63381712Y-91502165D01*
X63370161Y-91480554D01*
X63354615Y-91461612D01*
X63335673Y-91446066D01*
X63195042Y-91352099D01*
X63027901Y-91184958D01*
X62896573Y-90988412D01*
X62806115Y-90770026D01*
X62760000Y-90538191D01*
X62760000Y-90301809D01*
X62806115Y-90069974D01*
X62896573Y-89851588D01*
X63027901Y-89655042D01*
X63195042Y-89487901D01*
X63391588Y-89356573D01*
X63609974Y-89266115D01*
X63841809Y-89220000D01*
X64078191Y-89220000D01*
X64310026Y-89266115D01*
X64310026Y-89266115D01*
G37*
G36*
X67700000Y-93325000D02*
X65800000Y-93325000D01*
X65800000Y-91675000D01*
X67700000Y-91675000D01*
X67700000Y-93325000D01*
X67700000Y-93325000D01*
G37*
G36*
X78200000Y-92825000D02*
X76300000Y-92825000D01*
X76300000Y-91175000D01*
X78200000Y-91175000D01*
X78200000Y-92825000D01*
X78200000Y-92825000D01*
G37*
G36*
X79810026Y-88766115D02*
X80028412Y-88856573D01*
X80224958Y-88987901D01*
X80392099Y-89155042D01*
X80523427Y-89351588D01*
X80613885Y-89569974D01*
X80660000Y-89801809D01*
X80660000Y-90038191D01*
X80613885Y-90270026D01*
X80523427Y-90488412D01*
X80392099Y-90684958D01*
X80224958Y-90852099D01*
X80084327Y-90946066D01*
X80065385Y-90961612D01*
X80049839Y-90980554D01*
X80038288Y-91002165D01*
X80031175Y-91025614D01*
X80028773Y-91050000D01*
X80031175Y-91074386D01*
X80038288Y-91097836D01*
X80049839Y-91119446D01*
X80065385Y-91138388D01*
X80084327Y-91153934D01*
X80105938Y-91165485D01*
X80129387Y-91172598D01*
X80153773Y-91175000D01*
X80700000Y-91175000D01*
X80700000Y-92825000D01*
X78800000Y-92825000D01*
X78800000Y-91169751D01*
X78814062Y-91165485D01*
X78835673Y-91153934D01*
X78854615Y-91138388D01*
X78870161Y-91119446D01*
X78881712Y-91097835D01*
X78888825Y-91074386D01*
X78891227Y-91050000D01*
X78888825Y-91025614D01*
X78881712Y-91002165D01*
X78870161Y-90980554D01*
X78854615Y-90961612D01*
X78835673Y-90946066D01*
X78695042Y-90852099D01*
X78527901Y-90684958D01*
X78396573Y-90488412D01*
X78306115Y-90270026D01*
X78260000Y-90038191D01*
X78260000Y-89801809D01*
X78306115Y-89569974D01*
X78396573Y-89351588D01*
X78527901Y-89155042D01*
X78695042Y-88987901D01*
X78891588Y-88856573D01*
X79109974Y-88766115D01*
X79341809Y-88720000D01*
X79578191Y-88720000D01*
X79810026Y-88766115D01*
X79810026Y-88766115D01*
G37*
G36*
X88700000Y-92325000D02*
X86800000Y-92325000D01*
X86800000Y-90675000D01*
X88700000Y-90675000D01*
X88700000Y-92325000D01*
X88700000Y-92325000D01*
G37*
G36*
X91810026Y-88766115D02*
X92028412Y-88856573D01*
X92224958Y-88987901D01*
X92392099Y-89155042D01*
X92523427Y-89351588D01*
X92613885Y-89569974D01*
X92660000Y-89801809D01*
X92660000Y-90038191D01*
X92613885Y-90270026D01*
X92523427Y-90488412D01*
X92392099Y-90684958D01*
X92224958Y-90852099D01*
X92028412Y-90983427D01*
X91810026Y-91073885D01*
X91578191Y-91120000D01*
X91334089Y-91120000D01*
X91325002Y-91119105D01*
X91300616Y-91121506D01*
X91277167Y-91128619D01*
X91255556Y-91140170D01*
X91236613Y-91155715D01*
X91221068Y-91174657D01*
X91209516Y-91196267D01*
X91202402Y-91219716D01*
X91200000Y-91244105D01*
X91200000Y-92325000D01*
X89300000Y-92325000D01*
X89300000Y-90675000D01*
X90287388Y-90675000D01*
X90311774Y-90672598D01*
X90335223Y-90665485D01*
X90356834Y-90653934D01*
X90375776Y-90638388D01*
X90391322Y-90619446D01*
X90402873Y-90597835D01*
X90409986Y-90574386D01*
X90412388Y-90550000D01*
X90409986Y-90525614D01*
X90402873Y-90502165D01*
X90400191Y-90497147D01*
X90306115Y-90270026D01*
X90260000Y-90038191D01*
X90260000Y-89801809D01*
X90306115Y-89569974D01*
X90396573Y-89351588D01*
X90527901Y-89155042D01*
X90695042Y-88987901D01*
X90891588Y-88856573D01*
X91109974Y-88766115D01*
X91341809Y-88720000D01*
X91578191Y-88720000D01*
X91810026Y-88766115D01*
X91810026Y-88766115D01*
G37*
G36*
X69390026Y-89266115D02*
X69608412Y-89356573D01*
X69804958Y-89487901D01*
X69972099Y-89655042D01*
X70103427Y-89851588D01*
X70193885Y-90069974D01*
X70240000Y-90301809D01*
X70240000Y-90538191D01*
X70193885Y-90770026D01*
X70103427Y-90988412D01*
X69972099Y-91184958D01*
X69804958Y-91352099D01*
X69608412Y-91483427D01*
X69390026Y-91573885D01*
X69158191Y-91620000D01*
X68921809Y-91620000D01*
X68689974Y-91573885D01*
X68471588Y-91483427D01*
X68275042Y-91352099D01*
X68107901Y-91184958D01*
X67976573Y-90988412D01*
X67886115Y-90770026D01*
X67840000Y-90538191D01*
X67840000Y-90301809D01*
X67886115Y-90069974D01*
X67976573Y-89851588D01*
X68107901Y-89655042D01*
X68275042Y-89487901D01*
X68471588Y-89356573D01*
X68689974Y-89266115D01*
X68921809Y-89220000D01*
X69158191Y-89220000D01*
X69390026Y-89266115D01*
X69390026Y-89266115D01*
G37*
G36*
X53390026Y-89266115D02*
X53608412Y-89356573D01*
X53804958Y-89487901D01*
X53972099Y-89655042D01*
X54103427Y-89851588D01*
X54193885Y-90069974D01*
X54240000Y-90301809D01*
X54240000Y-90538191D01*
X54193885Y-90770026D01*
X54103427Y-90988412D01*
X53972099Y-91184958D01*
X53804958Y-91352099D01*
X53608412Y-91483427D01*
X53390026Y-91573885D01*
X53158191Y-91620000D01*
X52921809Y-91620000D01*
X52689974Y-91573885D01*
X52471588Y-91483427D01*
X52275042Y-91352099D01*
X52107901Y-91184958D01*
X51976573Y-90988412D01*
X51886115Y-90770026D01*
X51840000Y-90538191D01*
X51840000Y-90301809D01*
X51886115Y-90069974D01*
X51976573Y-89851588D01*
X52107901Y-89655042D01*
X52275042Y-89487901D01*
X52471588Y-89356573D01*
X52689974Y-89266115D01*
X52921809Y-89220000D01*
X53158191Y-89220000D01*
X53390026Y-89266115D01*
X53390026Y-89266115D01*
G37*
G36*
X48310026Y-89266115D02*
X48528412Y-89356573D01*
X48724958Y-89487901D01*
X48892099Y-89655042D01*
X49023427Y-89851588D01*
X49113885Y-90069974D01*
X49160000Y-90301809D01*
X49160000Y-90538191D01*
X49113885Y-90770026D01*
X49023427Y-90988412D01*
X48892099Y-91184958D01*
X48724958Y-91352099D01*
X48528412Y-91483427D01*
X48310026Y-91573885D01*
X48078191Y-91620000D01*
X47841809Y-91620000D01*
X47609974Y-91573885D01*
X47391588Y-91483427D01*
X47195042Y-91352099D01*
X47027901Y-91184958D01*
X46896573Y-90988412D01*
X46806115Y-90770026D01*
X46760000Y-90538191D01*
X46760000Y-90301809D01*
X46806115Y-90069974D01*
X46896573Y-89851588D01*
X47027901Y-89655042D01*
X47195042Y-89487901D01*
X47391588Y-89356573D01*
X47609974Y-89266115D01*
X47841809Y-89220000D01*
X48078191Y-89220000D01*
X48310026Y-89266115D01*
X48310026Y-89266115D01*
G37*
G36*
X103810026Y-88766115D02*
X104028412Y-88856573D01*
X104224958Y-88987901D01*
X104392099Y-89155042D01*
X104523427Y-89351588D01*
X104613885Y-89569974D01*
X104660000Y-89801809D01*
X104660000Y-90038191D01*
X104613885Y-90270026D01*
X104523427Y-90488412D01*
X104392099Y-90684958D01*
X104224958Y-90852099D01*
X104028412Y-90983427D01*
X103810026Y-91073885D01*
X103578191Y-91120000D01*
X103341809Y-91120000D01*
X103109974Y-91073885D01*
X102891588Y-90983427D01*
X102695042Y-90852099D01*
X102527901Y-90684958D01*
X102396573Y-90488412D01*
X102306115Y-90270026D01*
X102260000Y-90038191D01*
X102260000Y-89801809D01*
X102306115Y-89569974D01*
X102396573Y-89351588D01*
X102527901Y-89155042D01*
X102695042Y-88987901D01*
X102891588Y-88856573D01*
X103109974Y-88766115D01*
X103341809Y-88720000D01*
X103578191Y-88720000D01*
X103810026Y-88766115D01*
X103810026Y-88766115D01*
G37*
G36*
X96890026Y-88766115D02*
X97108412Y-88856573D01*
X97304958Y-88987901D01*
X97472099Y-89155042D01*
X97603427Y-89351588D01*
X97693885Y-89569974D01*
X97740000Y-89801809D01*
X97740000Y-90038191D01*
X97693885Y-90270026D01*
X97603427Y-90488412D01*
X97472099Y-90684958D01*
X97304958Y-90852099D01*
X97108412Y-90983427D01*
X96890026Y-91073885D01*
X96658191Y-91120000D01*
X96421809Y-91120000D01*
X96189974Y-91073885D01*
X95971588Y-90983427D01*
X95775042Y-90852099D01*
X95607901Y-90684958D01*
X95476573Y-90488412D01*
X95386115Y-90270026D01*
X95340000Y-90038191D01*
X95340000Y-89801809D01*
X95386115Y-89569974D01*
X95476573Y-89351588D01*
X95607901Y-89155042D01*
X95775042Y-88987901D01*
X95971588Y-88856573D01*
X96189974Y-88766115D01*
X96421809Y-88720000D01*
X96658191Y-88720000D01*
X96890026Y-88766115D01*
X96890026Y-88766115D01*
G37*
G36*
X84890026Y-88766115D02*
X85108412Y-88856573D01*
X85304958Y-88987901D01*
X85472099Y-89155042D01*
X85603427Y-89351588D01*
X85693885Y-89569974D01*
X85740000Y-89801809D01*
X85740000Y-90038191D01*
X85693885Y-90270026D01*
X85603427Y-90488412D01*
X85472099Y-90684958D01*
X85304958Y-90852099D01*
X85108412Y-90983427D01*
X84890026Y-91073885D01*
X84658191Y-91120000D01*
X84421809Y-91120000D01*
X84189974Y-91073885D01*
X83971588Y-90983427D01*
X83775042Y-90852099D01*
X83607901Y-90684958D01*
X83476573Y-90488412D01*
X83386115Y-90270026D01*
X83340000Y-90038191D01*
X83340000Y-89801809D01*
X83386115Y-89569974D01*
X83476573Y-89351588D01*
X83607901Y-89155042D01*
X83775042Y-88987901D01*
X83971588Y-88856573D01*
X84189974Y-88766115D01*
X84421809Y-88720000D01*
X84658191Y-88720000D01*
X84890026Y-88766115D01*
X84890026Y-88766115D01*
G37*
G36*
X108890026Y-88766115D02*
X109108412Y-88856573D01*
X109304958Y-88987901D01*
X109472099Y-89155042D01*
X109603427Y-89351588D01*
X109693885Y-89569974D01*
X109740000Y-89801809D01*
X109740000Y-90038191D01*
X109693885Y-90270026D01*
X109603427Y-90488412D01*
X109472099Y-90684958D01*
X109304958Y-90852099D01*
X109108412Y-90983427D01*
X108890026Y-91073885D01*
X108658191Y-91120000D01*
X108421809Y-91120000D01*
X108189974Y-91073885D01*
X107971588Y-90983427D01*
X107775042Y-90852099D01*
X107607901Y-90684958D01*
X107476573Y-90488412D01*
X107386115Y-90270026D01*
X107340000Y-90038191D01*
X107340000Y-89801809D01*
X107386115Y-89569974D01*
X107476573Y-89351588D01*
X107607901Y-89155042D01*
X107775042Y-88987901D01*
X107971588Y-88856573D01*
X108189974Y-88766115D01*
X108421809Y-88720000D01*
X108658191Y-88720000D01*
X108890026Y-88766115D01*
X108890026Y-88766115D01*
G37*
G36*
X107200000Y-87825000D02*
X105300000Y-87825000D01*
X105300000Y-86175000D01*
X107200000Y-86175000D01*
X107200000Y-87825000D01*
X107200000Y-87825000D01*
G37*
G36*
X104700000Y-87825000D02*
X102800000Y-87825000D01*
X102800000Y-86175000D01*
X104700000Y-86175000D01*
X104700000Y-87825000D01*
X104700000Y-87825000D01*
G37*
G36*
X102962947Y-81145722D02*
X103226833Y-81255027D01*
X103464324Y-81413713D01*
X103666287Y-81615676D01*
X103824973Y-81853167D01*
X103934278Y-82117053D01*
X103990000Y-82397186D01*
X103990000Y-82682814D01*
X103934278Y-82962947D01*
X103824973Y-83226833D01*
X103666287Y-83464324D01*
X103464324Y-83666287D01*
X103226833Y-83824973D01*
X102962947Y-83934278D01*
X102682814Y-83990000D01*
X102397186Y-83990000D01*
X102117053Y-83934278D01*
X101853167Y-83824973D01*
X101615676Y-83666287D01*
X101413713Y-83464324D01*
X101255027Y-83226833D01*
X101145722Y-82962947D01*
X101090000Y-82682814D01*
X101090000Y-82397186D01*
X101145722Y-82117053D01*
X101255027Y-81853167D01*
X101413713Y-81615676D01*
X101615676Y-81413713D01*
X101853167Y-81255027D01*
X102117053Y-81145722D01*
X102397186Y-81090000D01*
X102682814Y-81090000D01*
X102962947Y-81145722D01*
X102962947Y-81145722D01*
G37*
G36*
X89462947Y-81145722D02*
X89726833Y-81255027D01*
X89964324Y-81413713D01*
X90166287Y-81615676D01*
X90324973Y-81853167D01*
X90434278Y-82117053D01*
X90490000Y-82397186D01*
X90490000Y-82682814D01*
X90434278Y-82962947D01*
X90324973Y-83226833D01*
X90166287Y-83464324D01*
X89964324Y-83666287D01*
X89726833Y-83824973D01*
X89462947Y-83934278D01*
X89182814Y-83990000D01*
X88897186Y-83990000D01*
X88617053Y-83934278D01*
X88353167Y-83824973D01*
X88115676Y-83666287D01*
X87913713Y-83464324D01*
X87755027Y-83226833D01*
X87645722Y-82962947D01*
X87590000Y-82682814D01*
X87590000Y-82397186D01*
X87645722Y-82117053D01*
X87755027Y-81853167D01*
X87913713Y-81615676D01*
X88115676Y-81413713D01*
X88353167Y-81255027D01*
X88617053Y-81145722D01*
X88897186Y-81090000D01*
X89182814Y-81090000D01*
X89462947Y-81145722D01*
X89462947Y-81145722D01*
G37*
G36*
X84382947Y-81145722D02*
X84646833Y-81255027D01*
X84884324Y-81413713D01*
X85086287Y-81615676D01*
X85244973Y-81853167D01*
X85354278Y-82117053D01*
X85410000Y-82397186D01*
X85410000Y-82682814D01*
X85354278Y-82962947D01*
X85244973Y-83226833D01*
X85086287Y-83464324D01*
X84884324Y-83666287D01*
X84646833Y-83824973D01*
X84382947Y-83934278D01*
X84102814Y-83990000D01*
X83817186Y-83990000D01*
X83537053Y-83934278D01*
X83273167Y-83824973D01*
X83035676Y-83666287D01*
X82833713Y-83464324D01*
X82675027Y-83226833D01*
X82565722Y-82962947D01*
X82510000Y-82682814D01*
X82510000Y-82397186D01*
X82565722Y-82117053D01*
X82675027Y-81853167D01*
X82833713Y-81615676D01*
X83035676Y-81413713D01*
X83273167Y-81255027D01*
X83537053Y-81145722D01*
X83817186Y-81090000D01*
X84102814Y-81090000D01*
X84382947Y-81145722D01*
X84382947Y-81145722D01*
G37*
G36*
X52962947Y-81145722D02*
X53226833Y-81255027D01*
X53464324Y-81413713D01*
X53666287Y-81615676D01*
X53824973Y-81853167D01*
X53934278Y-82117053D01*
X53990000Y-82397186D01*
X53990000Y-82682814D01*
X53934278Y-82962947D01*
X53824973Y-83226833D01*
X53666287Y-83464324D01*
X53464324Y-83666287D01*
X53226833Y-83824973D01*
X52962947Y-83934278D01*
X52682814Y-83990000D01*
X52397186Y-83990000D01*
X52117053Y-83934278D01*
X51853167Y-83824973D01*
X51615676Y-83666287D01*
X51413713Y-83464324D01*
X51255027Y-83226833D01*
X51145722Y-82962947D01*
X51090000Y-82682814D01*
X51090000Y-82397186D01*
X51145722Y-82117053D01*
X51255027Y-81853167D01*
X51413713Y-81615676D01*
X51615676Y-81413713D01*
X51853167Y-81255027D01*
X52117053Y-81145722D01*
X52397186Y-81090000D01*
X52682814Y-81090000D01*
X52962947Y-81145722D01*
X52962947Y-81145722D01*
G37*
G36*
X47882947Y-81145722D02*
X48146833Y-81255027D01*
X48384324Y-81413713D01*
X48586287Y-81615676D01*
X48744973Y-81853167D01*
X48854278Y-82117053D01*
X48910000Y-82397186D01*
X48910000Y-82682814D01*
X48854278Y-82962947D01*
X48744973Y-83226833D01*
X48586287Y-83464324D01*
X48384324Y-83666287D01*
X48146833Y-83824973D01*
X47882947Y-83934278D01*
X47602814Y-83990000D01*
X47317186Y-83990000D01*
X47037053Y-83934278D01*
X46773167Y-83824973D01*
X46535676Y-83666287D01*
X46333713Y-83464324D01*
X46175027Y-83226833D01*
X46065722Y-82962947D01*
X46010000Y-82682814D01*
X46010000Y-82397186D01*
X46065722Y-82117053D01*
X46175027Y-81853167D01*
X46333713Y-81615676D01*
X46535676Y-81413713D01*
X46773167Y-81255027D01*
X47037053Y-81145722D01*
X47317186Y-81090000D01*
X47602814Y-81090000D01*
X47882947Y-81145722D01*
X47882947Y-81145722D01*
G37*
G36*
X97882947Y-81145722D02*
X98146833Y-81255027D01*
X98384324Y-81413713D01*
X98586287Y-81615676D01*
X98744973Y-81853167D01*
X98854278Y-82117053D01*
X98910000Y-82397186D01*
X98910000Y-82682814D01*
X98854278Y-82962947D01*
X98744973Y-83226833D01*
X98586287Y-83464324D01*
X98384324Y-83666287D01*
X98146833Y-83824973D01*
X97882947Y-83934278D01*
X97602814Y-83990000D01*
X97317186Y-83990000D01*
X97037053Y-83934278D01*
X96773167Y-83824973D01*
X96535676Y-83666287D01*
X96333713Y-83464324D01*
X96175027Y-83226833D01*
X96065722Y-82962947D01*
X96010000Y-82682814D01*
X96010000Y-82397186D01*
X96065722Y-82117053D01*
X96175027Y-81853167D01*
X96333713Y-81615676D01*
X96535676Y-81413713D01*
X96773167Y-81255027D01*
X97037053Y-81145722D01*
X97317186Y-81090000D01*
X97602814Y-81090000D01*
X97882947Y-81145722D01*
X97882947Y-81145722D01*
G37*
G36*
X70382947Y-81145722D02*
X70646833Y-81255027D01*
X70884324Y-81413713D01*
X71086287Y-81615676D01*
X71244973Y-81853167D01*
X71354278Y-82117053D01*
X71410000Y-82397186D01*
X71410000Y-82682814D01*
X71354278Y-82962947D01*
X71244973Y-83226833D01*
X71086287Y-83464324D01*
X70884324Y-83666287D01*
X70646833Y-83824973D01*
X70382947Y-83934278D01*
X70102814Y-83990000D01*
X69817186Y-83990000D01*
X69537053Y-83934278D01*
X69273167Y-83824973D01*
X69035676Y-83666287D01*
X68833713Y-83464324D01*
X68675027Y-83226833D01*
X68565722Y-82962947D01*
X68510000Y-82682814D01*
X68510000Y-82397186D01*
X68565722Y-82117053D01*
X68675027Y-81853167D01*
X68833713Y-81615676D01*
X69035676Y-81413713D01*
X69273167Y-81255027D01*
X69537053Y-81145722D01*
X69817186Y-81090000D01*
X70102814Y-81090000D01*
X70382947Y-81145722D01*
X70382947Y-81145722D01*
G37*
G36*
X75462947Y-81145722D02*
X75726833Y-81255027D01*
X75964324Y-81413713D01*
X76166287Y-81615676D01*
X76324973Y-81853167D01*
X76434278Y-82117053D01*
X76490000Y-82397186D01*
X76490000Y-82682814D01*
X76434278Y-82962947D01*
X76324973Y-83226833D01*
X76166287Y-83464324D01*
X75964324Y-83666287D01*
X75726833Y-83824973D01*
X75462947Y-83934278D01*
X75182814Y-83990000D01*
X74897186Y-83990000D01*
X74617053Y-83934278D01*
X74353167Y-83824973D01*
X74115676Y-83666287D01*
X73913713Y-83464324D01*
X73755027Y-83226833D01*
X73645722Y-82962947D01*
X73590000Y-82682814D01*
X73590000Y-82397186D01*
X73645722Y-82117053D01*
X73755027Y-81853167D01*
X73913713Y-81615676D01*
X74115676Y-81413713D01*
X74353167Y-81255027D01*
X74617053Y-81145722D01*
X74897186Y-81090000D01*
X75182814Y-81090000D01*
X75462947Y-81145722D01*
X75462947Y-81145722D01*
G37*
G36*
X116079249Y-76442188D02*
X116473693Y-76605572D01*
X116752607Y-76721102D01*
X117225458Y-77037051D01*
X117358616Y-77126024D01*
X117873976Y-77641384D01*
X117873978Y-77641387D01*
X118278898Y-78247393D01*
X118394428Y-78526307D01*
X118557812Y-78920751D01*
X118700000Y-79635580D01*
X118700000Y-80364420D01*
X118557812Y-81079249D01*
X118467152Y-81298121D01*
X118278898Y-81752607D01*
X118035384Y-82117051D01*
X117873976Y-82358616D01*
X117358616Y-82873976D01*
X117358613Y-82873978D01*
X116752607Y-83278898D01*
X116473693Y-83394428D01*
X116079249Y-83557812D01*
X115364420Y-83700000D01*
X114635580Y-83700000D01*
X113920751Y-83557812D01*
X113526307Y-83394428D01*
X113247393Y-83278898D01*
X112641387Y-82873978D01*
X112641384Y-82873976D01*
X112126024Y-82358616D01*
X111964616Y-82117051D01*
X111721102Y-81752607D01*
X111532848Y-81298121D01*
X111442188Y-81079249D01*
X111300000Y-80364420D01*
X111300000Y-79635580D01*
X111442188Y-78920751D01*
X111605572Y-78526307D01*
X111721102Y-78247393D01*
X112126022Y-77641387D01*
X112126024Y-77641384D01*
X112641384Y-77126024D01*
X112774542Y-77037051D01*
X113247393Y-76721102D01*
X113526307Y-76605572D01*
X113920751Y-76442188D01*
X114635580Y-76300000D01*
X115364420Y-76300000D01*
X116079249Y-76442188D01*
X116079249Y-76442188D01*
G37*
G36*
X26079249Y-76442188D02*
X26473693Y-76605572D01*
X26752607Y-76721102D01*
X27225458Y-77037051D01*
X27358616Y-77126024D01*
X27873976Y-77641384D01*
X27873978Y-77641387D01*
X28278898Y-78247393D01*
X28394428Y-78526307D01*
X28557812Y-78920751D01*
X28700000Y-79635580D01*
X28700000Y-80364420D01*
X28557812Y-81079249D01*
X28467152Y-81298121D01*
X28278898Y-81752607D01*
X28035384Y-82117051D01*
X27873976Y-82358616D01*
X27358616Y-82873976D01*
X27358613Y-82873978D01*
X26752607Y-83278898D01*
X26473693Y-83394428D01*
X26079249Y-83557812D01*
X25364420Y-83700000D01*
X24635580Y-83700000D01*
X23920751Y-83557812D01*
X23526307Y-83394428D01*
X23247393Y-83278898D01*
X22641387Y-82873978D01*
X22641384Y-82873976D01*
X22126024Y-82358616D01*
X21964616Y-82117051D01*
X21721102Y-81752607D01*
X21532848Y-81298121D01*
X21442188Y-81079249D01*
X21300000Y-80364420D01*
X21300000Y-79635580D01*
X21442188Y-78920751D01*
X21605572Y-78526307D01*
X21721102Y-78247393D01*
X22126022Y-77641387D01*
X22126024Y-77641384D01*
X22641384Y-77126024D01*
X22774542Y-77037051D01*
X23247393Y-76721102D01*
X23526307Y-76605572D01*
X23920751Y-76442188D01*
X24635580Y-76300000D01*
X25364420Y-76300000D01*
X26079249Y-76442188D01*
X26079249Y-76442188D01*
G37*
G36*
X100393778Y-78701879D02*
X100639466Y-78803646D01*
X100860578Y-78951389D01*
X101048611Y-79139422D01*
X101196354Y-79360534D01*
X101298121Y-79606222D01*
X101350000Y-79867035D01*
X101350000Y-80132965D01*
X101298121Y-80393778D01*
X101196354Y-80639466D01*
X101048611Y-80860578D01*
X100860578Y-81048611D01*
X100639466Y-81196354D01*
X100393778Y-81298121D01*
X100132965Y-81350000D01*
X99867035Y-81350000D01*
X99606222Y-81298121D01*
X99360534Y-81196354D01*
X99139422Y-81048611D01*
X98951389Y-80860578D01*
X98803646Y-80639466D01*
X98701879Y-80393778D01*
X98650000Y-80132965D01*
X98650000Y-79867035D01*
X98701879Y-79606222D01*
X98803646Y-79360534D01*
X98951389Y-79139422D01*
X99139422Y-78951389D01*
X99360534Y-78803646D01*
X99606222Y-78701879D01*
X99867035Y-78650000D01*
X100132965Y-78650000D01*
X100393778Y-78701879D01*
X100393778Y-78701879D01*
G37*
G36*
X86893778Y-78701879D02*
X87139466Y-78803646D01*
X87360578Y-78951389D01*
X87548611Y-79139422D01*
X87696354Y-79360534D01*
X87798121Y-79606222D01*
X87850000Y-79867035D01*
X87850000Y-80132965D01*
X87798121Y-80393778D01*
X87696354Y-80639466D01*
X87548611Y-80860578D01*
X87360578Y-81048611D01*
X87139466Y-81196354D01*
X86893778Y-81298121D01*
X86632965Y-81350000D01*
X86367035Y-81350000D01*
X86106222Y-81298121D01*
X85860534Y-81196354D01*
X85639422Y-81048611D01*
X85451389Y-80860578D01*
X85303646Y-80639466D01*
X85201879Y-80393778D01*
X85150000Y-80132965D01*
X85150000Y-79867035D01*
X85201879Y-79606222D01*
X85303646Y-79360534D01*
X85451389Y-79139422D01*
X85639422Y-78951389D01*
X85860534Y-78803646D01*
X86106222Y-78701879D01*
X86367035Y-78650000D01*
X86632965Y-78650000D01*
X86893778Y-78701879D01*
X86893778Y-78701879D01*
G37*
G36*
X50393778Y-78701879D02*
X50639466Y-78803646D01*
X50860578Y-78951389D01*
X51048611Y-79139422D01*
X51196354Y-79360534D01*
X51298121Y-79606222D01*
X51350000Y-79867035D01*
X51350000Y-80132965D01*
X51298121Y-80393778D01*
X51196354Y-80639466D01*
X51048611Y-80860578D01*
X50860578Y-81048611D01*
X50639466Y-81196354D01*
X50393778Y-81298121D01*
X50132965Y-81350000D01*
X49867035Y-81350000D01*
X49606222Y-81298121D01*
X49360534Y-81196354D01*
X49139422Y-81048611D01*
X48951389Y-80860578D01*
X48803646Y-80639466D01*
X48701879Y-80393778D01*
X48650000Y-80132965D01*
X48650000Y-79867035D01*
X48701879Y-79606222D01*
X48803646Y-79360534D01*
X48951389Y-79139422D01*
X49139422Y-78951389D01*
X49360534Y-78803646D01*
X49606222Y-78701879D01*
X49867035Y-78650000D01*
X50132965Y-78650000D01*
X50393778Y-78701879D01*
X50393778Y-78701879D01*
G37*
G36*
X72893778Y-78701879D02*
X73139466Y-78803646D01*
X73360578Y-78951389D01*
X73548611Y-79139422D01*
X73696354Y-79360534D01*
X73798121Y-79606222D01*
X73850000Y-79867035D01*
X73850000Y-80132965D01*
X73798121Y-80393778D01*
X73696354Y-80639466D01*
X73548611Y-80860578D01*
X73360578Y-81048611D01*
X73139466Y-81196354D01*
X72893778Y-81298121D01*
X72632965Y-81350000D01*
X72367035Y-81350000D01*
X72106222Y-81298121D01*
X71860534Y-81196354D01*
X71639422Y-81048611D01*
X71451389Y-80860578D01*
X71303646Y-80639466D01*
X71201879Y-80393778D01*
X71150000Y-80132965D01*
X71150000Y-79867035D01*
X71201879Y-79606222D01*
X71303646Y-79360534D01*
X71451389Y-79139422D01*
X71639422Y-78951389D01*
X71860534Y-78803646D01*
X72106222Y-78701879D01*
X72367035Y-78650000D01*
X72632965Y-78650000D01*
X72893778Y-78701879D01*
X72893778Y-78701879D01*
G37*
G36*
X97882947Y-76065722D02*
X98146833Y-76175027D01*
X98384324Y-76333713D01*
X98586287Y-76535676D01*
X98744973Y-76773167D01*
X98854278Y-77037053D01*
X98910000Y-77317186D01*
X98910000Y-77602814D01*
X98854278Y-77882947D01*
X98744973Y-78146833D01*
X98586287Y-78384324D01*
X98384324Y-78586287D01*
X98146833Y-78744973D01*
X97882947Y-78854278D01*
X97602814Y-78910000D01*
X97317186Y-78910000D01*
X97037053Y-78854278D01*
X96773167Y-78744973D01*
X96535676Y-78586287D01*
X96333713Y-78384324D01*
X96175027Y-78146833D01*
X96065722Y-77882947D01*
X96010000Y-77602814D01*
X96010000Y-77317186D01*
X96065722Y-77037053D01*
X96175027Y-76773167D01*
X96333713Y-76535676D01*
X96535676Y-76333713D01*
X96773167Y-76175027D01*
X97037053Y-76065722D01*
X97317186Y-76010000D01*
X97602814Y-76010000D01*
X97882947Y-76065722D01*
X97882947Y-76065722D01*
G37*
G36*
X89462947Y-76065722D02*
X89726833Y-76175027D01*
X89964324Y-76333713D01*
X90166287Y-76535676D01*
X90324973Y-76773167D01*
X90434278Y-77037053D01*
X90490000Y-77317186D01*
X90490000Y-77602814D01*
X90434278Y-77882947D01*
X90324973Y-78146833D01*
X90166287Y-78384324D01*
X89964324Y-78586287D01*
X89726833Y-78744973D01*
X89462947Y-78854278D01*
X89182814Y-78910000D01*
X88897186Y-78910000D01*
X88617053Y-78854278D01*
X88353167Y-78744973D01*
X88115676Y-78586287D01*
X87913713Y-78384324D01*
X87755027Y-78146833D01*
X87645722Y-77882947D01*
X87590000Y-77602814D01*
X87590000Y-77317186D01*
X87645722Y-77037053D01*
X87755027Y-76773167D01*
X87913713Y-76535676D01*
X88115676Y-76333713D01*
X88353167Y-76175027D01*
X88617053Y-76065722D01*
X88897186Y-76010000D01*
X89182814Y-76010000D01*
X89462947Y-76065722D01*
X89462947Y-76065722D01*
G37*
G36*
X84382947Y-76065722D02*
X84646833Y-76175027D01*
X84884324Y-76333713D01*
X85086287Y-76535676D01*
X85244973Y-76773167D01*
X85354278Y-77037053D01*
X85410000Y-77317186D01*
X85410000Y-77602814D01*
X85354278Y-77882947D01*
X85244973Y-78146833D01*
X85086287Y-78384324D01*
X84884324Y-78586287D01*
X84646833Y-78744973D01*
X84382947Y-78854278D01*
X84102814Y-78910000D01*
X83817186Y-78910000D01*
X83537053Y-78854278D01*
X83273167Y-78744973D01*
X83035676Y-78586287D01*
X82833713Y-78384324D01*
X82675027Y-78146833D01*
X82565722Y-77882947D01*
X82510000Y-77602814D01*
X82510000Y-77317186D01*
X82565722Y-77037053D01*
X82675027Y-76773167D01*
X82833713Y-76535676D01*
X83035676Y-76333713D01*
X83273167Y-76175027D01*
X83537053Y-76065722D01*
X83817186Y-76010000D01*
X84102814Y-76010000D01*
X84382947Y-76065722D01*
X84382947Y-76065722D01*
G37*
G36*
X75462947Y-76065722D02*
X75726833Y-76175027D01*
X75964324Y-76333713D01*
X76166287Y-76535676D01*
X76324973Y-76773167D01*
X76434278Y-77037053D01*
X76490000Y-77317186D01*
X76490000Y-77602814D01*
X76434278Y-77882947D01*
X76324973Y-78146833D01*
X76166287Y-78384324D01*
X75964324Y-78586287D01*
X75726833Y-78744973D01*
X75462947Y-78854278D01*
X75182814Y-78910000D01*
X74897186Y-78910000D01*
X74617053Y-78854278D01*
X74353167Y-78744973D01*
X74115676Y-78586287D01*
X73913713Y-78384324D01*
X73755027Y-78146833D01*
X73645722Y-77882947D01*
X73590000Y-77602814D01*
X73590000Y-77317186D01*
X73645722Y-77037053D01*
X73755027Y-76773167D01*
X73913713Y-76535676D01*
X74115676Y-76333713D01*
X74353167Y-76175027D01*
X74617053Y-76065722D01*
X74897186Y-76010000D01*
X75182814Y-76010000D01*
X75462947Y-76065722D01*
X75462947Y-76065722D01*
G37*
G36*
X70382947Y-76065722D02*
X70646833Y-76175027D01*
X70884324Y-76333713D01*
X71086287Y-76535676D01*
X71244973Y-76773167D01*
X71354278Y-77037053D01*
X71410000Y-77317186D01*
X71410000Y-77602814D01*
X71354278Y-77882947D01*
X71244973Y-78146833D01*
X71086287Y-78384324D01*
X70884324Y-78586287D01*
X70646833Y-78744973D01*
X70382947Y-78854278D01*
X70102814Y-78910000D01*
X69817186Y-78910000D01*
X69537053Y-78854278D01*
X69273167Y-78744973D01*
X69035676Y-78586287D01*
X68833713Y-78384324D01*
X68675027Y-78146833D01*
X68565722Y-77882947D01*
X68510000Y-77602814D01*
X68510000Y-77317186D01*
X68565722Y-77037053D01*
X68675027Y-76773167D01*
X68833713Y-76535676D01*
X69035676Y-76333713D01*
X69273167Y-76175027D01*
X69537053Y-76065722D01*
X69817186Y-76010000D01*
X70102814Y-76010000D01*
X70382947Y-76065722D01*
X70382947Y-76065722D01*
G37*
G36*
X52962947Y-76065722D02*
X53226833Y-76175027D01*
X53464324Y-76333713D01*
X53666287Y-76535676D01*
X53824973Y-76773167D01*
X53934278Y-77037053D01*
X53990000Y-77317186D01*
X53990000Y-77602814D01*
X53934278Y-77882947D01*
X53824973Y-78146833D01*
X53666287Y-78384324D01*
X53464324Y-78586287D01*
X53226833Y-78744973D01*
X52962947Y-78854278D01*
X52682814Y-78910000D01*
X52397186Y-78910000D01*
X52117053Y-78854278D01*
X51853167Y-78744973D01*
X51615676Y-78586287D01*
X51413713Y-78384324D01*
X51255027Y-78146833D01*
X51145722Y-77882947D01*
X51090000Y-77602814D01*
X51090000Y-77317186D01*
X51145722Y-77037053D01*
X51255027Y-76773167D01*
X51413713Y-76535676D01*
X51615676Y-76333713D01*
X51853167Y-76175027D01*
X52117053Y-76065722D01*
X52397186Y-76010000D01*
X52682814Y-76010000D01*
X52962947Y-76065722D01*
X52962947Y-76065722D01*
G37*
G36*
X47882947Y-76065722D02*
X48146833Y-76175027D01*
X48384324Y-76333713D01*
X48586287Y-76535676D01*
X48744973Y-76773167D01*
X48854278Y-77037053D01*
X48910000Y-77317186D01*
X48910000Y-77602814D01*
X48854278Y-77882947D01*
X48744973Y-78146833D01*
X48586287Y-78384324D01*
X48384324Y-78586287D01*
X48146833Y-78744973D01*
X47882947Y-78854278D01*
X47602814Y-78910000D01*
X47317186Y-78910000D01*
X47037053Y-78854278D01*
X46773167Y-78744973D01*
X46535676Y-78586287D01*
X46333713Y-78384324D01*
X46175027Y-78146833D01*
X46065722Y-77882947D01*
X46010000Y-77602814D01*
X46010000Y-77317186D01*
X46065722Y-77037053D01*
X46175027Y-76773167D01*
X46333713Y-76535676D01*
X46535676Y-76333713D01*
X46773167Y-76175027D01*
X47037053Y-76065722D01*
X47317186Y-76010000D01*
X47602814Y-76010000D01*
X47882947Y-76065722D01*
X47882947Y-76065722D01*
G37*
G36*
X102962947Y-76065722D02*
X103226833Y-76175027D01*
X103464324Y-76333713D01*
X103666287Y-76535676D01*
X103824973Y-76773167D01*
X103934278Y-77037053D01*
X103990000Y-77317186D01*
X103990000Y-77602814D01*
X103934278Y-77882947D01*
X103824973Y-78146833D01*
X103666287Y-78384324D01*
X103464324Y-78586287D01*
X103226833Y-78744973D01*
X102962947Y-78854278D01*
X102682814Y-78910000D01*
X102397186Y-78910000D01*
X102117053Y-78854278D01*
X101853167Y-78744973D01*
X101615676Y-78586287D01*
X101413713Y-78384324D01*
X101255027Y-78146833D01*
X101145722Y-77882947D01*
X101090000Y-77602814D01*
X101090000Y-77317186D01*
X101145722Y-77037053D01*
X101255027Y-76773167D01*
X101413713Y-76535676D01*
X101615676Y-76333713D01*
X101853167Y-76175027D01*
X102117053Y-76065722D01*
X102397186Y-76010000D01*
X102682814Y-76010000D01*
X102962947Y-76065722D01*
X102962947Y-76065722D01*
G37*
G36*
X37882947Y-71145722D02*
X38146833Y-71255027D01*
X38384324Y-71413713D01*
X38586287Y-71615676D01*
X38744973Y-71853167D01*
X38854278Y-72117053D01*
X38910000Y-72397186D01*
X38910000Y-72682814D01*
X38854278Y-72962947D01*
X38744973Y-73226833D01*
X38586287Y-73464324D01*
X38384324Y-73666287D01*
X38146833Y-73824973D01*
X37882947Y-73934278D01*
X37602814Y-73990000D01*
X37317186Y-73990000D01*
X37037053Y-73934278D01*
X36773167Y-73824973D01*
X36535676Y-73666287D01*
X36333713Y-73464324D01*
X36175027Y-73226833D01*
X36065722Y-72962947D01*
X36010000Y-72682814D01*
X36010000Y-72397186D01*
X36065722Y-72117053D01*
X36175027Y-71853167D01*
X36333713Y-71615676D01*
X36535676Y-71413713D01*
X36773167Y-71255027D01*
X37037053Y-71145722D01*
X37317186Y-71090000D01*
X37602814Y-71090000D01*
X37882947Y-71145722D01*
X37882947Y-71145722D01*
G37*
G36*
X72962947Y-71145722D02*
X73226833Y-71255027D01*
X73464324Y-71413713D01*
X73666287Y-71615676D01*
X73824973Y-71853167D01*
X73934278Y-72117053D01*
X73990000Y-72397186D01*
X73990000Y-72682814D01*
X73934278Y-72962947D01*
X73824973Y-73226833D01*
X73666287Y-73464324D01*
X73464324Y-73666287D01*
X73226833Y-73824973D01*
X72962947Y-73934278D01*
X72682814Y-73990000D01*
X72397186Y-73990000D01*
X72117053Y-73934278D01*
X71853167Y-73824973D01*
X71615676Y-73666287D01*
X71413713Y-73464324D01*
X71255027Y-73226833D01*
X71145722Y-72962947D01*
X71090000Y-72682814D01*
X71090000Y-72397186D01*
X71145722Y-72117053D01*
X71255027Y-71853167D01*
X71413713Y-71615676D01*
X71615676Y-71413713D01*
X71853167Y-71255027D01*
X72117053Y-71145722D01*
X72397186Y-71090000D01*
X72682814Y-71090000D01*
X72962947Y-71145722D01*
X72962947Y-71145722D01*
G37*
G36*
X67882947Y-71145722D02*
X68146833Y-71255027D01*
X68384324Y-71413713D01*
X68586287Y-71615676D01*
X68744973Y-71853167D01*
X68854278Y-72117053D01*
X68910000Y-72397186D01*
X68910000Y-72682814D01*
X68854278Y-72962947D01*
X68744973Y-73226833D01*
X68586287Y-73464324D01*
X68384324Y-73666287D01*
X68146833Y-73824973D01*
X67882947Y-73934278D01*
X67602814Y-73990000D01*
X67317186Y-73990000D01*
X67037053Y-73934278D01*
X66773167Y-73824973D01*
X66535676Y-73666287D01*
X66333713Y-73464324D01*
X66175027Y-73226833D01*
X66065722Y-72962947D01*
X66010000Y-72682814D01*
X66010000Y-72397186D01*
X66065722Y-72117053D01*
X66175027Y-71853167D01*
X66333713Y-71615676D01*
X66535676Y-71413713D01*
X66773167Y-71255027D01*
X67037053Y-71145722D01*
X67317186Y-71090000D01*
X67602814Y-71090000D01*
X67882947Y-71145722D01*
X67882947Y-71145722D01*
G37*
G36*
X102962947Y-71145722D02*
X103226833Y-71255027D01*
X103464324Y-71413713D01*
X103666287Y-71615676D01*
X103824973Y-71853167D01*
X103934278Y-72117053D01*
X103990000Y-72397186D01*
X103990000Y-72682814D01*
X103934278Y-72962947D01*
X103824973Y-73226833D01*
X103666287Y-73464324D01*
X103464324Y-73666287D01*
X103226833Y-73824973D01*
X102962947Y-73934278D01*
X102682814Y-73990000D01*
X102397186Y-73990000D01*
X102117053Y-73934278D01*
X101853167Y-73824973D01*
X101615676Y-73666287D01*
X101413713Y-73464324D01*
X101255027Y-73226833D01*
X101145722Y-72962947D01*
X101090000Y-72682814D01*
X101090000Y-72397186D01*
X101145722Y-72117053D01*
X101255027Y-71853167D01*
X101413713Y-71615676D01*
X101615676Y-71413713D01*
X101853167Y-71255027D01*
X102117053Y-71145722D01*
X102397186Y-71090000D01*
X102682814Y-71090000D01*
X102962947Y-71145722D01*
X102962947Y-71145722D01*
G37*
G36*
X97882947Y-71145722D02*
X98146833Y-71255027D01*
X98384324Y-71413713D01*
X98586287Y-71615676D01*
X98744973Y-71853167D01*
X98854278Y-72117053D01*
X98910000Y-72397186D01*
X98910000Y-72682814D01*
X98854278Y-72962947D01*
X98744973Y-73226833D01*
X98586287Y-73464324D01*
X98384324Y-73666287D01*
X98146833Y-73824973D01*
X97882947Y-73934278D01*
X97602814Y-73990000D01*
X97317186Y-73990000D01*
X97037053Y-73934278D01*
X96773167Y-73824973D01*
X96535676Y-73666287D01*
X96333713Y-73464324D01*
X96175027Y-73226833D01*
X96065722Y-72962947D01*
X96010000Y-72682814D01*
X96010000Y-72397186D01*
X96065722Y-72117053D01*
X96175027Y-71853167D01*
X96333713Y-71615676D01*
X96535676Y-71413713D01*
X96773167Y-71255027D01*
X97037053Y-71145722D01*
X97317186Y-71090000D01*
X97602814Y-71090000D01*
X97882947Y-71145722D01*
X97882947Y-71145722D01*
G37*
G36*
X42962947Y-71145722D02*
X43226833Y-71255027D01*
X43464324Y-71413713D01*
X43666287Y-71615676D01*
X43824973Y-71853167D01*
X43934278Y-72117053D01*
X43990000Y-72397186D01*
X43990000Y-72682814D01*
X43934278Y-72962947D01*
X43824973Y-73226833D01*
X43666287Y-73464324D01*
X43464324Y-73666287D01*
X43226833Y-73824973D01*
X42962947Y-73934278D01*
X42682814Y-73990000D01*
X42397186Y-73990000D01*
X42117053Y-73934278D01*
X41853167Y-73824973D01*
X41615676Y-73666287D01*
X41413713Y-73464324D01*
X41255027Y-73226833D01*
X41145722Y-72962947D01*
X41090000Y-72682814D01*
X41090000Y-72397186D01*
X41145722Y-72117053D01*
X41255027Y-71853167D01*
X41413713Y-71615676D01*
X41615676Y-71413713D01*
X41853167Y-71255027D01*
X42117053Y-71145722D01*
X42397186Y-71090000D01*
X42682814Y-71090000D01*
X42962947Y-71145722D01*
X42962947Y-71145722D01*
G37*
G36*
X26079249Y-66442188D02*
X26473693Y-66605572D01*
X26752607Y-66721102D01*
X27225458Y-67037051D01*
X27358616Y-67126024D01*
X27873976Y-67641384D01*
X27873978Y-67641387D01*
X28278898Y-68247393D01*
X28394428Y-68526307D01*
X28557812Y-68920751D01*
X28700000Y-69635580D01*
X28700000Y-70364420D01*
X28557812Y-71079249D01*
X28467152Y-71298121D01*
X28278898Y-71752607D01*
X28035384Y-72117051D01*
X27873976Y-72358616D01*
X27358616Y-72873976D01*
X27358613Y-72873978D01*
X26752607Y-73278898D01*
X26473693Y-73394428D01*
X26079249Y-73557812D01*
X25364420Y-73700000D01*
X24635580Y-73700000D01*
X23920751Y-73557812D01*
X23526307Y-73394428D01*
X23247393Y-73278898D01*
X22641387Y-72873978D01*
X22641384Y-72873976D01*
X22126024Y-72358616D01*
X21964616Y-72117051D01*
X21721102Y-71752607D01*
X21532848Y-71298121D01*
X21442188Y-71079249D01*
X21300000Y-70364420D01*
X21300000Y-69635580D01*
X21442188Y-68920751D01*
X21605572Y-68526307D01*
X21721102Y-68247393D01*
X22126022Y-67641387D01*
X22126024Y-67641384D01*
X22641384Y-67126024D01*
X22774542Y-67037051D01*
X23247393Y-66721102D01*
X23526307Y-66605572D01*
X23920751Y-66442188D01*
X24635580Y-66300000D01*
X25364420Y-66300000D01*
X26079249Y-66442188D01*
X26079249Y-66442188D01*
G37*
G36*
X116079249Y-66442188D02*
X116473693Y-66605572D01*
X116752607Y-66721102D01*
X117225458Y-67037051D01*
X117358616Y-67126024D01*
X117873976Y-67641384D01*
X117873978Y-67641387D01*
X118278898Y-68247393D01*
X118394428Y-68526307D01*
X118557812Y-68920751D01*
X118700000Y-69635580D01*
X118700000Y-70364420D01*
X118557812Y-71079249D01*
X118467152Y-71298121D01*
X118278898Y-71752607D01*
X118035384Y-72117051D01*
X117873976Y-72358616D01*
X117358616Y-72873976D01*
X117358613Y-72873978D01*
X116752607Y-73278898D01*
X116473693Y-73394428D01*
X116079249Y-73557812D01*
X115364420Y-73700000D01*
X114635580Y-73700000D01*
X113920751Y-73557812D01*
X113526307Y-73394428D01*
X113247393Y-73278898D01*
X112641387Y-72873978D01*
X112641384Y-72873976D01*
X112126024Y-72358616D01*
X111964616Y-72117051D01*
X111721102Y-71752607D01*
X111532848Y-71298121D01*
X111442188Y-71079249D01*
X111300000Y-70364420D01*
X111300000Y-69635580D01*
X111442188Y-68920751D01*
X111605572Y-68526307D01*
X111721102Y-68247393D01*
X112126022Y-67641387D01*
X112126024Y-67641384D01*
X112641384Y-67126024D01*
X112774542Y-67037051D01*
X113247393Y-66721102D01*
X113526307Y-66605572D01*
X113920751Y-66442188D01*
X114635580Y-66300000D01*
X115364420Y-66300000D01*
X116079249Y-66442188D01*
X116079249Y-66442188D01*
G37*
G36*
X70393778Y-68701879D02*
X70639466Y-68803646D01*
X70860578Y-68951389D01*
X71048611Y-69139422D01*
X71196354Y-69360534D01*
X71298121Y-69606222D01*
X71350000Y-69867035D01*
X71350000Y-70132965D01*
X71298121Y-70393778D01*
X71196354Y-70639466D01*
X71048611Y-70860578D01*
X70860578Y-71048611D01*
X70639466Y-71196354D01*
X70393778Y-71298121D01*
X70132965Y-71350000D01*
X69867035Y-71350000D01*
X69606222Y-71298121D01*
X69360534Y-71196354D01*
X69139422Y-71048611D01*
X68951389Y-70860578D01*
X68803646Y-70639466D01*
X68701879Y-70393778D01*
X68650000Y-70132965D01*
X68650000Y-69867035D01*
X68701879Y-69606222D01*
X68803646Y-69360534D01*
X68951389Y-69139422D01*
X69139422Y-68951389D01*
X69360534Y-68803646D01*
X69606222Y-68701879D01*
X69867035Y-68650000D01*
X70132965Y-68650000D01*
X70393778Y-68701879D01*
X70393778Y-68701879D01*
G37*
G36*
X100393778Y-68701879D02*
X100639466Y-68803646D01*
X100860578Y-68951389D01*
X101048611Y-69139422D01*
X101196354Y-69360534D01*
X101298121Y-69606222D01*
X101350000Y-69867035D01*
X101350000Y-70132965D01*
X101298121Y-70393778D01*
X101196354Y-70639466D01*
X101048611Y-70860578D01*
X100860578Y-71048611D01*
X100639466Y-71196354D01*
X100393778Y-71298121D01*
X100132965Y-71350000D01*
X99867035Y-71350000D01*
X99606222Y-71298121D01*
X99360534Y-71196354D01*
X99139422Y-71048611D01*
X98951389Y-70860578D01*
X98803646Y-70639466D01*
X98701879Y-70393778D01*
X98650000Y-70132965D01*
X98650000Y-69867035D01*
X98701879Y-69606222D01*
X98803646Y-69360534D01*
X98951389Y-69139422D01*
X99139422Y-68951389D01*
X99360534Y-68803646D01*
X99606222Y-68701879D01*
X99867035Y-68650000D01*
X100132965Y-68650000D01*
X100393778Y-68701879D01*
X100393778Y-68701879D01*
G37*
G36*
X40393778Y-68701879D02*
X40639466Y-68803646D01*
X40860578Y-68951389D01*
X41048611Y-69139422D01*
X41196354Y-69360534D01*
X41298121Y-69606222D01*
X41350000Y-69867035D01*
X41350000Y-70132965D01*
X41298121Y-70393778D01*
X41196354Y-70639466D01*
X41048611Y-70860578D01*
X40860578Y-71048611D01*
X40639466Y-71196354D01*
X40393778Y-71298121D01*
X40132965Y-71350000D01*
X39867035Y-71350000D01*
X39606222Y-71298121D01*
X39360534Y-71196354D01*
X39139422Y-71048611D01*
X38951389Y-70860578D01*
X38803646Y-70639466D01*
X38701879Y-70393778D01*
X38650000Y-70132965D01*
X38650000Y-69867035D01*
X38701879Y-69606222D01*
X38803646Y-69360534D01*
X38951389Y-69139422D01*
X39139422Y-68951389D01*
X39360534Y-68803646D01*
X39606222Y-68701879D01*
X39867035Y-68650000D01*
X40132965Y-68650000D01*
X40393778Y-68701879D01*
X40393778Y-68701879D01*
G37*
G36*
X97882947Y-66065722D02*
X98146833Y-66175027D01*
X98384324Y-66333713D01*
X98586287Y-66535676D01*
X98744973Y-66773167D01*
X98854278Y-67037053D01*
X98910000Y-67317186D01*
X98910000Y-67602814D01*
X98854278Y-67882947D01*
X98744973Y-68146833D01*
X98586287Y-68384324D01*
X98384324Y-68586287D01*
X98146833Y-68744973D01*
X97882947Y-68854278D01*
X97602814Y-68910000D01*
X97317186Y-68910000D01*
X97037053Y-68854278D01*
X96773167Y-68744973D01*
X96535676Y-68586287D01*
X96333713Y-68384324D01*
X96175027Y-68146833D01*
X96065722Y-67882947D01*
X96010000Y-67602814D01*
X96010000Y-67317186D01*
X96065722Y-67037053D01*
X96175027Y-66773167D01*
X96333713Y-66535676D01*
X96535676Y-66333713D01*
X96773167Y-66175027D01*
X97037053Y-66065722D01*
X97317186Y-66010000D01*
X97602814Y-66010000D01*
X97882947Y-66065722D01*
X97882947Y-66065722D01*
G37*
G36*
X42962947Y-66065722D02*
X43226833Y-66175027D01*
X43464324Y-66333713D01*
X43666287Y-66535676D01*
X43824973Y-66773167D01*
X43934278Y-67037053D01*
X43990000Y-67317186D01*
X43990000Y-67602814D01*
X43934278Y-67882947D01*
X43824973Y-68146833D01*
X43666287Y-68384324D01*
X43464324Y-68586287D01*
X43226833Y-68744973D01*
X42962947Y-68854278D01*
X42682814Y-68910000D01*
X42397186Y-68910000D01*
X42117053Y-68854278D01*
X41853167Y-68744973D01*
X41615676Y-68586287D01*
X41413713Y-68384324D01*
X41255027Y-68146833D01*
X41145722Y-67882947D01*
X41090000Y-67602814D01*
X41090000Y-67317186D01*
X41145722Y-67037053D01*
X41255027Y-66773167D01*
X41413713Y-66535676D01*
X41615676Y-66333713D01*
X41853167Y-66175027D01*
X42117053Y-66065722D01*
X42397186Y-66010000D01*
X42682814Y-66010000D01*
X42962947Y-66065722D01*
X42962947Y-66065722D01*
G37*
G36*
X72962947Y-66065722D02*
X73226833Y-66175027D01*
X73464324Y-66333713D01*
X73666287Y-66535676D01*
X73824973Y-66773167D01*
X73934278Y-67037053D01*
X73990000Y-67317186D01*
X73990000Y-67602814D01*
X73934278Y-67882947D01*
X73824973Y-68146833D01*
X73666287Y-68384324D01*
X73464324Y-68586287D01*
X73226833Y-68744973D01*
X72962947Y-68854278D01*
X72682814Y-68910000D01*
X72397186Y-68910000D01*
X72117053Y-68854278D01*
X71853167Y-68744973D01*
X71615676Y-68586287D01*
X71413713Y-68384324D01*
X71255027Y-68146833D01*
X71145722Y-67882947D01*
X71090000Y-67602814D01*
X71090000Y-67317186D01*
X71145722Y-67037053D01*
X71255027Y-66773167D01*
X71413713Y-66535676D01*
X71615676Y-66333713D01*
X71853167Y-66175027D01*
X72117053Y-66065722D01*
X72397186Y-66010000D01*
X72682814Y-66010000D01*
X72962947Y-66065722D01*
X72962947Y-66065722D01*
G37*
G36*
X67882947Y-66065722D02*
X68146833Y-66175027D01*
X68384324Y-66333713D01*
X68586287Y-66535676D01*
X68744973Y-66773167D01*
X68854278Y-67037053D01*
X68910000Y-67317186D01*
X68910000Y-67602814D01*
X68854278Y-67882947D01*
X68744973Y-68146833D01*
X68586287Y-68384324D01*
X68384324Y-68586287D01*
X68146833Y-68744973D01*
X67882947Y-68854278D01*
X67602814Y-68910000D01*
X67317186Y-68910000D01*
X67037053Y-68854278D01*
X66773167Y-68744973D01*
X66535676Y-68586287D01*
X66333713Y-68384324D01*
X66175027Y-68146833D01*
X66065722Y-67882947D01*
X66010000Y-67602814D01*
X66010000Y-67317186D01*
X66065722Y-67037053D01*
X66175027Y-66773167D01*
X66333713Y-66535676D01*
X66535676Y-66333713D01*
X66773167Y-66175027D01*
X67037053Y-66065722D01*
X67317186Y-66010000D01*
X67602814Y-66010000D01*
X67882947Y-66065722D01*
X67882947Y-66065722D01*
G37*
G36*
X37882947Y-66065722D02*
X38146833Y-66175027D01*
X38384324Y-66333713D01*
X38586287Y-66535676D01*
X38744973Y-66773167D01*
X38854278Y-67037053D01*
X38910000Y-67317186D01*
X38910000Y-67602814D01*
X38854278Y-67882947D01*
X38744973Y-68146833D01*
X38586287Y-68384324D01*
X38384324Y-68586287D01*
X38146833Y-68744973D01*
X37882947Y-68854278D01*
X37602814Y-68910000D01*
X37317186Y-68910000D01*
X37037053Y-68854278D01*
X36773167Y-68744973D01*
X36535676Y-68586287D01*
X36333713Y-68384324D01*
X36175027Y-68146833D01*
X36065722Y-67882947D01*
X36010000Y-67602814D01*
X36010000Y-67317186D01*
X36065722Y-67037053D01*
X36175027Y-66773167D01*
X36333713Y-66535676D01*
X36535676Y-66333713D01*
X36773167Y-66175027D01*
X37037053Y-66065722D01*
X37317186Y-66010000D01*
X37602814Y-66010000D01*
X37882947Y-66065722D01*
X37882947Y-66065722D01*
G37*
G36*
X102962947Y-66065722D02*
X103226833Y-66175027D01*
X103464324Y-66333713D01*
X103666287Y-66535676D01*
X103824973Y-66773167D01*
X103934278Y-67037053D01*
X103990000Y-67317186D01*
X103990000Y-67602814D01*
X103934278Y-67882947D01*
X103824973Y-68146833D01*
X103666287Y-68384324D01*
X103464324Y-68586287D01*
X103226833Y-68744973D01*
X102962947Y-68854278D01*
X102682814Y-68910000D01*
X102397186Y-68910000D01*
X102117053Y-68854278D01*
X101853167Y-68744973D01*
X101615676Y-68586287D01*
X101413713Y-68384324D01*
X101255027Y-68146833D01*
X101145722Y-67882947D01*
X101090000Y-67602814D01*
X101090000Y-67317186D01*
X101145722Y-67037053D01*
X101255027Y-66773167D01*
X101413713Y-66535676D01*
X101615676Y-66333713D01*
X101853167Y-66175027D01*
X102117053Y-66065722D01*
X102397186Y-66010000D01*
X102682814Y-66010000D01*
X102962947Y-66065722D01*
X102962947Y-66065722D01*
G37*
G36*
X81386393Y-53843553D02*
X81495872Y-53865330D01*
X81805252Y-53993479D01*
X82083687Y-54179523D01*
X82320477Y-54416313D01*
X82506521Y-54694748D01*
X82634670Y-55004128D01*
X82700000Y-55332565D01*
X82700000Y-55667435D01*
X82634670Y-55995872D01*
X82506521Y-56305252D01*
X82320477Y-56583687D01*
X82083687Y-56820477D01*
X81805252Y-57006521D01*
X81495872Y-57134670D01*
X81386393Y-57156447D01*
X81167437Y-57200000D01*
X80832563Y-57200000D01*
X80613607Y-57156447D01*
X80504128Y-57134670D01*
X80194748Y-57006521D01*
X79916313Y-56820477D01*
X79679523Y-56583687D01*
X79493479Y-56305252D01*
X79365330Y-55995872D01*
X79300000Y-55667435D01*
X79300000Y-55332565D01*
X79365330Y-55004128D01*
X79493479Y-54694748D01*
X79679523Y-54416313D01*
X79916313Y-54179523D01*
X80194748Y-53993479D01*
X80504128Y-53865330D01*
X80613607Y-53843553D01*
X80832563Y-53800000D01*
X81167437Y-53800000D01*
X81386393Y-53843553D01*
X81386393Y-53843553D01*
G37*
G36*
X106386393Y-53843553D02*
X106495872Y-53865330D01*
X106805252Y-53993479D01*
X107083687Y-54179523D01*
X107320477Y-54416313D01*
X107506521Y-54694748D01*
X107634670Y-55004128D01*
X107700000Y-55332565D01*
X107700000Y-55667435D01*
X107634670Y-55995872D01*
X107506521Y-56305252D01*
X107320477Y-56583687D01*
X107083687Y-56820477D01*
X106805252Y-57006521D01*
X106495872Y-57134670D01*
X106386393Y-57156447D01*
X106167437Y-57200000D01*
X105832563Y-57200000D01*
X105613607Y-57156447D01*
X105504128Y-57134670D01*
X105194748Y-57006521D01*
X104916313Y-56820477D01*
X104679523Y-56583687D01*
X104493479Y-56305252D01*
X104365330Y-55995872D01*
X104300000Y-55667435D01*
X104300000Y-55332565D01*
X104365330Y-55004128D01*
X104493479Y-54694748D01*
X104679523Y-54416313D01*
X104916313Y-54179523D01*
X105194748Y-53993479D01*
X105504128Y-53865330D01*
X105613607Y-53843553D01*
X105832563Y-53800000D01*
X106167437Y-53800000D01*
X106386393Y-53843553D01*
X106386393Y-53843553D01*
G37*
G36*
X56386393Y-53843553D02*
X56495872Y-53865330D01*
X56805252Y-53993479D01*
X57083687Y-54179523D01*
X57320477Y-54416313D01*
X57506521Y-54694748D01*
X57634670Y-55004128D01*
X57700000Y-55332565D01*
X57700000Y-55667435D01*
X57634670Y-55995872D01*
X57506521Y-56305252D01*
X57320477Y-56583687D01*
X57083687Y-56820477D01*
X56805252Y-57006521D01*
X56495872Y-57134670D01*
X56386393Y-57156447D01*
X56167437Y-57200000D01*
X55832563Y-57200000D01*
X55613607Y-57156447D01*
X55504128Y-57134670D01*
X55194748Y-57006521D01*
X54916313Y-56820477D01*
X54679523Y-56583687D01*
X54493479Y-56305252D01*
X54365330Y-55995872D01*
X54300000Y-55667435D01*
X54300000Y-55332565D01*
X54365330Y-55004128D01*
X54493479Y-54694748D01*
X54679523Y-54416313D01*
X54916313Y-54179523D01*
X55194748Y-53993479D01*
X55504128Y-53865330D01*
X55613607Y-53843553D01*
X55832563Y-53800000D01*
X56167437Y-53800000D01*
X56386393Y-53843553D01*
X56386393Y-53843553D01*
G37*
G36*
X69386393Y-53843553D02*
X69495872Y-53865330D01*
X69805252Y-53993479D01*
X70083687Y-54179523D01*
X70320477Y-54416313D01*
X70506521Y-54694748D01*
X70634670Y-55004128D01*
X70700000Y-55332565D01*
X70700000Y-55667435D01*
X70634670Y-55995872D01*
X70506521Y-56305252D01*
X70320477Y-56583687D01*
X70083687Y-56820477D01*
X69805252Y-57006521D01*
X69495872Y-57134670D01*
X69386393Y-57156447D01*
X69167437Y-57200000D01*
X68832563Y-57200000D01*
X68613607Y-57156447D01*
X68504128Y-57134670D01*
X68194748Y-57006521D01*
X67916313Y-56820477D01*
X67679523Y-56583687D01*
X67493479Y-56305252D01*
X67365330Y-55995872D01*
X67300000Y-55667435D01*
X67300000Y-55332565D01*
X67365330Y-55004128D01*
X67493479Y-54694748D01*
X67679523Y-54416313D01*
X67916313Y-54179523D01*
X68194748Y-53993479D01*
X68504128Y-53865330D01*
X68613607Y-53843553D01*
X68832563Y-53800000D01*
X69167437Y-53800000D01*
X69386393Y-53843553D01*
X69386393Y-53843553D01*
G37*
G36*
X94386393Y-53843553D02*
X94495872Y-53865330D01*
X94805252Y-53993479D01*
X95083687Y-54179523D01*
X95320477Y-54416313D01*
X95506521Y-54694748D01*
X95634670Y-55004128D01*
X95700000Y-55332565D01*
X95700000Y-55667435D01*
X95634670Y-55995872D01*
X95506521Y-56305252D01*
X95320477Y-56583687D01*
X95083687Y-56820477D01*
X94805252Y-57006521D01*
X94495872Y-57134670D01*
X94386393Y-57156447D01*
X94167437Y-57200000D01*
X93832563Y-57200000D01*
X93613607Y-57156447D01*
X93504128Y-57134670D01*
X93194748Y-57006521D01*
X92916313Y-56820477D01*
X92679523Y-56583687D01*
X92493479Y-56305252D01*
X92365330Y-55995872D01*
X92300000Y-55667435D01*
X92300000Y-55332565D01*
X92365330Y-55004128D01*
X92493479Y-54694748D01*
X92679523Y-54416313D01*
X92916313Y-54179523D01*
X93194748Y-53993479D01*
X93504128Y-53865330D01*
X93613607Y-53843553D01*
X93832563Y-53800000D01*
X94167437Y-53800000D01*
X94386393Y-53843553D01*
X94386393Y-53843553D01*
G37*
G36*
X44386393Y-53843553D02*
X44495872Y-53865330D01*
X44805252Y-53993479D01*
X45083687Y-54179523D01*
X45320477Y-54416313D01*
X45506521Y-54694748D01*
X45634670Y-55004128D01*
X45700000Y-55332565D01*
X45700000Y-55667435D01*
X45634670Y-55995872D01*
X45506521Y-56305252D01*
X45320477Y-56583687D01*
X45083687Y-56820477D01*
X44805252Y-57006521D01*
X44495872Y-57134670D01*
X44386393Y-57156447D01*
X44167437Y-57200000D01*
X43832563Y-57200000D01*
X43613607Y-57156447D01*
X43504128Y-57134670D01*
X43194748Y-57006521D01*
X42916313Y-56820477D01*
X42679523Y-56583687D01*
X42493479Y-56305252D01*
X42365330Y-55995872D01*
X42300000Y-55667435D01*
X42300000Y-55332565D01*
X42365330Y-55004128D01*
X42493479Y-54694748D01*
X42679523Y-54416313D01*
X42916313Y-54179523D01*
X43194748Y-53993479D01*
X43504128Y-53865330D01*
X43613607Y-53843553D01*
X43832563Y-53800000D01*
X44167437Y-53800000D01*
X44386393Y-53843553D01*
X44386393Y-53843553D01*
G37*
G36*
X34601336Y-53131919D02*
X34782670Y-53186927D01*
X34949797Y-53276258D01*
X35096278Y-53396472D01*
X35216492Y-53542953D01*
X35305823Y-53710080D01*
X35360831Y-53891414D01*
X35379404Y-54080000D01*
X35360831Y-54268586D01*
X35305823Y-54449920D01*
X35216492Y-54617047D01*
X35096278Y-54763528D01*
X34949797Y-54883742D01*
X34782670Y-54973073D01*
X34601336Y-55028081D01*
X34460007Y-55042000D01*
X33692393Y-55042000D01*
X33551064Y-55028081D01*
X33369730Y-54973073D01*
X33202603Y-54883742D01*
X33056122Y-54763528D01*
X32935908Y-54617047D01*
X32846577Y-54449920D01*
X32791569Y-54268586D01*
X32772996Y-54080000D01*
X32791569Y-53891414D01*
X32846577Y-53710080D01*
X32935908Y-53542953D01*
X33056122Y-53396472D01*
X33202603Y-53276258D01*
X33369730Y-53186927D01*
X33551064Y-53131919D01*
X33692393Y-53118000D01*
X34460007Y-53118000D01*
X34601336Y-53131919D01*
X34601336Y-53131919D01*
G37*
G36*
X34601336Y-50591919D02*
X34782670Y-50646927D01*
X34949797Y-50736258D01*
X35096278Y-50856472D01*
X35216492Y-51002953D01*
X35305823Y-51170080D01*
X35360831Y-51351414D01*
X35379404Y-51540000D01*
X35360831Y-51728586D01*
X35305823Y-51909920D01*
X35216492Y-52077047D01*
X35096278Y-52223528D01*
X34949797Y-52343742D01*
X34782670Y-52433073D01*
X34601336Y-52488081D01*
X34460007Y-52502000D01*
X33692393Y-52502000D01*
X33551064Y-52488081D01*
X33369730Y-52433073D01*
X33202603Y-52343742D01*
X33056122Y-52223528D01*
X32935908Y-52077047D01*
X32846577Y-51909920D01*
X32791569Y-51728586D01*
X32772996Y-51540000D01*
X32791569Y-51351414D01*
X32846577Y-51170080D01*
X32935908Y-51002953D01*
X33056122Y-50856472D01*
X33202603Y-50736258D01*
X33369730Y-50646927D01*
X33551064Y-50591919D01*
X33692393Y-50578000D01*
X34460007Y-50578000D01*
X34601336Y-50591919D01*
X34601336Y-50591919D01*
G37*
G36*
X34601336Y-48051919D02*
X34782670Y-48106927D01*
X34949797Y-48196258D01*
X35096278Y-48316472D01*
X35216492Y-48462953D01*
X35305823Y-48630080D01*
X35360831Y-48811414D01*
X35379404Y-49000000D01*
X35360831Y-49188586D01*
X35305823Y-49369920D01*
X35216492Y-49537047D01*
X35096278Y-49683528D01*
X34949797Y-49803742D01*
X34782670Y-49893073D01*
X34601336Y-49948081D01*
X34460007Y-49962000D01*
X33692393Y-49962000D01*
X33551064Y-49948081D01*
X33369730Y-49893073D01*
X33202603Y-49803742D01*
X33056122Y-49683528D01*
X32935908Y-49537047D01*
X32846577Y-49369920D01*
X32791569Y-49188586D01*
X32772996Y-49000000D01*
X32791569Y-48811414D01*
X32846577Y-48630080D01*
X32935908Y-48462953D01*
X33056122Y-48316472D01*
X33202603Y-48196258D01*
X33369730Y-48106927D01*
X33551064Y-48051919D01*
X33692393Y-48038000D01*
X34460007Y-48038000D01*
X34601336Y-48051919D01*
X34601336Y-48051919D01*
G37*
G36*
X34601336Y-45511919D02*
X34782670Y-45566927D01*
X34949797Y-45656258D01*
X35096278Y-45776472D01*
X35216492Y-45922953D01*
X35305823Y-46090080D01*
X35360831Y-46271414D01*
X35379404Y-46460000D01*
X35360831Y-46648586D01*
X35305823Y-46829920D01*
X35216492Y-46997047D01*
X35096278Y-47143528D01*
X34949797Y-47263742D01*
X34782670Y-47353073D01*
X34601336Y-47408081D01*
X34460007Y-47422000D01*
X33692393Y-47422000D01*
X33551064Y-47408081D01*
X33369730Y-47353073D01*
X33202603Y-47263742D01*
X33056122Y-47143528D01*
X32935908Y-46997047D01*
X32846577Y-46829920D01*
X32791569Y-46648586D01*
X32772996Y-46460000D01*
X32791569Y-46271414D01*
X32846577Y-46090080D01*
X32935908Y-45922953D01*
X33056122Y-45776472D01*
X33202603Y-45656258D01*
X33369730Y-45566927D01*
X33551064Y-45511919D01*
X33692393Y-45498000D01*
X34460007Y-45498000D01*
X34601336Y-45511919D01*
X34601336Y-45511919D01*
G37*
G36*
X72700000Y-46825000D02*
X70800000Y-46825000D01*
X70800000Y-45175000D01*
X72700000Y-45175000D01*
X72700000Y-46825000D01*
X72700000Y-46825000D01*
G37*
G36*
X75200000Y-46825000D02*
X73300000Y-46825000D01*
X73300000Y-45175000D01*
X75200000Y-45175000D01*
X75200000Y-46825000D01*
X75200000Y-46825000D01*
G37*
G36*
X97700000Y-46825000D02*
X95800000Y-46825000D01*
X95800000Y-45175000D01*
X97700000Y-45175000D01*
X97700000Y-46825000D01*
X97700000Y-46825000D01*
G37*
G36*
X100200000Y-46825000D02*
X98300000Y-46825000D01*
X98300000Y-45175000D01*
X100200000Y-45175000D01*
X100200000Y-46825000D01*
X100200000Y-46825000D01*
G37*
G36*
X50200000Y-45825000D02*
X48300000Y-45825000D01*
X48300000Y-44175000D01*
X50200000Y-44175000D01*
X50200000Y-45825000D01*
X50200000Y-45825000D01*
G37*
G36*
X47700000Y-45825000D02*
X45800000Y-45825000D01*
X45800000Y-44175000D01*
X47700000Y-44175000D01*
X47700000Y-45825000D01*
X47700000Y-45825000D01*
G37*
G36*
X56386393Y-41643553D02*
X56495872Y-41665330D01*
X56805252Y-41793479D01*
X57083687Y-41979523D01*
X57320477Y-42216313D01*
X57506521Y-42494748D01*
X57634670Y-42804128D01*
X57700000Y-43132565D01*
X57700000Y-43467435D01*
X57634670Y-43795872D01*
X57506521Y-44105252D01*
X57320477Y-44383687D01*
X57083687Y-44620477D01*
X56805252Y-44806521D01*
X56495872Y-44934670D01*
X56386393Y-44956447D01*
X56167437Y-45000000D01*
X55832563Y-45000000D01*
X55613607Y-44956447D01*
X55504128Y-44934670D01*
X55194748Y-44806521D01*
X54916313Y-44620477D01*
X54679523Y-44383687D01*
X54493479Y-44105252D01*
X54365330Y-43795872D01*
X54300000Y-43467435D01*
X54300000Y-43132565D01*
X54365330Y-42804128D01*
X54493479Y-42494748D01*
X54679523Y-42216313D01*
X54916313Y-41979523D01*
X55194748Y-41793479D01*
X55504128Y-41665330D01*
X55613607Y-41643553D01*
X55832563Y-41600000D01*
X56167437Y-41600000D01*
X56386393Y-41643553D01*
X56386393Y-41643553D01*
G37*
G36*
X44386393Y-41643553D02*
X44495872Y-41665330D01*
X44805252Y-41793479D01*
X45083687Y-41979523D01*
X45320477Y-42216313D01*
X45506521Y-42494748D01*
X45634670Y-42804128D01*
X45700000Y-43132565D01*
X45700000Y-43467435D01*
X45634670Y-43795872D01*
X45506521Y-44105252D01*
X45320477Y-44383687D01*
X45083687Y-44620477D01*
X44805252Y-44806521D01*
X44495872Y-44934670D01*
X44386393Y-44956447D01*
X44167437Y-45000000D01*
X43832563Y-45000000D01*
X43613607Y-44956447D01*
X43504128Y-44934670D01*
X43194748Y-44806521D01*
X42916313Y-44620477D01*
X42679523Y-44383687D01*
X42493479Y-44105252D01*
X42365330Y-43795872D01*
X42300000Y-43467435D01*
X42300000Y-43132565D01*
X42365330Y-42804128D01*
X42493479Y-42494748D01*
X42679523Y-42216313D01*
X42916313Y-41979523D01*
X43194748Y-41793479D01*
X43504128Y-41665330D01*
X43613607Y-41643553D01*
X43832563Y-41600000D01*
X44167437Y-41600000D01*
X44386393Y-41643553D01*
X44386393Y-41643553D01*
G37*
G36*
X69386393Y-41643553D02*
X69495872Y-41665330D01*
X69805252Y-41793479D01*
X70083687Y-41979523D01*
X70320477Y-42216313D01*
X70506521Y-42494748D01*
X70634670Y-42804128D01*
X70700000Y-43132565D01*
X70700000Y-43467435D01*
X70634670Y-43795872D01*
X70506521Y-44105252D01*
X70320477Y-44383687D01*
X70083687Y-44620477D01*
X69805252Y-44806521D01*
X69495872Y-44934670D01*
X69386393Y-44956447D01*
X69167437Y-45000000D01*
X68832563Y-45000000D01*
X68613607Y-44956447D01*
X68504128Y-44934670D01*
X68194748Y-44806521D01*
X67916313Y-44620477D01*
X67679523Y-44383687D01*
X67493479Y-44105252D01*
X67365330Y-43795872D01*
X67300000Y-43467435D01*
X67300000Y-43132565D01*
X67365330Y-42804128D01*
X67493479Y-42494748D01*
X67679523Y-42216313D01*
X67916313Y-41979523D01*
X68194748Y-41793479D01*
X68504128Y-41665330D01*
X68613607Y-41643553D01*
X68832563Y-41600000D01*
X69167437Y-41600000D01*
X69386393Y-41643553D01*
X69386393Y-41643553D01*
G37*
G36*
X81386393Y-41643553D02*
X81495872Y-41665330D01*
X81805252Y-41793479D01*
X82083687Y-41979523D01*
X82320477Y-42216313D01*
X82506521Y-42494748D01*
X82634670Y-42804128D01*
X82700000Y-43132565D01*
X82700000Y-43467435D01*
X82634670Y-43795872D01*
X82506521Y-44105252D01*
X82320477Y-44383687D01*
X82083687Y-44620477D01*
X81805252Y-44806521D01*
X81495872Y-44934670D01*
X81386393Y-44956447D01*
X81167437Y-45000000D01*
X80832563Y-45000000D01*
X80613607Y-44956447D01*
X80504128Y-44934670D01*
X80194748Y-44806521D01*
X79916313Y-44620477D01*
X79679523Y-44383687D01*
X79493479Y-44105252D01*
X79365330Y-43795872D01*
X79300000Y-43467435D01*
X79300000Y-43132565D01*
X79365330Y-42804128D01*
X79493479Y-42494748D01*
X79679523Y-42216313D01*
X79916313Y-41979523D01*
X80194748Y-41793479D01*
X80504128Y-41665330D01*
X80613607Y-41643553D01*
X80832563Y-41600000D01*
X81167437Y-41600000D01*
X81386393Y-41643553D01*
X81386393Y-41643553D01*
G37*
G36*
X94386393Y-41643553D02*
X94495872Y-41665330D01*
X94805252Y-41793479D01*
X95083687Y-41979523D01*
X95320477Y-42216313D01*
X95506521Y-42494748D01*
X95634670Y-42804128D01*
X95700000Y-43132565D01*
X95700000Y-43467435D01*
X95634670Y-43795872D01*
X95506521Y-44105252D01*
X95320477Y-44383687D01*
X95083687Y-44620477D01*
X94805252Y-44806521D01*
X94495872Y-44934670D01*
X94386393Y-44956447D01*
X94167437Y-45000000D01*
X93832563Y-45000000D01*
X93613607Y-44956447D01*
X93504128Y-44934670D01*
X93194748Y-44806521D01*
X92916313Y-44620477D01*
X92679523Y-44383687D01*
X92493479Y-44105252D01*
X92365330Y-43795872D01*
X92300000Y-43467435D01*
X92300000Y-43132565D01*
X92365330Y-42804128D01*
X92493479Y-42494748D01*
X92679523Y-42216313D01*
X92916313Y-41979523D01*
X93194748Y-41793479D01*
X93504128Y-41665330D01*
X93613607Y-41643553D01*
X93832563Y-41600000D01*
X94167437Y-41600000D01*
X94386393Y-41643553D01*
X94386393Y-41643553D01*
G37*
G36*
X106386393Y-41643553D02*
X106495872Y-41665330D01*
X106805252Y-41793479D01*
X107083687Y-41979523D01*
X107320477Y-42216313D01*
X107506521Y-42494748D01*
X107634670Y-42804128D01*
X107700000Y-43132565D01*
X107700000Y-43467435D01*
X107634670Y-43795872D01*
X107506521Y-44105252D01*
X107320477Y-44383687D01*
X107083687Y-44620477D01*
X106805252Y-44806521D01*
X106495872Y-44934670D01*
X106386393Y-44956447D01*
X106167437Y-45000000D01*
X105832563Y-45000000D01*
X105613607Y-44956447D01*
X105504128Y-44934670D01*
X105194748Y-44806521D01*
X104916313Y-44620477D01*
X104679523Y-44383687D01*
X104493479Y-44105252D01*
X104365330Y-43795872D01*
X104300000Y-43467435D01*
X104300000Y-43132565D01*
X104365330Y-42804128D01*
X104493479Y-42494748D01*
X104679523Y-42216313D01*
X104916313Y-41979523D01*
X105194748Y-41793479D01*
X105504128Y-41665330D01*
X105613607Y-41643553D01*
X105832563Y-41600000D01*
X106167437Y-41600000D01*
X106386393Y-41643553D01*
X106386393Y-41643553D01*
G37*
G36*
X35374750Y-44882000D02*
X32777650Y-44882000D01*
X32777650Y-42958000D01*
X35374750Y-42958000D01*
X35374750Y-44882000D01*
X35374750Y-44882000D01*
G37*
G36*
X50386393Y-39643553D02*
X50495872Y-39665330D01*
X50805252Y-39793479D01*
X51083687Y-39979523D01*
X51320477Y-40216313D01*
X51506521Y-40494748D01*
X51634670Y-40804128D01*
X51700000Y-41132565D01*
X51700000Y-41467435D01*
X51634670Y-41795872D01*
X51506521Y-42105252D01*
X51320477Y-42383687D01*
X51083687Y-42620477D01*
X50805252Y-42806521D01*
X50495872Y-42934670D01*
X50386393Y-42956447D01*
X50167437Y-43000000D01*
X49832563Y-43000000D01*
X49613607Y-42956447D01*
X49504128Y-42934670D01*
X49194748Y-42806521D01*
X48916313Y-42620477D01*
X48679523Y-42383687D01*
X48493479Y-42105252D01*
X48365330Y-41795872D01*
X48300000Y-41467435D01*
X48300000Y-41132565D01*
X48365330Y-40804128D01*
X48493479Y-40494748D01*
X48679523Y-40216313D01*
X48916313Y-39979523D01*
X49194748Y-39793479D01*
X49504128Y-39665330D01*
X49613607Y-39643553D01*
X49832563Y-39600000D01*
X50167437Y-39600000D01*
X50386393Y-39643553D01*
X50386393Y-39643553D01*
G37*
G36*
X100386393Y-39643553D02*
X100495872Y-39665330D01*
X100805252Y-39793479D01*
X101083687Y-39979523D01*
X101320477Y-40216313D01*
X101506521Y-40494748D01*
X101634670Y-40804128D01*
X101700000Y-41132565D01*
X101700000Y-41467435D01*
X101634670Y-41795872D01*
X101506521Y-42105252D01*
X101320477Y-42383687D01*
X101083687Y-42620477D01*
X100805252Y-42806521D01*
X100495872Y-42934670D01*
X100386393Y-42956447D01*
X100167437Y-43000000D01*
X99832563Y-43000000D01*
X99613607Y-42956447D01*
X99504128Y-42934670D01*
X99194748Y-42806521D01*
X98916313Y-42620477D01*
X98679523Y-42383687D01*
X98493479Y-42105252D01*
X98365330Y-41795872D01*
X98300000Y-41467435D01*
X98300000Y-41132565D01*
X98365330Y-40804128D01*
X98493479Y-40494748D01*
X98679523Y-40216313D01*
X98916313Y-39979523D01*
X99194748Y-39793479D01*
X99504128Y-39665330D01*
X99613607Y-39643553D01*
X99832563Y-39600000D01*
X100167437Y-39600000D01*
X100386393Y-39643553D01*
X100386393Y-39643553D01*
G37*
G36*
X75386393Y-39643553D02*
X75495872Y-39665330D01*
X75805252Y-39793479D01*
X76083687Y-39979523D01*
X76320477Y-40216313D01*
X76506521Y-40494748D01*
X76634670Y-40804128D01*
X76700000Y-41132565D01*
X76700000Y-41467435D01*
X76634670Y-41795872D01*
X76506521Y-42105252D01*
X76320477Y-42383687D01*
X76083687Y-42620477D01*
X75805252Y-42806521D01*
X75495872Y-42934670D01*
X75386393Y-42956447D01*
X75167437Y-43000000D01*
X74832563Y-43000000D01*
X74613607Y-42956447D01*
X74504128Y-42934670D01*
X74194748Y-42806521D01*
X73916313Y-42620477D01*
X73679523Y-42383687D01*
X73493479Y-42105252D01*
X73365330Y-41795872D01*
X73300000Y-41467435D01*
X73300000Y-41132565D01*
X73365330Y-40804128D01*
X73493479Y-40494748D01*
X73679523Y-40216313D01*
X73916313Y-39979523D01*
X74194748Y-39793479D01*
X74504128Y-39665330D01*
X74613607Y-39643553D01*
X74832563Y-39600000D01*
X75167437Y-39600000D01*
X75386393Y-39643553D01*
X75386393Y-39643553D01*
G37*
G36*
X72962947Y-31145722D02*
X73226833Y-31255027D01*
X73464324Y-31413713D01*
X73666287Y-31615676D01*
X73824973Y-31853167D01*
X73934278Y-32117053D01*
X73990000Y-32397186D01*
X73990000Y-32682814D01*
X73934278Y-32962947D01*
X73824973Y-33226833D01*
X73666287Y-33464324D01*
X73464324Y-33666287D01*
X73226833Y-33824973D01*
X72962947Y-33934278D01*
X72682814Y-33990000D01*
X72397186Y-33990000D01*
X72117053Y-33934278D01*
X71853167Y-33824973D01*
X71615676Y-33666287D01*
X71413713Y-33464324D01*
X71255027Y-33226833D01*
X71145722Y-32962947D01*
X71090000Y-32682814D01*
X71090000Y-32397186D01*
X71145722Y-32117053D01*
X71255027Y-31853167D01*
X71413713Y-31615676D01*
X71615676Y-31413713D01*
X71853167Y-31255027D01*
X72117053Y-31145722D01*
X72397186Y-31090000D01*
X72682814Y-31090000D01*
X72962947Y-31145722D01*
X72962947Y-31145722D01*
G37*
G36*
X67882947Y-31145722D02*
X68146833Y-31255027D01*
X68384324Y-31413713D01*
X68586287Y-31615676D01*
X68744973Y-31853167D01*
X68854278Y-32117053D01*
X68910000Y-32397186D01*
X68910000Y-32682814D01*
X68854278Y-32962947D01*
X68744973Y-33226833D01*
X68586287Y-33464324D01*
X68384324Y-33666287D01*
X68146833Y-33824973D01*
X67882947Y-33934278D01*
X67602814Y-33990000D01*
X67317186Y-33990000D01*
X67037053Y-33934278D01*
X66773167Y-33824973D01*
X66535676Y-33666287D01*
X66333713Y-33464324D01*
X66175027Y-33226833D01*
X66065722Y-32962947D01*
X66010000Y-32682814D01*
X66010000Y-32397186D01*
X66065722Y-32117053D01*
X66175027Y-31853167D01*
X66333713Y-31615676D01*
X66535676Y-31413713D01*
X66773167Y-31255027D01*
X67037053Y-31145722D01*
X67317186Y-31090000D01*
X67602814Y-31090000D01*
X67882947Y-31145722D01*
X67882947Y-31145722D01*
G37*
G36*
X116079249Y-26442188D02*
X116473693Y-26605572D01*
X116752607Y-26721102D01*
X117225458Y-27037051D01*
X117358616Y-27126024D01*
X117873976Y-27641384D01*
X117873978Y-27641387D01*
X118278898Y-28247393D01*
X118394428Y-28526307D01*
X118557812Y-28920751D01*
X118700000Y-29635580D01*
X118700000Y-30364420D01*
X118557812Y-31079249D01*
X118467152Y-31298121D01*
X118278898Y-31752607D01*
X118035384Y-32117051D01*
X117873976Y-32358616D01*
X117358616Y-32873976D01*
X117358613Y-32873978D01*
X116752607Y-33278898D01*
X116473693Y-33394428D01*
X116079249Y-33557812D01*
X115364420Y-33700000D01*
X114635580Y-33700000D01*
X113920751Y-33557812D01*
X113526307Y-33394428D01*
X113247393Y-33278898D01*
X112641387Y-32873978D01*
X112641384Y-32873976D01*
X112126024Y-32358616D01*
X111964616Y-32117051D01*
X111721102Y-31752607D01*
X111532848Y-31298121D01*
X111442188Y-31079249D01*
X111300000Y-30364420D01*
X111300000Y-29635580D01*
X111442188Y-28920751D01*
X111605572Y-28526307D01*
X111721102Y-28247393D01*
X112126022Y-27641387D01*
X112126024Y-27641384D01*
X112641384Y-27126024D01*
X112774542Y-27037051D01*
X113247393Y-26721102D01*
X113526307Y-26605572D01*
X113920751Y-26442188D01*
X114635580Y-26300000D01*
X115364420Y-26300000D01*
X116079249Y-26442188D01*
X116079249Y-26442188D01*
G37*
G36*
X26079249Y-26442188D02*
X26473693Y-26605572D01*
X26752607Y-26721102D01*
X27225458Y-27037051D01*
X27358616Y-27126024D01*
X27873976Y-27641384D01*
X27873978Y-27641387D01*
X28278898Y-28247393D01*
X28394428Y-28526307D01*
X28557812Y-28920751D01*
X28700000Y-29635580D01*
X28700000Y-30364420D01*
X28557812Y-31079249D01*
X28467152Y-31298121D01*
X28278898Y-31752607D01*
X28035384Y-32117051D01*
X27873976Y-32358616D01*
X27358616Y-32873976D01*
X27358613Y-32873978D01*
X26752607Y-33278898D01*
X26473693Y-33394428D01*
X26079249Y-33557812D01*
X25364420Y-33700000D01*
X24635580Y-33700000D01*
X23920751Y-33557812D01*
X23526307Y-33394428D01*
X23247393Y-33278898D01*
X22641387Y-32873978D01*
X22641384Y-32873976D01*
X22126024Y-32358616D01*
X21964616Y-32117051D01*
X21721102Y-31752607D01*
X21532848Y-31298121D01*
X21442188Y-31079249D01*
X21300000Y-30364420D01*
X21300000Y-29635580D01*
X21442188Y-28920751D01*
X21605572Y-28526307D01*
X21721102Y-28247393D01*
X22126022Y-27641387D01*
X22126024Y-27641384D01*
X22641384Y-27126024D01*
X22774542Y-27037051D01*
X23247393Y-26721102D01*
X23526307Y-26605572D01*
X23920751Y-26442188D01*
X24635580Y-26300000D01*
X25364420Y-26300000D01*
X26079249Y-26442188D01*
X26079249Y-26442188D01*
G37*
G36*
X70393778Y-28701879D02*
X70639466Y-28803646D01*
X70860578Y-28951389D01*
X71048611Y-29139422D01*
X71196354Y-29360534D01*
X71298121Y-29606222D01*
X71350000Y-29867035D01*
X71350000Y-30132965D01*
X71298121Y-30393778D01*
X71196354Y-30639466D01*
X71048611Y-30860578D01*
X70860578Y-31048611D01*
X70639466Y-31196354D01*
X70393778Y-31298121D01*
X70132965Y-31350000D01*
X69867035Y-31350000D01*
X69606222Y-31298121D01*
X69360534Y-31196354D01*
X69139422Y-31048611D01*
X68951389Y-30860578D01*
X68803646Y-30639466D01*
X68701879Y-30393778D01*
X68650000Y-30132965D01*
X68650000Y-29867035D01*
X68701879Y-29606222D01*
X68803646Y-29360534D01*
X68951389Y-29139422D01*
X69139422Y-28951389D01*
X69360534Y-28803646D01*
X69606222Y-28701879D01*
X69867035Y-28650000D01*
X70132965Y-28650000D01*
X70393778Y-28701879D01*
X70393778Y-28701879D01*
G37*
G36*
X67882947Y-26065722D02*
X68146833Y-26175027D01*
X68384324Y-26333713D01*
X68586287Y-26535676D01*
X68744973Y-26773167D01*
X68854278Y-27037053D01*
X68910000Y-27317186D01*
X68910000Y-27602814D01*
X68854278Y-27882947D01*
X68744973Y-28146833D01*
X68586287Y-28384324D01*
X68384324Y-28586287D01*
X68146833Y-28744973D01*
X67882947Y-28854278D01*
X67602814Y-28910000D01*
X67317186Y-28910000D01*
X67037053Y-28854278D01*
X66773167Y-28744973D01*
X66535676Y-28586287D01*
X66333713Y-28384324D01*
X66175027Y-28146833D01*
X66065722Y-27882947D01*
X66010000Y-27602814D01*
X66010000Y-27317186D01*
X66065722Y-27037053D01*
X66175027Y-26773167D01*
X66333713Y-26535676D01*
X66535676Y-26333713D01*
X66773167Y-26175027D01*
X67037053Y-26065722D01*
X67317186Y-26010000D01*
X67602814Y-26010000D01*
X67882947Y-26065722D01*
X67882947Y-26065722D01*
G37*
G36*
X72962947Y-26065722D02*
X73226833Y-26175027D01*
X73464324Y-26333713D01*
X73666287Y-26535676D01*
X73824973Y-26773167D01*
X73934278Y-27037053D01*
X73990000Y-27317186D01*
X73990000Y-27602814D01*
X73934278Y-27882947D01*
X73824973Y-28146833D01*
X73666287Y-28384324D01*
X73464324Y-28586287D01*
X73226833Y-28744973D01*
X72962947Y-28854278D01*
X72682814Y-28910000D01*
X72397186Y-28910000D01*
X72117053Y-28854278D01*
X71853167Y-28744973D01*
X71615676Y-28586287D01*
X71413713Y-28384324D01*
X71255027Y-28146833D01*
X71145722Y-27882947D01*
X71090000Y-27602814D01*
X71090000Y-27317186D01*
X71145722Y-27037053D01*
X71255027Y-26773167D01*
X71413713Y-26535676D01*
X71615676Y-26333713D01*
X71853167Y-26175027D01*
X72117053Y-26065722D01*
X72397186Y-26010000D01*
X72682814Y-26010000D01*
X72962947Y-26065722D01*
X72962947Y-26065722D01*
G37*
M02*
