G04 #@! TF.FileFunction,Soldermask,Top*
%FSLAX46Y46*%
G04 Gerber Fmt 4.6, Leading zero omitted, Abs format (unit mm)*
G04 Created by KiCad (PCBNEW 4.0.7) date 01/28/18 09:58:29*
%MOMM*%
%LPD*%
G01*
G04 APERTURE LIST*
%ADD10C,0.100000*%
%ADD11R,1.900000X5.480000*%
%ADD12C,3.400000*%
%ADD13C,2.400000*%
%ADD14C,2.700000*%
%ADD15C,2.900000*%
%ADD16O,2.597100X1.924000*%
%ADD17R,2.597100X1.924000*%
%ADD18C,7.400000*%
%ADD19R,2.400000X2.400000*%
%ADD20R,1.700000X1.900000*%
%ADD21R,3.000000X2.400000*%
%ADD22O,3.000000X2.400000*%
%ADD23C,0.254000*%
G04 APERTURE END LIST*
D10*
D11*
X45750000Y-77500000D03*
X54250000Y-77500000D03*
X74250000Y-72500000D03*
X65750000Y-72500000D03*
D12*
X106000000Y-55500000D03*
X94000000Y-55500000D03*
X94000000Y-43300000D03*
X106000000Y-43300000D03*
X100000000Y-41300000D03*
D13*
X103460000Y-89920000D03*
X108540000Y-89920000D03*
X103460000Y-95000000D03*
X108540000Y-95000000D03*
X103460000Y-97540000D03*
X103460000Y-100080000D03*
X108540000Y-100080000D03*
X108540000Y-97540000D03*
X79460000Y-89920000D03*
X84540000Y-89920000D03*
X79460000Y-95000000D03*
X84540000Y-95000000D03*
X79460000Y-97540000D03*
X79460000Y-100080000D03*
X84540000Y-100080000D03*
X84540000Y-97540000D03*
D12*
X56000000Y-55500000D03*
X44000000Y-55500000D03*
X44000000Y-43300000D03*
X56000000Y-43300000D03*
X50000000Y-41300000D03*
D13*
X91460000Y-89920000D03*
X96540000Y-89920000D03*
X91460000Y-95000000D03*
X96540000Y-95000000D03*
X91460000Y-97540000D03*
X91460000Y-100080000D03*
X96540000Y-100080000D03*
X96540000Y-97540000D03*
D12*
X81000000Y-55500000D03*
X69000000Y-55500000D03*
X69000000Y-43300000D03*
X81000000Y-43300000D03*
X75000000Y-41300000D03*
D13*
X63960000Y-90420000D03*
X69040000Y-90420000D03*
X63960000Y-95500000D03*
X69040000Y-95500000D03*
X63960000Y-98040000D03*
X63960000Y-100580000D03*
X69040000Y-100580000D03*
X69040000Y-98040000D03*
D14*
X75000000Y-120000000D03*
D15*
X77540000Y-117460000D03*
X72460000Y-117460000D03*
X72460000Y-122540000D03*
X77540000Y-122540000D03*
D14*
X40000000Y-70000000D03*
D15*
X42540000Y-67460000D03*
X37460000Y-67460000D03*
X37460000Y-72540000D03*
X42540000Y-72540000D03*
D14*
X90000000Y-120000000D03*
D15*
X92540000Y-117460000D03*
X87460000Y-117460000D03*
X87460000Y-122540000D03*
X92540000Y-122540000D03*
D14*
X70000000Y-30000000D03*
D15*
X72540000Y-27460000D03*
X67460000Y-27460000D03*
X67460000Y-32540000D03*
X72540000Y-32540000D03*
D14*
X70000000Y-70000000D03*
D15*
X72540000Y-67460000D03*
X67460000Y-67460000D03*
X67460000Y-72540000D03*
X72540000Y-72540000D03*
D14*
X105000000Y-120000000D03*
D15*
X107540000Y-117460000D03*
X102460000Y-117460000D03*
X102460000Y-122540000D03*
X107540000Y-122540000D03*
D14*
X60000000Y-120000000D03*
D15*
X62540000Y-117460000D03*
X57460000Y-117460000D03*
X57460000Y-122540000D03*
X62540000Y-122540000D03*
D14*
X100000000Y-80000000D03*
D15*
X102540000Y-77460000D03*
X97460000Y-77460000D03*
X97460000Y-82540000D03*
X102540000Y-82540000D03*
D14*
X100000000Y-70000000D03*
D15*
X102540000Y-67460000D03*
X97460000Y-67460000D03*
X97460000Y-72540000D03*
X102540000Y-72540000D03*
D16*
X34076200Y-49000000D03*
X34076200Y-54080000D03*
X34076200Y-51540000D03*
D17*
X34076200Y-43920000D03*
D16*
X34076200Y-46460000D03*
D14*
X72500000Y-80000000D03*
D15*
X75040000Y-77460000D03*
X69960000Y-77460000D03*
X69960000Y-82540000D03*
X75040000Y-82540000D03*
D18*
X115000000Y-70000000D03*
X25000000Y-70000000D03*
X25000000Y-120000000D03*
X115000000Y-120000000D03*
X115000000Y-80000000D03*
X25000000Y-80000000D03*
X25000000Y-30000000D03*
X115000000Y-30000000D03*
D19*
X74000000Y-95460000D03*
X74000000Y-100540000D03*
D20*
X75200000Y-98000000D03*
X72800000Y-98000000D03*
D19*
X62500000Y-42460000D03*
X62500000Y-47540000D03*
D20*
X63700000Y-45000000D03*
X61300000Y-45000000D03*
D19*
X88000000Y-95460000D03*
X88000000Y-100540000D03*
D20*
X89200000Y-98000000D03*
X86800000Y-98000000D03*
D19*
X87500000Y-42460000D03*
X87500000Y-47540000D03*
D20*
X88700000Y-45000000D03*
X86300000Y-45000000D03*
D19*
X100000000Y-95460000D03*
X100000000Y-100540000D03*
D20*
X101200000Y-98000000D03*
X98800000Y-98000000D03*
D19*
X112500000Y-42460000D03*
X112500000Y-47540000D03*
D20*
X113700000Y-45000000D03*
X111300000Y-45000000D03*
D19*
X58500000Y-95460000D03*
X58500000Y-100540000D03*
D20*
X59700000Y-98000000D03*
X57300000Y-98000000D03*
D11*
X44250000Y-72500000D03*
X35750000Y-72500000D03*
X79250000Y-122500000D03*
X70750000Y-122500000D03*
X95750000Y-77500000D03*
X104250000Y-77500000D03*
X94250000Y-122500000D03*
X85750000Y-122500000D03*
X104250000Y-72500000D03*
X95750000Y-72500000D03*
X109250000Y-122500000D03*
X100750000Y-122500000D03*
X64250000Y-122500000D03*
X55750000Y-122500000D03*
X65750000Y-27500000D03*
X74250000Y-27500000D03*
X68250000Y-77500000D03*
X76750000Y-77500000D03*
D14*
X50000000Y-80000000D03*
D15*
X52540000Y-77460000D03*
X47460000Y-77460000D03*
X47460000Y-82540000D03*
X52540000Y-82540000D03*
D21*
X28000000Y-90000000D03*
D22*
X28000000Y-92540000D03*
X28000000Y-95080000D03*
X28000000Y-97620000D03*
X28000000Y-100160000D03*
X28000000Y-102700000D03*
X28000000Y-105240000D03*
D11*
X48750000Y-122500000D03*
X40250000Y-122500000D03*
D14*
X44500000Y-120000000D03*
D15*
X47040000Y-117460000D03*
X41960000Y-117460000D03*
X41960000Y-122540000D03*
X47040000Y-122540000D03*
D19*
X42750000Y-95460000D03*
X42750000Y-100540000D03*
D20*
X43950000Y-98000000D03*
X41550000Y-98000000D03*
D13*
X47960000Y-90420000D03*
X53040000Y-90420000D03*
X47960000Y-95500000D03*
X53040000Y-95500000D03*
X47960000Y-98040000D03*
X47960000Y-100580000D03*
X53040000Y-100580000D03*
X53040000Y-98040000D03*
D23*
G36*
X119873000Y-124873000D02*
X20127000Y-124873000D01*
X20127000Y-80000000D01*
X24873000Y-80000000D01*
X24873000Y-120000000D01*
X24883006Y-120049410D01*
X24911447Y-120091035D01*
X24953841Y-120118315D01*
X25000000Y-120127000D01*
X115000000Y-120127000D01*
X115049410Y-120116994D01*
X115091035Y-120088553D01*
X115118315Y-120046159D01*
X115127000Y-120000000D01*
X115127000Y-80000000D01*
X115116994Y-79950590D01*
X115088553Y-79908965D01*
X115046159Y-79881685D01*
X115000000Y-79873000D01*
X25000000Y-79873000D01*
X24950590Y-79883006D01*
X24908965Y-79911447D01*
X24881685Y-79953841D01*
X24873000Y-80000000D01*
X20127000Y-80000000D01*
X20127000Y-30000000D01*
X24873000Y-30000000D01*
X24873000Y-70000000D01*
X24883006Y-70049410D01*
X24911447Y-70091035D01*
X24953841Y-70118315D01*
X25000000Y-70127000D01*
X115000000Y-70127000D01*
X115049410Y-70116994D01*
X115091035Y-70088553D01*
X115118315Y-70046159D01*
X115127000Y-70000000D01*
X115127000Y-30000000D01*
X115116994Y-29950590D01*
X115088553Y-29908965D01*
X115046159Y-29881685D01*
X115000000Y-29873000D01*
X25000000Y-29873000D01*
X24950590Y-29883006D01*
X24908965Y-29911447D01*
X24881685Y-29953841D01*
X24873000Y-30000000D01*
X20127000Y-30000000D01*
X20127000Y-25127000D01*
X119873000Y-25127000D01*
X119873000Y-124873000D01*
X119873000Y-124873000D01*
G37*
X119873000Y-124873000D02*
X20127000Y-124873000D01*
X20127000Y-80000000D01*
X24873000Y-80000000D01*
X24873000Y-120000000D01*
X24883006Y-120049410D01*
X24911447Y-120091035D01*
X24953841Y-120118315D01*
X25000000Y-120127000D01*
X115000000Y-120127000D01*
X115049410Y-120116994D01*
X115091035Y-120088553D01*
X115118315Y-120046159D01*
X115127000Y-120000000D01*
X115127000Y-80000000D01*
X115116994Y-79950590D01*
X115088553Y-79908965D01*
X115046159Y-79881685D01*
X115000000Y-79873000D01*
X25000000Y-79873000D01*
X24950590Y-79883006D01*
X24908965Y-79911447D01*
X24881685Y-79953841D01*
X24873000Y-80000000D01*
X20127000Y-80000000D01*
X20127000Y-30000000D01*
X24873000Y-30000000D01*
X24873000Y-70000000D01*
X24883006Y-70049410D01*
X24911447Y-70091035D01*
X24953841Y-70118315D01*
X25000000Y-70127000D01*
X115000000Y-70127000D01*
X115049410Y-70116994D01*
X115091035Y-70088553D01*
X115118315Y-70046159D01*
X115127000Y-70000000D01*
X115127000Y-30000000D01*
X115116994Y-29950590D01*
X115088553Y-29908965D01*
X115046159Y-29881685D01*
X115000000Y-29873000D01*
X25000000Y-29873000D01*
X24950590Y-29883006D01*
X24908965Y-29911447D01*
X24881685Y-29953841D01*
X24873000Y-30000000D01*
X20127000Y-30000000D01*
X20127000Y-25127000D01*
X119873000Y-25127000D01*
X119873000Y-124873000D01*
M02*
