M48
;DRILL file {KiCad 4.0.7} date 06/05/18 09:22:13
;FORMAT={3:3/ absolute / metric / suppress leading zeros}
FMAT,2
METRIC,TZ
T1C0.300
T2C0.400
T3C0.800
T4C1.016
T5C1.200
T6C1.350
T7C1.450
T8C1.500
T9C3.500
%
G90
G05
M71
T1
X21000Y-75000
X23000Y-75000
X25000Y-75000
X27000Y-75000
X29000Y-75000
X31000Y-75000
X33000Y-75000
X35000Y-75000
X37000Y-75000
X39000Y-75000
X41000Y-75000
X43000Y-75000
X45000Y-75000
X47000Y-75000
X49000Y-75000
X51000Y-75000
X53000Y-75000
X55000Y-75000
X57000Y-75000
X59000Y-75000
X61000Y-75000
X63000Y-75000
X65000Y-75000
X67000Y-75000
X69000Y-75000
X71000Y-75000
X73000Y-75000
X75000Y-75000
X77000Y-75000
X79000Y-75000
X81000Y-75000
X83000Y-75000
X85000Y-75000
X87000Y-75000
X89000Y-75000
X91000Y-75000
X93000Y-75000
X95000Y-75000
X97000Y-75000
X99000Y-75000
X101000Y-75000
X103000Y-75000
X105000Y-75000
X107000Y-75000
X109000Y-75000
X111000Y-75000
X113000Y-75000
X115000Y-75000
X117000Y-75000
X119000Y-75000
T2
X31250Y-95750
X31250Y-107500
X32500Y-98500
X32500Y-106250
X33700Y-101000
X33750Y-105050
X35000Y-93750
X35000Y-103750
X36000Y-89000
X36750Y-102500
X37000Y-58000
X37000Y-59000
X37000Y-60000
X37000Y-61000
X37000Y-62000
X37000Y-63000
X37000Y-64000
X37000Y-65000
X37000Y-90000
X37750Y-102500
X38000Y-53000
X38000Y-57000
X38000Y-91000
X38750Y-102500
X39000Y-53000
X39000Y-56000
X39000Y-92000
X39750Y-102500
X40000Y-53000
X40000Y-55000
X40000Y-93000
X40750Y-102500
X41000Y-53000
X41000Y-54000
X42000Y-50000
X42000Y-53000
X42000Y-102500
X42000Y-109000
X42000Y-110000
X42000Y-111000
X42000Y-112000
X42000Y-113000
X42000Y-114000
X42000Y-115000
X43000Y-53000
X43000Y-60000
X43000Y-61000
X43000Y-62000
X43000Y-63000
X43000Y-64000
X43000Y-65000
X43000Y-89500
X43000Y-90500
X43000Y-91500
X43000Y-92500
X43000Y-102500
X44000Y-47000
X44000Y-53000
X44000Y-59000
X44000Y-102500
X45000Y-47000
X45000Y-53000
X45000Y-58000
X45000Y-96500
X45000Y-102500
X46000Y-47000
X46000Y-51500
X46000Y-53000
X46000Y-57000
X46000Y-97500
X46000Y-98500
X46000Y-99500
X46000Y-100500
X46000Y-101500
X46000Y-102500
X47000Y-47000
X47000Y-53000
X47000Y-54000
X47000Y-55000
X47000Y-56000
X47000Y-109000
X47000Y-110000
X47000Y-111000
X47000Y-112000
X47000Y-113000
X47000Y-114000
X47000Y-115000
X48000Y-47000
X48000Y-53000
X49000Y-47000
X49000Y-53000
X50000Y-47000
X50000Y-53000
X51000Y-47000
X51000Y-53000
X51000Y-102500
X52000Y-47000
X52000Y-53000
X52000Y-102500
X52750Y-92250
X52750Y-93250
X53000Y-47000
X53000Y-53000
X53000Y-102500
X53750Y-92250
X53750Y-93250
X54000Y-47000
X54000Y-53000
X54000Y-102500
X55000Y-47000
X55000Y-53000
X55000Y-102500
X56000Y-47000
X56000Y-53000
X56000Y-102500
X56750Y-102500
X57000Y-47000
X57000Y-53000
X57750Y-89250
X57750Y-90250
X57750Y-91250
X57750Y-92250
X57750Y-93250
X58000Y-47000
X58000Y-53000
X58000Y-109000
X58000Y-110000
X58000Y-111000
X58000Y-112000
X58000Y-113000
X58000Y-114000
X58000Y-115000
X59000Y-47000
X59000Y-53000
X60000Y-53000
X61000Y-53000
X62000Y-53000
X62000Y-109000
X62000Y-110000
X62000Y-111000
X62000Y-112000
X62000Y-113000
X62000Y-114000
X62000Y-115000
X63000Y-53000
X64000Y-53000
X64500Y-102500
X65000Y-53000
X65500Y-102500
X66000Y-48000
X66000Y-53000
X66500Y-102500
X67000Y-48000
X67000Y-53000
X67000Y-54000
X67000Y-55000
X67000Y-56000
X67000Y-57000
X67000Y-58000
X67000Y-59000
X67000Y-60000
X67000Y-61000
X67000Y-62000
X67000Y-63000
X67000Y-64000
X67000Y-65000
X67500Y-102500
X68000Y-48000
X68000Y-53000
X68500Y-102500
X69000Y-48000
X69000Y-53000
X69500Y-102500
X70000Y-48000
X70000Y-53000
X70000Y-120000
X70500Y-102500
X70750Y-89000
X70750Y-90000
X70750Y-91000
X70750Y-92000
X70750Y-93000
X70750Y-94000
X70750Y-95000
X71000Y-48000
X71000Y-53000
X71000Y-54000
X71500Y-102500
X72000Y-48000
X72000Y-53000
X72000Y-55000
X72500Y-102500
X72540Y-32540
X73000Y-48000
X73000Y-53000
X73000Y-56000
X73000Y-57000
X73000Y-58000
X73000Y-59000
X73000Y-60000
X73000Y-61000
X73000Y-62000
X73000Y-63000
X73000Y-64000
X73000Y-65000
X73000Y-109000
X73000Y-110000
X73000Y-111000
X73000Y-112000
X73000Y-113000
X73000Y-114000
X73000Y-115000
X74000Y-48000
X74000Y-53000
X74250Y-89000
X74250Y-90000
X74250Y-91000
X74250Y-92000
X74250Y-93000
X75000Y-48000
X75000Y-53000
X76000Y-48000
X76000Y-53000
X77000Y-48000
X77000Y-53000
X77000Y-109000
X77000Y-110000
X77000Y-111000
X77000Y-112000
X77000Y-113000
X77000Y-114000
X77000Y-115000
X77500Y-93500
X77500Y-94500
X77500Y-95500
X77500Y-96500
X77500Y-97500
X77500Y-98500
X77500Y-99500
X78000Y-48000
X78000Y-53000
X79000Y-48000
X79000Y-53000
X79750Y-102500
X80000Y-48000
X80000Y-53000
X80750Y-102500
X81000Y-48000
X81000Y-53000
X81000Y-96000
X81500Y-93250
X81750Y-102500
X82000Y-48000
X82000Y-53000
X82000Y-96000
X82500Y-93250
X82750Y-102500
X83000Y-48000
X83000Y-53000
X83000Y-96000
X83500Y-93250
X83750Y-102500
X84000Y-47000
X84000Y-53000
X84500Y-93250
X84750Y-102500
X85000Y-46000
X85000Y-53000
X85000Y-120000
X85500Y-93250
X85750Y-102500
X86000Y-53000
X86500Y-93250
X86750Y-102500
X87000Y-53000
X88000Y-53000
X88000Y-109000
X88000Y-110000
X88000Y-111000
X88000Y-112000
X88000Y-113000
X88000Y-114000
X88000Y-115000
X89000Y-53000
X90000Y-49000
X90000Y-53000
X90750Y-93250
X91000Y-49000
X91000Y-53000
X91000Y-54000
X91000Y-55000
X91000Y-56000
X91750Y-93250
X91750Y-102500
X92000Y-49000
X92000Y-53000
X92000Y-57000
X92000Y-109000
X92000Y-110000
X92000Y-111000
X92000Y-112000
X92000Y-113000
X92000Y-114000
X92000Y-115000
X92750Y-93250
X92750Y-102500
X92750Y-103500
X92750Y-104500
X92750Y-105500
X93000Y-49000
X93000Y-53000
X93000Y-58000
X93000Y-96000
X93750Y-93250
X93750Y-102500
X94000Y-49000
X94000Y-53000
X94000Y-59000
X94000Y-96000
X94750Y-93250
X94750Y-102500
X95000Y-49000
X95000Y-53000
X95000Y-60000
X95000Y-96000
X95000Y-120000
X95750Y-93250
X95750Y-102500
X96000Y-49000
X96000Y-53000
X96000Y-61000
X96750Y-93250
X96750Y-102500
X97000Y-43000
X97000Y-49000
X97000Y-53000
X97000Y-54000
X97000Y-62000
X97000Y-63000
X97000Y-64000
X97000Y-65000
X97750Y-93250
X98000Y-44000
X98000Y-49000
X98000Y-53000
X98000Y-55000
X99000Y-44000
X99000Y-49000
X99000Y-53000
X99000Y-56000
X100000Y-49000
X100000Y-53000
X100000Y-57000
X101000Y-49000
X101000Y-53000
X101000Y-58000
X102000Y-49000
X102000Y-53000
X102000Y-59000
X102250Y-93250
X103000Y-49000
X103000Y-53000
X103000Y-60000
X103000Y-61000
X103000Y-62000
X103000Y-63000
X103000Y-64000
X103000Y-65000
X103000Y-103000
X103000Y-104000
X103000Y-105000
X103000Y-106000
X103000Y-107000
X103000Y-108000
X103000Y-109000
X103000Y-110000
X103000Y-111000
X103000Y-112000
X103000Y-113000
X103000Y-114000
X103000Y-115000
X103250Y-93250
X104000Y-49000
X104000Y-53000
X104250Y-93250
X105000Y-49000
X105000Y-53000
X105250Y-93250
X106000Y-49000
X106000Y-53000
X106250Y-93250
X107000Y-48000
X107000Y-53000
X107000Y-103000
X107000Y-104000
X107000Y-105000
X107000Y-106000
X107000Y-107000
X107000Y-108000
X107000Y-109000
X107000Y-110000
X107000Y-111000
X107000Y-112000
X107000Y-113000
X107000Y-114000
X107000Y-115000
X107250Y-93250
X108000Y-47000
X108000Y-53000
X108000Y-102000
X108250Y-93250
X109000Y-46000
X109000Y-53000
X109000Y-102000
X109250Y-93250
X110000Y-102000
X110250Y-93250
X111000Y-100000
X111000Y-101000
X111000Y-102000
T3
X24000Y-35000
X24000Y-37000
X24000Y-39000
X24000Y-41000
X24000Y-43000
X24000Y-45000
X24000Y-47000
X24000Y-49000
X24000Y-51000
X24000Y-53000
X24000Y-55000
X24000Y-57000
X24000Y-59000
X24000Y-61000
X24000Y-63000
X24000Y-86000
X24000Y-88000
X24000Y-90000
X24000Y-92000
X24000Y-94000
X24000Y-96000
X24000Y-98000
X24000Y-100000
X24000Y-102000
X24000Y-104000
X24000Y-106000
X24000Y-108000
X24000Y-110000
X24000Y-112000
X24000Y-114000
X28000Y-110000
X28000Y-112000
X28000Y-114000
X28000Y-116000
X30000Y-29000
X30000Y-31000
X30000Y-33000
X30000Y-58000
X30000Y-60000
X30000Y-62000
X30000Y-64000
X30000Y-66000
X30000Y-68000
X30000Y-70000
X30000Y-79000
X30000Y-81000
X30000Y-83000
X30000Y-110000
X30000Y-112000
X30000Y-114000
X30000Y-116000
X30000Y-118000
X30000Y-120000
X30000Y-122000
X32000Y-29000
X32000Y-33000
X32000Y-58000
X32000Y-70000
X32000Y-79000
X32000Y-83000
X32000Y-110000
X32000Y-122000
X34000Y-29000
X34000Y-33000
X34000Y-58000
X34000Y-60000
X34000Y-62000
X34000Y-64000
X34000Y-66000
X34000Y-68000
X34000Y-70000
X34000Y-79000
X34000Y-83000
X34000Y-110000
X34000Y-122000
X36000Y-29000
X36000Y-33000
X36000Y-79000
X36000Y-83000
X36000Y-110000
X36000Y-122000
X38000Y-29000
X38000Y-33000
X38000Y-79000
X38000Y-83000
X38000Y-110000
X38000Y-122000
X40000Y-29000
X40000Y-33000
X40000Y-79000
X40000Y-83000
X40000Y-110000
X40000Y-112000
X40000Y-114000
X40000Y-116000
X40000Y-118000
X40000Y-120000
X40000Y-122000
X42000Y-29000
X42000Y-33000
X42000Y-79000
X42000Y-83000
X44000Y-29000
X44000Y-33000
X44000Y-79000
X44000Y-81000
X44000Y-83000
X46000Y-29000
X46000Y-33000
X46000Y-64000
X46000Y-66000
X46000Y-68000
X46000Y-70000
X47960Y-90420
X47960Y-95500
X47960Y-98040
X47960Y-100580
X48000Y-29000
X48000Y-33000
X48000Y-64000
X48000Y-70000
X50000Y-29000
X50000Y-33000
X50000Y-64000
X50000Y-70000
X50000Y-110000
X50000Y-112000
X50000Y-114000
X50000Y-116000
X50000Y-118000
X50000Y-120000
X50000Y-122000
X52000Y-29000
X52000Y-33000
X52000Y-64000
X52000Y-70000
X52000Y-110000
X52000Y-122000
X53040Y-90420
X53040Y-95500
X53040Y-98040
X53040Y-100580
X54000Y-29000
X54000Y-33000
X54000Y-64000
X54000Y-70000
X54000Y-110000
X54000Y-112000
X54000Y-114000
X54000Y-116000
X54000Y-118000
X54000Y-120000
X54000Y-122000
X56000Y-29000
X56000Y-33000
X56000Y-64000
X56000Y-70000
X56000Y-79000
X56000Y-81000
X56000Y-83000
X58000Y-29000
X58000Y-33000
X58000Y-64000
X58000Y-70000
X58000Y-79000
X58000Y-83000
X60000Y-29000
X60000Y-33000
X60000Y-64000
X60000Y-70000
X60000Y-79000
X60000Y-83000
X62000Y-29000
X62000Y-33000
X62000Y-64000
X62000Y-70000
X62000Y-79000
X62000Y-83000
X63960Y-90420
X63960Y-95500
X63960Y-98040
X63960Y-100580
X64000Y-29000
X64000Y-31000
X64000Y-33000
X64000Y-64000
X64000Y-66000
X64000Y-68000
X64000Y-70000
X64000Y-79000
X64000Y-83000
X66000Y-79000
X66000Y-81000
X66000Y-83000
X66000Y-110000
X66000Y-112000
X66000Y-114000
X66000Y-116000
X66000Y-118000
X66000Y-120000
X66000Y-122000
X68000Y-110000
X68000Y-122000
X69040Y-90420
X69040Y-95500
X69040Y-98040
X69040Y-100580
X70000Y-110000
X70000Y-112000
X70000Y-114000
X70000Y-116000
X70000Y-118000
X70000Y-120000
X70000Y-122000
X76000Y-29000
X76000Y-31000
X76000Y-33000
X76000Y-64000
X76000Y-66000
X76000Y-68000
X76000Y-70000
X78000Y-29000
X78000Y-33000
X78000Y-64000
X78000Y-70000
X78000Y-79000
X78000Y-81000
X78000Y-83000
X79460Y-89920
X79460Y-95000
X79460Y-97540
X79460Y-100080
X80000Y-29000
X80000Y-33000
X80000Y-64000
X80000Y-70000
X80000Y-79000
X80000Y-81000
X80000Y-83000
X81000Y-110000
X81000Y-112000
X81000Y-114000
X81000Y-116000
X81000Y-118000
X81000Y-120000
X81000Y-122000
X82000Y-29000
X82000Y-33000
X82000Y-64000
X82000Y-70000
X83000Y-110000
X83000Y-122000
X84000Y-29000
X84000Y-33000
X84000Y-64000
X84000Y-70000
X84540Y-89920
X84540Y-95000
X84540Y-97540
X84540Y-100080
X85000Y-110000
X85000Y-112000
X85000Y-114000
X85000Y-116000
X85000Y-118000
X85000Y-120000
X85000Y-122000
X86000Y-29000
X86000Y-33000
X86000Y-64000
X86000Y-70000
X88000Y-29000
X88000Y-33000
X88000Y-64000
X88000Y-70000
X90000Y-29000
X90000Y-33000
X90000Y-64000
X90000Y-70000
X91460Y-89920
X91460Y-95000
X91460Y-97540
X91460Y-100080
X92000Y-29000
X92000Y-33000
X92000Y-64000
X92000Y-70000
X94000Y-29000
X94000Y-33000
X94000Y-64000
X94000Y-66000
X94000Y-68000
X94000Y-70000
X95000Y-110000
X95000Y-112000
X95000Y-114000
X95000Y-116000
X95000Y-118000
X95000Y-120000
X95000Y-122000
X96000Y-29000
X96000Y-33000
X96540Y-89920
X96540Y-95000
X96540Y-97540
X96540Y-100080
X97000Y-110000
X97000Y-122000
X98000Y-29000
X98000Y-33000
X99000Y-110000
X99000Y-112000
X99000Y-114000
X99000Y-116000
X99000Y-118000
X99000Y-120000
X99000Y-122000
X100000Y-29000
X100000Y-33000
X102000Y-29000
X102000Y-33000
X103460Y-89920
X103460Y-95000
X103460Y-97540
X103460Y-100080
X104000Y-29000
X104000Y-33000
X106000Y-29000
X106000Y-33000
X106000Y-60000
X106000Y-62000
X106000Y-64000
X106000Y-66000
X106000Y-68000
X106000Y-70000
X106000Y-79000
X106000Y-81000
X106000Y-83000
X108000Y-29000
X108000Y-33000
X108000Y-60000
X108000Y-70000
X108000Y-79000
X108000Y-83000
X108540Y-89920
X108540Y-95000
X108540Y-97540
X108540Y-100080
X110000Y-29000
X110000Y-31000
X110000Y-33000
X110000Y-60000
X110000Y-62000
X110000Y-64000
X110000Y-66000
X110000Y-68000
X110000Y-70000
X110000Y-79000
X110000Y-81000
X110000Y-83000
X116000Y-36000
X116000Y-38000
X116000Y-40000
X116000Y-42000
X116000Y-44000
X116000Y-46000
X116000Y-48000
X116000Y-50000
X116000Y-52000
X116000Y-54000
X116000Y-56000
X116000Y-58000
X116000Y-60000
X116000Y-62000
X116000Y-64000
X116000Y-86000
X116000Y-88000
X116000Y-90000
X116000Y-92000
X116000Y-94000
X116000Y-96000
X116000Y-98000
X116000Y-100000
X116000Y-102000
X116000Y-104000
X116000Y-106000
X116000Y-108000
X116000Y-110000
X116000Y-112000
X116000Y-114000
T4
X34076Y-43920
X34076Y-46460
X34076Y-49000
X34076Y-51540
X34076Y-54080
T5
X28000Y-90000
X28000Y-92540
X28000Y-95080
X28000Y-97620
X28000Y-100160
X28000Y-102700
X28000Y-105240
T6
X40000Y-70000
X44500Y-120000
X50000Y-80000
X60000Y-120000
X70000Y-30000
X70000Y-70000
X72500Y-80000
X75000Y-120000
X86500Y-80000
X90000Y-120000
X100000Y-70000
X100000Y-80000
X105000Y-120000
T7
X37460Y-67460
X37460Y-72540
X41960Y-117460
X41960Y-122540
X42540Y-67460
X42540Y-72540
X47040Y-117460
X47040Y-122540
X47460Y-77460
X47460Y-82540
X52540Y-77460
X52540Y-82540
X57460Y-117460
X57460Y-122540
X62540Y-117460
X62540Y-122540
X67460Y-27460
X67460Y-32540
X67460Y-67460
X67460Y-72540
X69960Y-77460
X69960Y-82540
X72460Y-117460
X72460Y-122540
X72540Y-27460
X72540Y-32540
X72540Y-67460
X72540Y-72540
X75040Y-77460
X75040Y-82540
X77540Y-117460
X77540Y-122540
X83960Y-77460
X83960Y-82540
X87460Y-117460
X87460Y-122540
X89040Y-77460
X89040Y-82540
X92540Y-117460
X92540Y-122540
X97460Y-67460
X97460Y-72540
X97460Y-77460
X97460Y-82540
X102460Y-117460
X102460Y-122540
X102540Y-67460
X102540Y-72540
X102540Y-77460
X102540Y-82540
X107540Y-117460
X107540Y-122540
T8
X44000Y-43300
X44000Y-55500
X50000Y-41300
X56000Y-43300
X56000Y-55500
X69000Y-43300
X69000Y-55500
X75000Y-41300
X81000Y-43300
X81000Y-55500
X94000Y-43300
X94000Y-55500
X100000Y-41300
X106000Y-43300
X106000Y-55500
T9
X25000Y-30000
X25000Y-70000
X25000Y-80000
X25000Y-120000
X115000Y-30000
X115000Y-70000
X115000Y-80000
X115000Y-120000
T0
M30
