M48
;DRILL file {KiCad 4.0.7} date 01/07/18 08:54:27
;FORMAT={3:3/ absolute / metric / suppress leading zeros}
FMAT,2
METRIC,TZ
T1C0.300
T2C0.400
T3C0.800
T4C1.016
T5C1.350
T6C1.450
T7C1.500
T8C3.500
%
G90
G05
M71
T1
X21000Y-35000
X21000Y-36000
X21000Y-37000
X21000Y-38000
X21000Y-39000
X21000Y-40000
X21000Y-41000
X21000Y-42000
X21000Y-43000
X21000Y-44000
X21000Y-45000
X21000Y-46000
X21000Y-47000
X21000Y-48000
X21000Y-49000
X21000Y-50000
X21000Y-51000
X21000Y-52000
X21000Y-53000
X21000Y-54000
X21000Y-55000
X21000Y-56000
X21000Y-57000
X21000Y-58000
X21000Y-59000
X21000Y-60000
X21000Y-61000
X21000Y-62000
X21000Y-63000
X21000Y-64000
X21000Y-65000
X21000Y-85000
X21000Y-86000
X21000Y-87000
X21000Y-88000
X21000Y-89000
X21000Y-90000
X21000Y-91000
X21000Y-92000
X21000Y-93000
X21000Y-94000
X21000Y-95000
X21000Y-96000
X21000Y-97000
X21000Y-98000
X21000Y-99000
X21000Y-100000
X21000Y-101000
X21000Y-102000
X21000Y-103000
X21000Y-104000
X21000Y-105000
X21000Y-106000
X21000Y-107000
X21000Y-108000
X21000Y-109000
X21000Y-110000
X21000Y-111000
X21000Y-112000
X21000Y-113000
X21000Y-114000
X21000Y-115000
X22000Y-35000
X22000Y-36000
X22000Y-37000
X22000Y-38000
X22000Y-39000
X22000Y-40000
X22000Y-41000
X22000Y-42000
X22000Y-43000
X22000Y-44000
X22000Y-45000
X22000Y-46000
X22000Y-47000
X22000Y-48000
X22000Y-49000
X22000Y-50000
X22000Y-51000
X22000Y-52000
X22000Y-53000
X22000Y-54000
X22000Y-55000
X22000Y-56000
X22000Y-57000
X22000Y-58000
X22000Y-59000
X22000Y-60000
X22000Y-61000
X22000Y-62000
X22000Y-63000
X22000Y-64000
X22000Y-65000
X22000Y-85000
X22000Y-86000
X22000Y-87000
X22000Y-88000
X22000Y-89000
X22000Y-90000
X22000Y-91000
X22000Y-92000
X22000Y-93000
X22000Y-94000
X22000Y-95000
X22000Y-96000
X22000Y-97000
X22000Y-98000
X22000Y-99000
X22000Y-100000
X22000Y-101000
X22000Y-102000
X22000Y-103000
X22000Y-104000
X22000Y-105000
X22000Y-106000
X22000Y-107000
X22000Y-108000
X22000Y-109000
X22000Y-110000
X22000Y-111000
X22000Y-112000
X22000Y-113000
X22000Y-114000
X22000Y-115000
X23000Y-35000
X23000Y-36000
X23000Y-37000
X23000Y-38000
X23000Y-39000
X23000Y-40000
X23000Y-41000
X23000Y-42000
X23000Y-43000
X23000Y-44000
X23000Y-45000
X23000Y-46000
X23000Y-47000
X23000Y-48000
X23000Y-49000
X23000Y-50000
X23000Y-51000
X23000Y-52000
X23000Y-53000
X23000Y-54000
X23000Y-55000
X23000Y-56000
X23000Y-57000
X23000Y-58000
X23000Y-59000
X23000Y-60000
X23000Y-61000
X23000Y-62000
X23000Y-63000
X23000Y-64000
X23000Y-65000
X23000Y-85000
X23000Y-86000
X23000Y-87000
X23000Y-88000
X23000Y-89000
X23000Y-90000
X23000Y-91000
X23000Y-92000
X23000Y-93000
X23000Y-94000
X23000Y-95000
X23000Y-96000
X23000Y-97000
X23000Y-98000
X23000Y-99000
X23000Y-100000
X23000Y-101000
X23000Y-102000
X23000Y-103000
X23000Y-104000
X23000Y-105000
X23000Y-106000
X23000Y-107000
X23000Y-108000
X23000Y-109000
X23000Y-110000
X23000Y-111000
X23000Y-112000
X23000Y-113000
X23000Y-114000
X23000Y-115000
X24000Y-35000
X24000Y-36000
X24000Y-37000
X24000Y-38000
X24000Y-39000
X24000Y-40000
X24000Y-41000
X24000Y-42000
X24000Y-43000
X24000Y-44000
X24000Y-45000
X24000Y-46000
X24000Y-47000
X24000Y-48000
X24000Y-49000
X24000Y-50000
X24000Y-51000
X24000Y-52000
X24000Y-53000
X24000Y-54000
X24000Y-55000
X24000Y-56000
X24000Y-57000
X24000Y-58000
X24000Y-59000
X24000Y-60000
X24000Y-61000
X24000Y-62000
X24000Y-63000
X24000Y-64000
X24000Y-65000
X24000Y-85000
X24000Y-86000
X24000Y-87000
X24000Y-88000
X24000Y-89000
X24000Y-90000
X24000Y-91000
X24000Y-92000
X24000Y-93000
X24000Y-94000
X24000Y-95000
X24000Y-96000
X24000Y-97000
X24000Y-98000
X24000Y-99000
X24000Y-100000
X24000Y-101000
X24000Y-102000
X24000Y-103000
X24000Y-104000
X24000Y-105000
X24000Y-106000
X24000Y-107000
X24000Y-108000
X24000Y-109000
X24000Y-110000
X24000Y-111000
X24000Y-112000
X24000Y-113000
X24000Y-114000
X24000Y-115000
X25000Y-109000
X25000Y-110000
X25000Y-111000
X25000Y-112000
X25000Y-113000
X25000Y-114000
X25000Y-115000
X26000Y-109000
X26000Y-110000
X26000Y-111000
X26000Y-112000
X26000Y-113000
X26000Y-114000
X26000Y-115000
X27000Y-109000
X27000Y-110000
X27000Y-114000
X27000Y-115000
X28000Y-109000
X28000Y-110000
X28000Y-114000
X28000Y-115000
X29000Y-109000
X29000Y-110000
X29000Y-114000
X29000Y-115000
X30000Y-26000
X30000Y-27000
X30000Y-28000
X30000Y-29000
X30000Y-71000
X30000Y-72000
X30000Y-73000
X30000Y-74000
X30000Y-76000
X30000Y-77000
X30000Y-78000
X30000Y-79000
X30000Y-109000
X30000Y-110000
X30000Y-114000
X30000Y-115000
X31000Y-26000
X31000Y-27000
X31000Y-28000
X31000Y-29000
X31000Y-71000
X31000Y-72000
X31000Y-73000
X31000Y-74000
X31000Y-76000
X31000Y-77000
X31000Y-78000
X31000Y-79000
X31000Y-109000
X31000Y-110000
X31000Y-114000
X31000Y-115000
X32000Y-26000
X32000Y-27000
X32000Y-28000
X32000Y-29000
X32000Y-71000
X32000Y-72000
X32000Y-73000
X32000Y-74000
X32000Y-76000
X32000Y-77000
X32000Y-78000
X32000Y-79000
X32000Y-109000
X32000Y-110000
X32000Y-114000
X32000Y-115000
X33000Y-26000
X33000Y-27000
X33000Y-28000
X33000Y-29000
X33000Y-71000
X33000Y-72000
X33000Y-73000
X33000Y-74000
X33000Y-76000
X33000Y-77000
X33000Y-78000
X33000Y-79000
X33000Y-109000
X33000Y-110000
X33000Y-114000
X33000Y-115000
X34000Y-26000
X34000Y-27000
X34000Y-28000
X34000Y-29000
X34000Y-71000
X34000Y-72000
X34000Y-73000
X34000Y-74000
X34000Y-76000
X34000Y-77000
X34000Y-78000
X34000Y-79000
X34000Y-109000
X34000Y-110000
X34000Y-114000
X34000Y-115000
X35000Y-26000
X35000Y-27000
X35000Y-28000
X35000Y-29000
X35000Y-76000
X35000Y-77000
X35000Y-78000
X35000Y-79000
X35000Y-109000
X35000Y-110000
X35000Y-114000
X35000Y-115000
X36000Y-26000
X36000Y-27000
X36000Y-28000
X36000Y-29000
X36000Y-76000
X36000Y-77000
X36000Y-78000
X36000Y-79000
X36000Y-109000
X36000Y-110000
X36000Y-114000
X36000Y-115000
X37000Y-26000
X37000Y-27000
X37000Y-28000
X37000Y-29000
X37000Y-76000
X37000Y-77000
X37000Y-78000
X37000Y-79000
X37000Y-109000
X37000Y-110000
X37000Y-114000
X37000Y-115000
X38000Y-26000
X38000Y-27000
X38000Y-28000
X38000Y-29000
X38000Y-76000
X38000Y-77000
X38000Y-78000
X38000Y-79000
X38000Y-109000
X38000Y-110000
X38000Y-114000
X38000Y-115000
X39000Y-26000
X39000Y-27000
X39000Y-28000
X39000Y-29000
X39000Y-76000
X39000Y-77000
X39000Y-78000
X39000Y-79000
X39000Y-109000
X39000Y-110000
X39000Y-114000
X39000Y-115000
X40000Y-26000
X40000Y-27000
X40000Y-28000
X40000Y-29000
X40000Y-76000
X40000Y-77000
X40000Y-78000
X40000Y-79000
X40000Y-109000
X40000Y-110000
X40000Y-114000
X40000Y-115000
X41000Y-26000
X41000Y-27000
X41000Y-28000
X41000Y-29000
X41000Y-76000
X41000Y-77000
X41000Y-78000
X41000Y-79000
X41000Y-109000
X41000Y-110000
X41000Y-114000
X41000Y-115000
X42000Y-26000
X42000Y-27000
X42000Y-28000
X42000Y-29000
X42000Y-109000
X42000Y-110000
X42000Y-111000
X42000Y-112000
X42000Y-113000
X42000Y-114000
X42000Y-115000
X43000Y-26000
X43000Y-27000
X43000Y-28000
X43000Y-29000
X43000Y-109000
X43000Y-110000
X43000Y-111000
X43000Y-112000
X43000Y-113000
X43000Y-114000
X43000Y-115000
X44000Y-26000
X44000Y-27000
X44000Y-28000
X44000Y-29000
X45000Y-26000
X45000Y-27000
X45000Y-28000
X45000Y-29000
X46000Y-26000
X46000Y-27000
X46000Y-28000
X46000Y-29000
X46000Y-71000
X46000Y-72000
X46000Y-73000
X46000Y-74000
X47000Y-26000
X47000Y-27000
X47000Y-28000
X47000Y-29000
X47000Y-71000
X47000Y-72000
X47000Y-73000
X47000Y-74000
X47000Y-109000
X47000Y-110000
X47000Y-111000
X47000Y-112000
X47000Y-113000
X47000Y-114000
X47000Y-115000
X48000Y-26000
X48000Y-27000
X48000Y-28000
X48000Y-29000
X48000Y-71000
X48000Y-72000
X48000Y-73000
X48000Y-74000
X48000Y-109000
X48000Y-110000
X48000Y-111000
X48000Y-112000
X48000Y-113000
X48000Y-114000
X48000Y-115000
X49000Y-26000
X49000Y-27000
X49000Y-28000
X49000Y-29000
X49000Y-71000
X49000Y-72000
X49000Y-73000
X49000Y-74000
X49000Y-109000
X49000Y-110000
X49000Y-114000
X49000Y-115000
X50000Y-26000
X50000Y-27000
X50000Y-28000
X50000Y-29000
X50000Y-71000
X50000Y-72000
X50000Y-73000
X50000Y-74000
X50000Y-109000
X50000Y-110000
X50000Y-114000
X50000Y-115000
X51000Y-26000
X51000Y-27000
X51000Y-28000
X51000Y-29000
X51000Y-71000
X51000Y-72000
X51000Y-73000
X51000Y-74000
X51000Y-109000
X51000Y-110000
X51000Y-114000
X51000Y-115000
X52000Y-26000
X52000Y-27000
X52000Y-28000
X52000Y-29000
X52000Y-71000
X52000Y-72000
X52000Y-73000
X52000Y-74000
X52000Y-109000
X52000Y-110000
X52000Y-114000
X52000Y-115000
X53000Y-26000
X53000Y-27000
X53000Y-28000
X53000Y-29000
X53000Y-71000
X53000Y-72000
X53000Y-73000
X53000Y-74000
X53000Y-76000
X53000Y-77000
X53000Y-78000
X53000Y-79000
X53000Y-109000
X53000Y-110000
X53000Y-114000
X53000Y-115000
X54000Y-26000
X54000Y-27000
X54000Y-28000
X54000Y-29000
X54000Y-71000
X54000Y-72000
X54000Y-73000
X54000Y-74000
X54000Y-76000
X54000Y-77000
X54000Y-78000
X54000Y-79000
X54000Y-109000
X54000Y-110000
X54000Y-114000
X54000Y-115000
X55000Y-26000
X55000Y-27000
X55000Y-28000
X55000Y-29000
X55000Y-71000
X55000Y-72000
X55000Y-73000
X55000Y-74000
X55000Y-76000
X55000Y-77000
X55000Y-78000
X55000Y-79000
X55000Y-109000
X55000Y-110000
X55000Y-114000
X55000Y-115000
X56000Y-26000
X56000Y-27000
X56000Y-28000
X56000Y-29000
X56000Y-71000
X56000Y-72000
X56000Y-73000
X56000Y-74000
X56000Y-76000
X56000Y-77000
X56000Y-78000
X56000Y-79000
X56000Y-109000
X56000Y-110000
X56000Y-114000
X56000Y-115000
X57000Y-26000
X57000Y-27000
X57000Y-28000
X57000Y-29000
X57000Y-71000
X57000Y-72000
X57000Y-73000
X57000Y-74000
X57000Y-76000
X57000Y-77000
X57000Y-78000
X57000Y-79000
X57000Y-109000
X57000Y-110000
X57000Y-111000
X57000Y-112000
X57000Y-113000
X57000Y-114000
X57000Y-115000
X58000Y-26000
X58000Y-27000
X58000Y-28000
X58000Y-29000
X58000Y-71000
X58000Y-72000
X58000Y-73000
X58000Y-74000
X58000Y-109000
X58000Y-110000
X58000Y-111000
X58000Y-112000
X58000Y-113000
X58000Y-114000
X58000Y-115000
X59000Y-26000
X59000Y-27000
X59000Y-28000
X59000Y-29000
X59000Y-71000
X59000Y-72000
X59000Y-73000
X59000Y-74000
X60000Y-26000
X60000Y-27000
X60000Y-28000
X60000Y-29000
X60000Y-71000
X60000Y-72000
X60000Y-73000
X60000Y-74000
X61000Y-26000
X61000Y-27000
X61000Y-28000
X61000Y-29000
X61000Y-71000
X61000Y-72000
X61000Y-73000
X61000Y-74000
X62000Y-26000
X62000Y-27000
X62000Y-28000
X62000Y-29000
X62000Y-71000
X62000Y-72000
X62000Y-73000
X62000Y-74000
X62000Y-109000
X62000Y-110000
X62000Y-111000
X62000Y-112000
X62000Y-113000
X62000Y-114000
X62000Y-115000
X63000Y-26000
X63000Y-27000
X63000Y-28000
X63000Y-29000
X63000Y-71000
X63000Y-72000
X63000Y-73000
X63000Y-74000
X63000Y-109000
X63000Y-110000
X63000Y-111000
X63000Y-112000
X63000Y-113000
X63000Y-114000
X63000Y-115000
X64000Y-26000
X64000Y-27000
X64000Y-28000
X64000Y-29000
X64000Y-71000
X64000Y-72000
X64000Y-73000
X64000Y-74000
X64000Y-109000
X64000Y-110000
X64000Y-114000
X64000Y-115000
X65000Y-109000
X65000Y-110000
X65000Y-114000
X65000Y-115000
X66000Y-109000
X66000Y-110000
X66000Y-114000
X66000Y-115000
X67000Y-109000
X67000Y-110000
X67000Y-114000
X67000Y-115000
X68000Y-109000
X68000Y-110000
X68000Y-114000
X68000Y-115000
X69000Y-76000
X69000Y-77000
X69000Y-78000
X69000Y-79000
X69000Y-109000
X69000Y-110000
X69000Y-114000
X69000Y-115000
X70000Y-76000
X70000Y-77000
X70000Y-78000
X70000Y-79000
X70000Y-109000
X70000Y-110000
X70000Y-114000
X70000Y-115000
X71000Y-76000
X71000Y-77000
X71000Y-78000
X71000Y-79000
X71000Y-109000
X71000Y-110000
X71000Y-114000
X71000Y-115000
X72000Y-76000
X72000Y-77000
X72000Y-78000
X72000Y-79000
X72000Y-109000
X72000Y-110000
X72000Y-111000
X72000Y-112000
X72000Y-113000
X72000Y-114000
X72000Y-115000
X73000Y-109000
X73000Y-110000
X73000Y-111000
X73000Y-112000
X73000Y-113000
X73000Y-114000
X73000Y-115000
X76000Y-26000
X76000Y-27000
X76000Y-28000
X76000Y-29000
X76000Y-71000
X76000Y-72000
X76000Y-73000
X76000Y-74000
X77000Y-26000
X77000Y-27000
X77000Y-28000
X77000Y-29000
X77000Y-71000
X77000Y-72000
X77000Y-73000
X77000Y-74000
X77000Y-109000
X77000Y-110000
X77000Y-111000
X77000Y-112000
X77000Y-113000
X77000Y-114000
X77000Y-115000
X78000Y-26000
X78000Y-27000
X78000Y-28000
X78000Y-29000
X78000Y-71000
X78000Y-72000
X78000Y-73000
X78000Y-74000
X78000Y-109000
X78000Y-110000
X78000Y-111000
X78000Y-112000
X78000Y-113000
X78000Y-114000
X78000Y-115000
X79000Y-26000
X79000Y-27000
X79000Y-28000
X79000Y-29000
X79000Y-71000
X79000Y-72000
X79000Y-73000
X79000Y-74000
X79000Y-109000
X79000Y-110000
X79000Y-114000
X79000Y-115000
X80000Y-26000
X80000Y-27000
X80000Y-28000
X80000Y-29000
X80000Y-71000
X80000Y-72000
X80000Y-73000
X80000Y-74000
X80000Y-109000
X80000Y-110000
X80000Y-114000
X80000Y-115000
X81000Y-26000
X81000Y-27000
X81000Y-28000
X81000Y-29000
X81000Y-71000
X81000Y-72000
X81000Y-73000
X81000Y-74000
X81000Y-109000
X81000Y-110000
X81000Y-114000
X81000Y-115000
X82000Y-26000
X82000Y-27000
X82000Y-28000
X82000Y-29000
X82000Y-71000
X82000Y-72000
X82000Y-73000
X82000Y-74000
X82000Y-109000
X82000Y-110000
X82000Y-114000
X82000Y-115000
X83000Y-26000
X83000Y-27000
X83000Y-28000
X83000Y-29000
X83000Y-71000
X83000Y-72000
X83000Y-73000
X83000Y-74000
X83000Y-109000
X83000Y-110000
X83000Y-114000
X83000Y-115000
X84000Y-26000
X84000Y-27000
X84000Y-28000
X84000Y-29000
X84000Y-71000
X84000Y-72000
X84000Y-73000
X84000Y-74000
X84000Y-76000
X84000Y-77000
X84000Y-78000
X84000Y-79000
X84000Y-109000
X84000Y-110000
X84000Y-114000
X84000Y-115000
X85000Y-26000
X85000Y-27000
X85000Y-28000
X85000Y-29000
X85000Y-71000
X85000Y-72000
X85000Y-73000
X85000Y-74000
X85000Y-76000
X85000Y-77000
X85000Y-78000
X85000Y-79000
X85000Y-109000
X85000Y-110000
X85000Y-114000
X85000Y-115000
X86000Y-26000
X86000Y-27000
X86000Y-28000
X86000Y-29000
X86000Y-71000
X86000Y-72000
X86000Y-73000
X86000Y-74000
X86000Y-76000
X86000Y-77000
X86000Y-78000
X86000Y-79000
X86000Y-109000
X86000Y-110000
X86000Y-114000
X86000Y-115000
X87000Y-26000
X87000Y-27000
X87000Y-28000
X87000Y-29000
X87000Y-71000
X87000Y-72000
X87000Y-73000
X87000Y-74000
X87000Y-76000
X87000Y-77000
X87000Y-78000
X87000Y-79000
X87000Y-109000
X87000Y-110000
X87000Y-111000
X87000Y-112000
X87000Y-113000
X87000Y-114000
X87000Y-115000
X88000Y-26000
X88000Y-27000
X88000Y-28000
X88000Y-29000
X88000Y-71000
X88000Y-72000
X88000Y-73000
X88000Y-74000
X88000Y-76000
X88000Y-77000
X88000Y-78000
X88000Y-79000
X88000Y-109000
X88000Y-110000
X88000Y-111000
X88000Y-112000
X88000Y-113000
X88000Y-114000
X88000Y-115000
X89000Y-26000
X89000Y-27000
X89000Y-28000
X89000Y-29000
X89000Y-71000
X89000Y-72000
X89000Y-73000
X89000Y-74000
X89000Y-76000
X89000Y-77000
X89000Y-78000
X89000Y-79000
X90000Y-26000
X90000Y-27000
X90000Y-28000
X90000Y-29000
X90000Y-71000
X90000Y-72000
X90000Y-73000
X90000Y-74000
X90000Y-76000
X90000Y-77000
X90000Y-78000
X90000Y-79000
X91000Y-26000
X91000Y-27000
X91000Y-28000
X91000Y-29000
X91000Y-71000
X91000Y-72000
X91000Y-73000
X91000Y-74000
X91000Y-76000
X91000Y-77000
X91000Y-78000
X91000Y-79000
X92000Y-26000
X92000Y-27000
X92000Y-28000
X92000Y-29000
X92000Y-71000
X92000Y-72000
X92000Y-73000
X92000Y-74000
X92000Y-76000
X92000Y-77000
X92000Y-78000
X92000Y-79000
X92000Y-109000
X92000Y-110000
X92000Y-111000
X92000Y-112000
X92000Y-113000
X92000Y-114000
X92000Y-115000
X93000Y-26000
X93000Y-27000
X93000Y-28000
X93000Y-29000
X93000Y-71000
X93000Y-72000
X93000Y-73000
X93000Y-74000
X93000Y-76000
X93000Y-77000
X93000Y-78000
X93000Y-79000
X93000Y-109000
X93000Y-110000
X93000Y-111000
X93000Y-112000
X93000Y-113000
X93000Y-114000
X93000Y-115000
X94000Y-26000
X94000Y-27000
X94000Y-28000
X94000Y-29000
X94000Y-71000
X94000Y-72000
X94000Y-73000
X94000Y-74000
X94000Y-76000
X94000Y-77000
X94000Y-78000
X94000Y-79000
X94000Y-109000
X94000Y-110000
X94000Y-114000
X94000Y-115000
X95000Y-26000
X95000Y-27000
X95000Y-28000
X95000Y-29000
X95000Y-109000
X95000Y-110000
X95000Y-114000
X95000Y-115000
X96000Y-26000
X96000Y-27000
X96000Y-28000
X96000Y-29000
X96000Y-109000
X96000Y-110000
X96000Y-114000
X96000Y-115000
X97000Y-26000
X97000Y-27000
X97000Y-28000
X97000Y-29000
X97000Y-109000
X97000Y-110000
X97000Y-114000
X97000Y-115000
X98000Y-26000
X98000Y-27000
X98000Y-28000
X98000Y-29000
X98000Y-109000
X98000Y-110000
X98000Y-114000
X98000Y-115000
X99000Y-26000
X99000Y-27000
X99000Y-28000
X99000Y-29000
X99000Y-109000
X99000Y-110000
X99000Y-114000
X99000Y-115000
X100000Y-26000
X100000Y-27000
X100000Y-28000
X100000Y-29000
X100000Y-109000
X100000Y-110000
X100000Y-114000
X100000Y-115000
X101000Y-26000
X101000Y-27000
X101000Y-28000
X101000Y-29000
X101000Y-109000
X101000Y-110000
X101000Y-114000
X101000Y-115000
X102000Y-26000
X102000Y-27000
X102000Y-28000
X102000Y-29000
X102000Y-109000
X102000Y-110000
X102000Y-111000
X102000Y-112000
X102000Y-113000
X102000Y-114000
X102000Y-115000
X103000Y-26000
X103000Y-27000
X103000Y-28000
X103000Y-29000
X103000Y-109000
X103000Y-110000
X103000Y-111000
X103000Y-112000
X103000Y-113000
X103000Y-114000
X103000Y-115000
X104000Y-26000
X104000Y-27000
X104000Y-28000
X104000Y-29000
X105000Y-26000
X105000Y-27000
X105000Y-28000
X105000Y-29000
X106000Y-26000
X106000Y-27000
X106000Y-28000
X106000Y-29000
X106000Y-71000
X106000Y-72000
X106000Y-73000
X106000Y-74000
X106000Y-76000
X106000Y-77000
X106000Y-78000
X106000Y-79000
X107000Y-26000
X107000Y-27000
X107000Y-28000
X107000Y-29000
X107000Y-71000
X107000Y-72000
X107000Y-73000
X107000Y-74000
X107000Y-76000
X107000Y-77000
X107000Y-78000
X107000Y-79000
X107000Y-109000
X107000Y-110000
X107000Y-111000
X107000Y-112000
X107000Y-113000
X107000Y-114000
X107000Y-115000
X108000Y-26000
X108000Y-27000
X108000Y-28000
X108000Y-29000
X108000Y-71000
X108000Y-72000
X108000Y-73000
X108000Y-74000
X108000Y-76000
X108000Y-77000
X108000Y-78000
X108000Y-79000
X108000Y-109000
X108000Y-110000
X108000Y-111000
X108000Y-112000
X108000Y-113000
X108000Y-114000
X108000Y-115000
X109000Y-26000
X109000Y-27000
X109000Y-28000
X109000Y-29000
X109000Y-71000
X109000Y-72000
X109000Y-73000
X109000Y-74000
X109000Y-76000
X109000Y-77000
X109000Y-78000
X109000Y-79000
X109000Y-109000
X109000Y-110000
X109000Y-114000
X109000Y-115000
X110000Y-26000
X110000Y-27000
X110000Y-28000
X110000Y-29000
X110000Y-71000
X110000Y-72000
X110000Y-73000
X110000Y-74000
X110000Y-76000
X110000Y-77000
X110000Y-78000
X110000Y-79000
X110000Y-109000
X110000Y-110000
X110000Y-114000
X110000Y-115000
X111000Y-109000
X111000Y-110000
X111000Y-114000
X111000Y-115000
X112000Y-109000
X112000Y-110000
X112000Y-114000
X112000Y-115000
X113000Y-109000
X113000Y-110000
X113000Y-114000
X113000Y-115000
X114000Y-109000
X114000Y-110000
X114000Y-114000
X114000Y-115000
X115000Y-109000
X115000Y-110000
X115000Y-114000
X115000Y-115000
X116000Y-35000
X116000Y-36000
X116000Y-37000
X116000Y-38000
X116000Y-39000
X116000Y-40000
X116000Y-41000
X116000Y-42000
X116000Y-43000
X116000Y-44000
X116000Y-45000
X116000Y-46000
X116000Y-47000
X116000Y-48000
X116000Y-49000
X116000Y-50000
X116000Y-51000
X116000Y-52000
X116000Y-53000
X116000Y-54000
X116000Y-55000
X116000Y-56000
X116000Y-57000
X116000Y-58000
X116000Y-59000
X116000Y-60000
X116000Y-61000
X116000Y-62000
X116000Y-63000
X116000Y-64000
X116000Y-65000
X116000Y-85000
X116000Y-86000
X116000Y-87000
X116000Y-88000
X116000Y-89000
X116000Y-90000
X116000Y-91000
X116000Y-92000
X116000Y-93000
X116000Y-94000
X116000Y-95000
X116000Y-96000
X116000Y-97000
X116000Y-98000
X116000Y-99000
X116000Y-100000
X116000Y-101000
X116000Y-102000
X116000Y-103000
X116000Y-104000
X116000Y-105000
X116000Y-106000
X116000Y-107000
X116000Y-108000
X116000Y-109000
X116000Y-110000
X116000Y-114000
X116000Y-115000
X117000Y-35000
X117000Y-36000
X117000Y-37000
X117000Y-38000
X117000Y-39000
X117000Y-40000
X117000Y-41000
X117000Y-42000
X117000Y-43000
X117000Y-44000
X117000Y-45000
X117000Y-46000
X117000Y-47000
X117000Y-48000
X117000Y-49000
X117000Y-50000
X117000Y-51000
X117000Y-52000
X117000Y-53000
X117000Y-54000
X117000Y-55000
X117000Y-56000
X117000Y-57000
X117000Y-58000
X117000Y-59000
X117000Y-60000
X117000Y-61000
X117000Y-62000
X117000Y-63000
X117000Y-64000
X117000Y-65000
X117000Y-85000
X117000Y-86000
X117000Y-87000
X117000Y-88000
X117000Y-89000
X117000Y-90000
X117000Y-91000
X117000Y-92000
X117000Y-93000
X117000Y-94000
X117000Y-95000
X117000Y-96000
X117000Y-97000
X117000Y-98000
X117000Y-99000
X117000Y-100000
X117000Y-101000
X117000Y-102000
X117000Y-103000
X117000Y-104000
X117000Y-105000
X117000Y-106000
X117000Y-107000
X117000Y-108000
X117000Y-109000
X117000Y-110000
X117000Y-114000
X117000Y-115000
X118000Y-35000
X118000Y-36000
X118000Y-37000
X118000Y-38000
X118000Y-39000
X118000Y-40000
X118000Y-41000
X118000Y-42000
X118000Y-43000
X118000Y-44000
X118000Y-45000
X118000Y-46000
X118000Y-47000
X118000Y-48000
X118000Y-49000
X118000Y-50000
X118000Y-51000
X118000Y-52000
X118000Y-53000
X118000Y-54000
X118000Y-55000
X118000Y-56000
X118000Y-57000
X118000Y-58000
X118000Y-59000
X118000Y-60000
X118000Y-61000
X118000Y-62000
X118000Y-63000
X118000Y-64000
X118000Y-65000
X118000Y-85000
X118000Y-86000
X118000Y-87000
X118000Y-88000
X118000Y-89000
X118000Y-90000
X118000Y-91000
X118000Y-92000
X118000Y-93000
X118000Y-94000
X118000Y-95000
X118000Y-96000
X118000Y-97000
X118000Y-98000
X118000Y-99000
X118000Y-100000
X118000Y-101000
X118000Y-102000
X118000Y-103000
X118000Y-104000
X118000Y-105000
X118000Y-106000
X118000Y-107000
X118000Y-108000
X118000Y-109000
X118000Y-110000
X118000Y-111000
X118000Y-112000
X118000Y-113000
X118000Y-114000
X118000Y-115000
X119000Y-35000
X119000Y-36000
X119000Y-37000
X119000Y-38000
X119000Y-39000
X119000Y-40000
X119000Y-41000
X119000Y-42000
X119000Y-43000
X119000Y-44000
X119000Y-45000
X119000Y-46000
X119000Y-47000
X119000Y-48000
X119000Y-49000
X119000Y-50000
X119000Y-51000
X119000Y-52000
X119000Y-53000
X119000Y-54000
X119000Y-55000
X119000Y-56000
X119000Y-57000
X119000Y-58000
X119000Y-59000
X119000Y-60000
X119000Y-61000
X119000Y-62000
X119000Y-63000
X119000Y-64000
X119000Y-65000
X119000Y-85000
X119000Y-86000
X119000Y-87000
X119000Y-88000
X119000Y-89000
X119000Y-90000
X119000Y-91000
X119000Y-92000
X119000Y-93000
X119000Y-94000
X119000Y-95000
X119000Y-96000
X119000Y-97000
X119000Y-98000
X119000Y-99000
X119000Y-100000
X119000Y-101000
X119000Y-102000
X119000Y-103000
X119000Y-104000
X119000Y-105000
X119000Y-106000
X119000Y-107000
X119000Y-108000
X119000Y-109000
X119000Y-110000
X119000Y-111000
X119000Y-112000
X119000Y-113000
X119000Y-114000
X119000Y-115000
T2
X25000Y-75000
X30000Y-70000
X30000Y-75000
X35000Y-70000
X35000Y-75000
X37000Y-58000
X37000Y-59000
X37000Y-60000
X37000Y-61000
X37000Y-62000
X37000Y-63000
X37000Y-64000
X37000Y-65000
X38000Y-53000
X38000Y-57000
X39000Y-53000
X39000Y-56000
X40000Y-53000
X40000Y-55000
X40000Y-120000
X41000Y-53000
X41000Y-54000
X42000Y-50000
X42000Y-53000
X43000Y-53000
X43000Y-60000
X43000Y-61000
X43000Y-62000
X43000Y-63000
X43000Y-64000
X43000Y-65000
X44000Y-47000
X44000Y-53000
X44000Y-59000
X45000Y-47000
X45000Y-53000
X45000Y-58000
X45000Y-70000
X45000Y-75000
X46000Y-47000
X46000Y-51500
X46000Y-53000
X46000Y-57000
X47000Y-47000
X47000Y-53000
X47000Y-54000
X47000Y-55000
X47000Y-56000
X47000Y-89000
X47000Y-90000
X48000Y-47000
X48000Y-53000
X48000Y-89000
X48000Y-90000
X48000Y-94500
X48000Y-105000
X49000Y-47000
X49000Y-53000
X49000Y-89000
X49000Y-90000
X49500Y-97000
X49500Y-104000
X50000Y-47000
X50000Y-53000
X50000Y-89000
X50000Y-90000
X51000Y-47000
X51000Y-53000
X51000Y-89000
X51000Y-90000
X51000Y-92000
X51000Y-98000
X51000Y-100000
X51000Y-101000
X52000Y-36000
X52000Y-47000
X52000Y-53000
X52000Y-89000
X52000Y-90000
X52000Y-100000
X52000Y-102000
X53000Y-35000
X53000Y-47000
X53000Y-53000
X53000Y-89000
X53000Y-90000
X53000Y-100000
X53000Y-102000
X54000Y-34000
X54000Y-47000
X54000Y-53000
X54000Y-100000
X54000Y-102000
X55000Y-34000
X55000Y-47000
X55000Y-53000
X55000Y-75000
X55000Y-100000
X55000Y-102000
X55000Y-120000
X56000Y-34000
X56000Y-47000
X56000Y-53000
X56000Y-100000
X56000Y-102000
X57000Y-34000
X57000Y-47000
X57000Y-53000
X57000Y-100000
X57000Y-102000
X58000Y-34000
X58000Y-47000
X58000Y-53000
X58000Y-100000
X58000Y-102000
X59000Y-34000
X59000Y-47000
X59000Y-53000
X60000Y-34000
X60000Y-53000
X61000Y-34000
X61000Y-53000
X62000Y-34000
X62000Y-53000
X62000Y-102000
X63000Y-34000
X63000Y-53000
X63000Y-102000
X64000Y-34000
X64000Y-53000
X64000Y-102000
X65000Y-34000
X65000Y-53000
X65000Y-70000
X65000Y-102000
X65000Y-120000
X66000Y-48000
X66000Y-53000
X66000Y-102000
X67000Y-48000
X67000Y-53000
X67000Y-54000
X67000Y-55000
X67000Y-56000
X67000Y-57000
X67000Y-58000
X67000Y-59000
X67000Y-60000
X67000Y-61000
X67000Y-62000
X67000Y-63000
X67000Y-64000
X67000Y-65000
X67000Y-102000
X68000Y-48000
X68000Y-53000
X68000Y-89000
X68000Y-90000
X68000Y-91000
X68000Y-92000
X68000Y-93000
X68000Y-97000
X68000Y-98000
X68000Y-99000
X68000Y-100000
X68000Y-101000
X69000Y-48000
X69000Y-53000
X69000Y-89000
X69000Y-90000
X69000Y-91000
X69000Y-97000
X69000Y-98000
X69000Y-99000
X69000Y-100000
X70000Y-48000
X70000Y-53000
X70000Y-89000
X70000Y-90000
X70000Y-97000
X70000Y-98000
X70000Y-99000
X70000Y-103000
X70000Y-120000
X71000Y-48000
X71000Y-53000
X71000Y-54000
X71000Y-89000
X71000Y-99000
X71000Y-103000
X72000Y-48000
X72000Y-53000
X72000Y-55000
X72000Y-103000
X72540Y-32540
X73000Y-48000
X73000Y-53000
X73000Y-56000
X73000Y-57000
X73000Y-58000
X73000Y-59000
X73000Y-60000
X73000Y-61000
X73000Y-62000
X73000Y-63000
X73000Y-64000
X73000Y-65000
X73000Y-103000
X74000Y-48000
X74000Y-53000
X74000Y-102000
X75000Y-34000
X75000Y-48000
X75000Y-53000
X75000Y-75000
X75000Y-101000
X76000Y-34000
X76000Y-48000
X76000Y-53000
X76000Y-100000
X77000Y-34000
X77000Y-48000
X77000Y-53000
X77000Y-94000
X77000Y-95000
X77000Y-96000
X77000Y-97000
X77000Y-98000
X77000Y-99000
X78000Y-34000
X78000Y-48000
X78000Y-53000
X79000Y-34000
X79000Y-48000
X79000Y-53000
X79000Y-103000
X80000Y-34000
X80000Y-48000
X80000Y-53000
X80000Y-102000
X80000Y-103000
X80000Y-120000
X81000Y-34000
X81000Y-48000
X81000Y-53000
X81000Y-102000
X81000Y-103000
X81500Y-94000
X81500Y-95000
X82000Y-34000
X82000Y-48000
X82000Y-53000
X82000Y-102000
X82000Y-103000
X82500Y-94000
X82500Y-95000
X83000Y-34000
X83000Y-48000
X83000Y-53000
X83000Y-102000
X83000Y-103000
X83500Y-93000
X84000Y-34000
X84000Y-47000
X84000Y-53000
X84000Y-102000
X84500Y-93000
X85000Y-34000
X85000Y-46000
X85000Y-53000
X85000Y-75000
X85000Y-105000
X85000Y-120000
X85500Y-93000
X86000Y-34000
X86000Y-53000
X86000Y-104000
X86000Y-105000
X86800Y-95000
X87000Y-34000
X87000Y-53000
X87000Y-103000
X87000Y-105000
X88000Y-34000
X88000Y-53000
X88000Y-102000
X88000Y-103000
X88000Y-104000
X88000Y-105000
X89000Y-34000
X89000Y-53000
X89200Y-95000
X90000Y-34000
X90000Y-49000
X90000Y-53000
X90000Y-75000
X91000Y-34000
X91000Y-49000
X91000Y-53000
X91000Y-54000
X91000Y-55000
X91000Y-56000
X92000Y-34000
X92000Y-49000
X92000Y-53000
X92000Y-57000
X92000Y-102000
X92000Y-103000
X92000Y-104000
X92000Y-105000
X93000Y-34000
X93000Y-49000
X93000Y-53000
X93000Y-58000
X93000Y-93500
X93000Y-94500
X93000Y-95500
X93000Y-102000
X94000Y-34000
X94000Y-49000
X94000Y-53000
X94000Y-59000
X94000Y-93500
X94000Y-94500
X94000Y-95500
X94000Y-102000
X95000Y-34000
X95000Y-49000
X95000Y-53000
X95000Y-60000
X95000Y-70000
X95000Y-93500
X95000Y-94500
X95000Y-95500
X95000Y-102000
X95000Y-120000
X96000Y-34000
X96000Y-49000
X96000Y-53000
X96000Y-61000
X96000Y-93000
X97000Y-35000
X97000Y-43000
X97000Y-49000
X97000Y-53000
X97000Y-54000
X97000Y-62000
X97000Y-63000
X97000Y-64000
X97000Y-65000
X97000Y-93000
X98000Y-36000
X98000Y-44000
X98000Y-49000
X98000Y-53000
X98000Y-55000
X98000Y-93000
X98800Y-95000
X99000Y-37000
X99000Y-44000
X99000Y-49000
X99000Y-53000
X99000Y-56000
X100000Y-38000
X100000Y-44000
X100000Y-49000
X100000Y-53000
X100000Y-57000
X100000Y-120000
X101000Y-39000
X101000Y-44000
X101000Y-49000
X101000Y-53000
X101000Y-58000
X102000Y-40000
X102000Y-44000
X102000Y-49000
X102000Y-53000
X102000Y-59000
X102000Y-102000
X102500Y-93500
X103000Y-41000
X103000Y-42000
X103000Y-43000
X103000Y-44000
X103000Y-49000
X103000Y-53000
X103000Y-60000
X103000Y-61000
X103000Y-62000
X103000Y-63000
X103000Y-64000
X103000Y-65000
X103000Y-103000
X103000Y-104000
X103000Y-105000
X103000Y-106000
X103000Y-107000
X103000Y-108000
X104000Y-49000
X104000Y-53000
X104500Y-93500
X105000Y-49000
X105000Y-53000
X105000Y-70000
X105500Y-93500
X105500Y-94500
X105500Y-95500
X106000Y-49000
X106000Y-53000
X106500Y-93500
X106500Y-94500
X106500Y-95500
X107000Y-48000
X107000Y-53000
X107000Y-102000
X107000Y-103000
X107000Y-104000
X107000Y-105000
X107000Y-106000
X107000Y-107000
X107000Y-108000
X107500Y-93500
X108000Y-47000
X108000Y-53000
X108000Y-102000
X109000Y-46000
X109000Y-53000
X109000Y-102000
X110000Y-75000
X115000Y-75000
T3
X60460Y-89920
X60460Y-95000
X60460Y-97540
X60460Y-100080
X65540Y-89920
X65540Y-95000
X65540Y-97540
X65540Y-100080
X79460Y-89920
X79460Y-95000
X79460Y-97540
X79460Y-100080
X84540Y-89920
X84540Y-95000
X84540Y-97540
X84540Y-100080
X91460Y-89920
X91460Y-95000
X91460Y-97540
X91460Y-100080
X96540Y-89920
X96540Y-95000
X96540Y-97540
X96540Y-100080
X103460Y-89920
X103460Y-95000
X103460Y-97540
X103460Y-100080
X108540Y-89920
X108540Y-95000
X108540Y-97540
X108540Y-100080
T4
X33076Y-91650
X33076Y-94190
X33076Y-96730
X33076Y-99270
X33076Y-101810
X33076Y-104350
X34076Y-43920
X34076Y-46460
X34076Y-49000
X34076Y-51540
X34076Y-54080
T5
X40000Y-70000
X45000Y-120000
X47500Y-80000
X60000Y-120000
X63000Y-80000
X70000Y-30000
X70000Y-70000
X75000Y-120000
X78000Y-80000
X90000Y-120000
X100000Y-70000
X100000Y-80000
X105000Y-120000
T6
X37460Y-67460
X37460Y-72540
X42460Y-117460
X42460Y-122540
X42540Y-67460
X42540Y-72540
X44960Y-77460
X44960Y-82540
X47540Y-117460
X47540Y-122540
X50040Y-77460
X50040Y-82540
X57460Y-117460
X57460Y-122540
X60460Y-77460
X60460Y-82540
X62540Y-117460
X62540Y-122540
X65540Y-77460
X65540Y-82540
X67460Y-27460
X67460Y-32540
X67460Y-67460
X67460Y-72540
X72460Y-117460
X72460Y-122540
X72540Y-27460
X72540Y-32540
X72540Y-67460
X72540Y-72540
X75460Y-77460
X75460Y-82540
X77540Y-117460
X77540Y-122540
X80540Y-77460
X80540Y-82540
X87460Y-117460
X87460Y-122540
X92540Y-117460
X92540Y-122540
X97460Y-67460
X97460Y-72540
X97460Y-77460
X97460Y-82540
X102460Y-117460
X102460Y-122540
X102540Y-67460
X102540Y-72540
X102540Y-77460
X102540Y-82540
X107540Y-117460
X107540Y-122540
T7
X44000Y-43300
X44000Y-55500
X50000Y-41300
X56000Y-43300
X56000Y-55500
X69000Y-43300
X69000Y-55500
X75000Y-41300
X81000Y-43300
X81000Y-55500
X94000Y-43300
X94000Y-55500
X100000Y-41300
X106000Y-43300
X106000Y-55500
T8
X25000Y-30000
X25000Y-70000
X25000Y-80000
X25000Y-120000
X115000Y-30000
X115000Y-70000
X115000Y-80000
X115000Y-120000
T0
M30
