G04 #@! TF.FileFunction,Legend,Bot*
%FSLAX46Y46*%
G04 Gerber Fmt 4.6, Leading zero omitted, Abs format (unit mm)*
G04 Created by KiCad (PCBNEW 4.0.7) date 06/05/18 09:22:04*
%MOMM*%
%LPD*%
G01*
G04 APERTURE LIST*
%ADD10C,0.100000*%
%ADD11C,0.300000*%
%ADD12C,0.250000*%
%ADD13C,0.120000*%
%ADD14C,0.150000*%
G04 APERTURE END LIST*
D10*
D11*
X26714286Y-36821429D02*
X27214286Y-35321429D01*
X27714286Y-36821429D01*
X28071429Y-36821429D02*
X29000000Y-36821429D01*
X28500000Y-36250000D01*
X28714286Y-36250000D01*
X28857143Y-36178571D01*
X28928572Y-36107143D01*
X29000000Y-35964286D01*
X29000000Y-35607143D01*
X28928572Y-35464286D01*
X28857143Y-35392857D01*
X28714286Y-35321429D01*
X28285714Y-35321429D01*
X28142857Y-35392857D01*
X28071429Y-35464286D01*
X29642857Y-35464286D02*
X29714285Y-35392857D01*
X29642857Y-35321429D01*
X29571428Y-35392857D01*
X29642857Y-35464286D01*
X29642857Y-35321429D01*
X30642857Y-36821429D02*
X30785714Y-36821429D01*
X30928571Y-36750000D01*
X31000000Y-36678571D01*
X31071429Y-36535714D01*
X31142857Y-36250000D01*
X31142857Y-35892857D01*
X31071429Y-35607143D01*
X31000000Y-35464286D01*
X30928571Y-35392857D01*
X30785714Y-35321429D01*
X30642857Y-35321429D01*
X30500000Y-35392857D01*
X30428571Y-35464286D01*
X30357143Y-35607143D01*
X30285714Y-35892857D01*
X30285714Y-36250000D01*
X30357143Y-36535714D01*
X30428571Y-36678571D01*
X30500000Y-36750000D01*
X30642857Y-36821429D01*
D12*
X35455357Y-85452381D02*
X35247024Y-86452381D01*
X34788690Y-85452381D01*
X34550595Y-85452381D02*
X33931547Y-85452381D01*
X34312500Y-85833333D01*
X34169642Y-85833333D01*
X34080356Y-85880952D01*
X34038689Y-85928571D01*
X34002975Y-86023810D01*
X34032737Y-86261905D01*
X34092261Y-86357143D01*
X34145832Y-86404762D01*
X34247023Y-86452381D01*
X34532738Y-86452381D01*
X34622023Y-86404762D01*
X34663690Y-86357143D01*
X33616071Y-86357143D02*
X33574404Y-86404762D01*
X33627976Y-86452381D01*
X33669642Y-86404762D01*
X33616071Y-86357143D01*
X33627976Y-86452381D01*
X32836310Y-85452381D02*
X32741071Y-85452381D01*
X32651785Y-85500000D01*
X32610118Y-85547619D01*
X32574404Y-85642857D01*
X32550595Y-85833333D01*
X32580357Y-86071429D01*
X32651785Y-86261905D01*
X32711309Y-86357143D01*
X32764880Y-86404762D01*
X32866071Y-86452381D01*
X32961310Y-86452381D01*
X33050595Y-86404762D01*
X33092262Y-86357143D01*
X33127976Y-86261905D01*
X33151786Y-86071429D01*
X33122024Y-85833333D01*
X33050595Y-85642857D01*
X32991071Y-85547619D01*
X32937500Y-85500000D01*
X32836310Y-85452381D01*
D11*
X42142856Y-89178571D02*
X41285713Y-89178571D01*
X41714284Y-90678571D02*
X41714284Y-89178571D01*
X40928570Y-89178571D02*
X39928570Y-90678571D01*
X39928570Y-89178571D02*
X40928570Y-90678571D01*
X39714285Y-90821429D02*
X38571428Y-90821429D01*
X37357142Y-90678571D02*
X37857142Y-89964286D01*
X38214285Y-90678571D02*
X38214285Y-89178571D01*
X37642857Y-89178571D01*
X37499999Y-89250000D01*
X37428571Y-89321429D01*
X37357142Y-89464286D01*
X37357142Y-89678571D01*
X37428571Y-89821429D01*
X37499999Y-89892857D01*
X37642857Y-89964286D01*
X38214285Y-89964286D01*
X36857142Y-89178571D02*
X35857142Y-90678571D01*
X35857142Y-89178571D02*
X36857142Y-90678571D01*
X35642857Y-90821429D02*
X34500000Y-90821429D01*
X33285714Y-90678571D02*
X33785714Y-89964286D01*
X34142857Y-90678571D02*
X34142857Y-89178571D01*
X33571429Y-89178571D01*
X33428571Y-89250000D01*
X33357143Y-89321429D01*
X33285714Y-89464286D01*
X33285714Y-89678571D01*
X33357143Y-89821429D01*
X33428571Y-89892857D01*
X33571429Y-89964286D01*
X34142857Y-89964286D01*
X31928571Y-90678571D02*
X32642857Y-90678571D01*
X32642857Y-89178571D01*
X31142857Y-89964286D02*
X31142857Y-90678571D01*
X31642857Y-89178571D02*
X31142857Y-89964286D01*
X30642857Y-89178571D01*
X41785714Y-43750000D02*
X41071428Y-43750000D01*
X41928571Y-44178571D02*
X41428571Y-42678571D01*
X40928571Y-44178571D01*
X40428571Y-43178571D02*
X40428571Y-44178571D01*
X40428571Y-43321429D02*
X40357143Y-43250000D01*
X40214285Y-43178571D01*
X40000000Y-43178571D01*
X39857143Y-43250000D01*
X39785714Y-43392857D01*
X39785714Y-44178571D01*
X39285714Y-43178571D02*
X38714285Y-43178571D01*
X39071428Y-42678571D02*
X39071428Y-43964286D01*
X39000000Y-44107143D01*
X38857142Y-44178571D01*
X38714285Y-44178571D01*
X38571428Y-44321429D02*
X37428571Y-44321429D01*
X37214285Y-42678571D02*
X36285714Y-42678571D01*
X36785714Y-43250000D01*
X36571428Y-43250000D01*
X36428571Y-43321429D01*
X36357142Y-43392857D01*
X36285714Y-43535714D01*
X36285714Y-43892857D01*
X36357142Y-44035714D01*
X36428571Y-44107143D01*
X36571428Y-44178571D01*
X37000000Y-44178571D01*
X37142857Y-44107143D01*
X37214285Y-44035714D01*
X41785714Y-46750000D02*
X41071428Y-46750000D01*
X41928571Y-47178571D02*
X41428571Y-45678571D01*
X40928571Y-47178571D01*
X40428571Y-46178571D02*
X40428571Y-47178571D01*
X40428571Y-46321429D02*
X40357143Y-46250000D01*
X40214285Y-46178571D01*
X40000000Y-46178571D01*
X39857143Y-46250000D01*
X39785714Y-46392857D01*
X39785714Y-47178571D01*
X39285714Y-46178571D02*
X38714285Y-46178571D01*
X39071428Y-45678571D02*
X39071428Y-46964286D01*
X39000000Y-47107143D01*
X38857142Y-47178571D01*
X38714285Y-47178571D01*
X38571428Y-47321429D02*
X37428571Y-47321429D01*
X37142857Y-45821429D02*
X37071428Y-45750000D01*
X36928571Y-45678571D01*
X36571428Y-45678571D01*
X36428571Y-45750000D01*
X36357142Y-45821429D01*
X36285714Y-45964286D01*
X36285714Y-46107143D01*
X36357142Y-46321429D01*
X37214285Y-47178571D01*
X36285714Y-47178571D01*
X41785714Y-49250000D02*
X41071428Y-49250000D01*
X41928571Y-49678571D02*
X41428571Y-48178571D01*
X40928571Y-49678571D01*
X40428571Y-48678571D02*
X40428571Y-49678571D01*
X40428571Y-48821429D02*
X40357143Y-48750000D01*
X40214285Y-48678571D01*
X40000000Y-48678571D01*
X39857143Y-48750000D01*
X39785714Y-48892857D01*
X39785714Y-49678571D01*
X39285714Y-48678571D02*
X38714285Y-48678571D01*
X39071428Y-48178571D02*
X39071428Y-49464286D01*
X39000000Y-49607143D01*
X38857142Y-49678571D01*
X38714285Y-49678571D01*
X38571428Y-49821429D02*
X37428571Y-49821429D01*
X36285714Y-49678571D02*
X37142857Y-49678571D01*
X36714285Y-49678571D02*
X36714285Y-48178571D01*
X36857142Y-48392857D01*
X37000000Y-48535714D01*
X37142857Y-48607143D01*
X39571429Y-50750000D02*
X39714286Y-50678571D01*
X39928572Y-50678571D01*
X40142857Y-50750000D01*
X40285715Y-50892857D01*
X40357143Y-51035714D01*
X40428572Y-51321429D01*
X40428572Y-51535714D01*
X40357143Y-51821429D01*
X40285715Y-51964286D01*
X40142857Y-52107143D01*
X39928572Y-52178571D01*
X39785715Y-52178571D01*
X39571429Y-52107143D01*
X39500000Y-52035714D01*
X39500000Y-51535714D01*
X39785715Y-51535714D01*
X38857143Y-51178571D02*
X38857143Y-52178571D01*
X38857143Y-51321429D02*
X38785715Y-51250000D01*
X38642857Y-51178571D01*
X38428572Y-51178571D01*
X38285715Y-51250000D01*
X38214286Y-51392857D01*
X38214286Y-52178571D01*
X36857143Y-52178571D02*
X36857143Y-50678571D01*
X36857143Y-52107143D02*
X37000000Y-52178571D01*
X37285714Y-52178571D01*
X37428572Y-52107143D01*
X37500000Y-52035714D01*
X37571429Y-51892857D01*
X37571429Y-51464286D01*
X37500000Y-51321429D01*
X37428572Y-51250000D01*
X37285714Y-51178571D01*
X37000000Y-51178571D01*
X36857143Y-51250000D01*
X42142856Y-54607143D02*
X40999999Y-54607143D01*
X41571428Y-55178571D02*
X41571428Y-54035714D01*
X39499999Y-55178571D02*
X40357142Y-55178571D01*
X39928570Y-55178571D02*
X39928570Y-53678571D01*
X40071427Y-53892857D01*
X40214285Y-54035714D01*
X40357142Y-54107143D01*
X38928571Y-53821429D02*
X38857142Y-53750000D01*
X38714285Y-53678571D01*
X38357142Y-53678571D01*
X38214285Y-53750000D01*
X38142856Y-53821429D01*
X38071428Y-53964286D01*
X38071428Y-54107143D01*
X38142856Y-54321429D01*
X38999999Y-55178571D01*
X38071428Y-55178571D01*
X37642857Y-53678571D02*
X37142857Y-55178571D01*
X36642857Y-53678571D01*
X46321429Y-93428571D02*
X46821429Y-92714286D01*
X47178572Y-93428571D02*
X47178572Y-91928571D01*
X46607144Y-91928571D01*
X46464286Y-92000000D01*
X46392858Y-92071429D01*
X46321429Y-92214286D01*
X46321429Y-92428571D01*
X46392858Y-92571429D01*
X46464286Y-92642857D01*
X46607144Y-92714286D01*
X47178572Y-92714286D01*
X45821429Y-91928571D02*
X44821429Y-93428571D01*
X44821429Y-91928571D02*
X45821429Y-93428571D01*
X44607144Y-93571429D02*
X43464287Y-93571429D01*
X42607144Y-92642857D02*
X42392858Y-92714286D01*
X42321430Y-92785714D01*
X42250001Y-92928571D01*
X42250001Y-93142857D01*
X42321430Y-93285714D01*
X42392858Y-93357143D01*
X42535716Y-93428571D01*
X43107144Y-93428571D01*
X43107144Y-91928571D01*
X42607144Y-91928571D01*
X42464287Y-92000000D01*
X42392858Y-92071429D01*
X42321430Y-92214286D01*
X42321430Y-92357143D01*
X42392858Y-92500000D01*
X42464287Y-92571429D01*
X42607144Y-92642857D01*
X43107144Y-92642857D01*
X41750001Y-92428571D02*
X41392858Y-93428571D01*
X41035716Y-92428571D02*
X41392858Y-93428571D01*
X41535716Y-93785714D01*
X41607144Y-93857143D01*
X41750001Y-93928571D01*
X40464287Y-92428571D02*
X40464287Y-93928571D01*
X40464287Y-92500000D02*
X40321430Y-92428571D01*
X40035716Y-92428571D01*
X39892859Y-92500000D01*
X39821430Y-92571429D01*
X39750001Y-92714286D01*
X39750001Y-93142857D01*
X39821430Y-93285714D01*
X39892859Y-93357143D01*
X40035716Y-93428571D01*
X40321430Y-93428571D01*
X40464287Y-93357143D01*
X38464287Y-93428571D02*
X38464287Y-92642857D01*
X38535716Y-92500000D01*
X38678573Y-92428571D01*
X38964287Y-92428571D01*
X39107144Y-92500000D01*
X38464287Y-93357143D02*
X38607144Y-93428571D01*
X38964287Y-93428571D01*
X39107144Y-93357143D01*
X39178573Y-93214286D01*
X39178573Y-93071429D01*
X39107144Y-92928571D01*
X38964287Y-92857143D01*
X38607144Y-92857143D01*
X38464287Y-92785714D01*
X37821430Y-93357143D02*
X37678573Y-93428571D01*
X37392858Y-93428571D01*
X37250001Y-93357143D01*
X37178573Y-93214286D01*
X37178573Y-93142857D01*
X37250001Y-93000000D01*
X37392858Y-92928571D01*
X37607144Y-92928571D01*
X37750001Y-92857143D01*
X37821430Y-92714286D01*
X37821430Y-92642857D01*
X37750001Y-92500000D01*
X37607144Y-92428571D01*
X37392858Y-92428571D01*
X37250001Y-92500000D01*
X36607144Y-93357143D02*
X36464287Y-93428571D01*
X36178572Y-93428571D01*
X36035715Y-93357143D01*
X35964287Y-93214286D01*
X35964287Y-93142857D01*
X36035715Y-93000000D01*
X36178572Y-92928571D01*
X36392858Y-92928571D01*
X36535715Y-92857143D01*
X36607144Y-92714286D01*
X36607144Y-92642857D01*
X36535715Y-92500000D01*
X36392858Y-92428571D01*
X36178572Y-92428571D01*
X36035715Y-92500000D01*
X35678572Y-93571429D02*
X34535715Y-93571429D01*
X33892858Y-91928571D02*
X33607144Y-91928571D01*
X33464286Y-92000000D01*
X33321429Y-92142857D01*
X33250001Y-92428571D01*
X33250001Y-92928571D01*
X33321429Y-93214286D01*
X33464286Y-93357143D01*
X33607144Y-93428571D01*
X33892858Y-93428571D01*
X34035715Y-93357143D01*
X34178572Y-93214286D01*
X34250001Y-92928571D01*
X34250001Y-92428571D01*
X34178572Y-92142857D01*
X34035715Y-92000000D01*
X33892858Y-91928571D01*
X31964286Y-92428571D02*
X31964286Y-93428571D01*
X32607143Y-92428571D02*
X32607143Y-93214286D01*
X32535715Y-93357143D01*
X32392857Y-93428571D01*
X32178572Y-93428571D01*
X32035715Y-93357143D01*
X31964286Y-93285714D01*
X31464286Y-92428571D02*
X30892857Y-92428571D01*
X31250000Y-91928571D02*
X31250000Y-93214286D01*
X31178572Y-93357143D01*
X31035714Y-93428571D01*
X30892857Y-93428571D01*
X36607142Y-95678571D02*
X37107142Y-94964286D01*
X37464285Y-95678571D02*
X37464285Y-94178571D01*
X36892857Y-94178571D01*
X36749999Y-94250000D01*
X36678571Y-94321429D01*
X36607142Y-94464286D01*
X36607142Y-94678571D01*
X36678571Y-94821429D01*
X36749999Y-94892857D01*
X36892857Y-94964286D01*
X37464285Y-94964286D01*
X36107142Y-94178571D02*
X35107142Y-95678571D01*
X35107142Y-94178571D02*
X36107142Y-95678571D01*
X34678571Y-94178571D02*
X33750000Y-94178571D01*
X34250000Y-94750000D01*
X34035714Y-94750000D01*
X33892857Y-94821429D01*
X33821428Y-94892857D01*
X33750000Y-95035714D01*
X33750000Y-95392857D01*
X33821428Y-95535714D01*
X33892857Y-95607143D01*
X34035714Y-95678571D01*
X34464286Y-95678571D01*
X34607143Y-95607143D01*
X34678571Y-95535714D01*
X33464286Y-95821429D02*
X32321429Y-95821429D01*
X31964286Y-95678571D02*
X31964286Y-94178571D01*
X31250000Y-94678571D02*
X31250000Y-95678571D01*
X31250000Y-94821429D02*
X31178572Y-94750000D01*
X31035714Y-94678571D01*
X30821429Y-94678571D01*
X30678572Y-94750000D01*
X30607143Y-94892857D01*
X30607143Y-95678571D01*
X36857142Y-98178571D02*
X37357142Y-97464286D01*
X37714285Y-98178571D02*
X37714285Y-96678571D01*
X37142857Y-96678571D01*
X36999999Y-96750000D01*
X36928571Y-96821429D01*
X36857142Y-96964286D01*
X36857142Y-97178571D01*
X36928571Y-97321429D01*
X36999999Y-97392857D01*
X37142857Y-97464286D01*
X37714285Y-97464286D01*
X36357142Y-96678571D02*
X35357142Y-98178571D01*
X35357142Y-96678571D02*
X36357142Y-98178571D01*
X34857143Y-96821429D02*
X34785714Y-96750000D01*
X34642857Y-96678571D01*
X34285714Y-96678571D01*
X34142857Y-96750000D01*
X34071428Y-96821429D01*
X34000000Y-96964286D01*
X34000000Y-97107143D01*
X34071428Y-97321429D01*
X34928571Y-98178571D01*
X34000000Y-98178571D01*
X33714286Y-98321429D02*
X32571429Y-98321429D01*
X32214286Y-98178571D02*
X32214286Y-96678571D01*
X31500000Y-97178571D02*
X31500000Y-98178571D01*
X31500000Y-97321429D02*
X31428572Y-97250000D01*
X31285714Y-97178571D01*
X31071429Y-97178571D01*
X30928572Y-97250000D01*
X30857143Y-97392857D01*
X30857143Y-98178571D01*
X37857142Y-99178571D02*
X36857142Y-100678571D01*
X36857142Y-99178571D02*
X37857142Y-100678571D01*
X36428571Y-99678571D02*
X36071428Y-100678571D01*
X35714286Y-99678571D01*
X35357143Y-99678571D02*
X34785714Y-99678571D01*
X35142857Y-99178571D02*
X35142857Y-100464286D01*
X35071429Y-100607143D01*
X34928571Y-100678571D01*
X34785714Y-100678571D01*
X34285714Y-100678571D02*
X34285714Y-99678571D01*
X34285714Y-99964286D02*
X34214286Y-99821429D01*
X34142857Y-99750000D01*
X34000000Y-99678571D01*
X33857143Y-99678571D01*
X33714286Y-100821429D02*
X32571429Y-100821429D01*
X32214286Y-100678571D02*
X32214286Y-99178571D01*
X31500000Y-99678571D02*
X31500000Y-100678571D01*
X31500000Y-99821429D02*
X31428572Y-99750000D01*
X31285714Y-99678571D01*
X31071429Y-99678571D01*
X30928572Y-99750000D01*
X30857143Y-99892857D01*
X30857143Y-100678571D01*
X33571429Y-101750000D02*
X33714286Y-101678571D01*
X33928572Y-101678571D01*
X34142857Y-101750000D01*
X34285715Y-101892857D01*
X34357143Y-102035714D01*
X34428572Y-102321429D01*
X34428572Y-102535714D01*
X34357143Y-102821429D01*
X34285715Y-102964286D01*
X34142857Y-103107143D01*
X33928572Y-103178571D01*
X33785715Y-103178571D01*
X33571429Y-103107143D01*
X33500000Y-103035714D01*
X33500000Y-102535714D01*
X33785715Y-102535714D01*
X32857143Y-102178571D02*
X32857143Y-103178571D01*
X32857143Y-102321429D02*
X32785715Y-102250000D01*
X32642857Y-102178571D01*
X32428572Y-102178571D01*
X32285715Y-102250000D01*
X32214286Y-102392857D01*
X32214286Y-103178571D01*
X30857143Y-103178571D02*
X30857143Y-101678571D01*
X30857143Y-103107143D02*
X31000000Y-103178571D01*
X31285714Y-103178571D01*
X31428572Y-103107143D01*
X31500000Y-103035714D01*
X31571429Y-102892857D01*
X31571429Y-102464286D01*
X31500000Y-102321429D01*
X31428572Y-102250000D01*
X31285714Y-102178571D01*
X31000000Y-102178571D01*
X30857143Y-102250000D01*
X38071428Y-105357143D02*
X36928571Y-105357143D01*
X37500000Y-105928571D02*
X37500000Y-104785714D01*
X35428571Y-105928571D02*
X36285714Y-105928571D01*
X35857142Y-105928571D02*
X35857142Y-104428571D01*
X35999999Y-104642857D01*
X36142857Y-104785714D01*
X36285714Y-104857143D01*
X34857143Y-104571429D02*
X34785714Y-104500000D01*
X34642857Y-104428571D01*
X34285714Y-104428571D01*
X34142857Y-104500000D01*
X34071428Y-104571429D01*
X34000000Y-104714286D01*
X34000000Y-104857143D01*
X34071428Y-105071429D01*
X34928571Y-105928571D01*
X34000000Y-105928571D01*
X32214286Y-105928571D02*
X32214286Y-104428571D01*
X31500000Y-104928571D02*
X31500000Y-105928571D01*
X31500000Y-105071429D02*
X31428572Y-105000000D01*
X31285714Y-104928571D01*
X31071429Y-104928571D01*
X30928572Y-105000000D01*
X30857143Y-105142857D01*
X30857143Y-105928571D01*
D13*
X89500000Y-92350000D02*
X88500000Y-92350000D01*
X88500000Y-90650000D02*
X89500000Y-90650000D01*
X47500000Y-44150000D02*
X48500000Y-44150000D01*
X48500000Y-45850000D02*
X47500000Y-45850000D01*
X79000000Y-92850000D02*
X78000000Y-92850000D01*
X78000000Y-91150000D02*
X79000000Y-91150000D01*
X72500000Y-45150000D02*
X73500000Y-45150000D01*
X73500000Y-46850000D02*
X72500000Y-46850000D01*
X65000000Y-91650000D02*
X66000000Y-91650000D01*
X66000000Y-93350000D02*
X65000000Y-93350000D01*
X97500000Y-45150000D02*
X98500000Y-45150000D01*
X98500000Y-46850000D02*
X97500000Y-46850000D01*
X104500000Y-86150000D02*
X105500000Y-86150000D01*
X105500000Y-87850000D02*
X104500000Y-87850000D01*
X49250000Y-91900000D02*
X50250000Y-91900000D01*
X50250000Y-93600000D02*
X49250000Y-93600000D01*
D14*
X85166666Y-91857143D02*
X85214285Y-91904762D01*
X85357142Y-91952381D01*
X85452380Y-91952381D01*
X85595238Y-91904762D01*
X85690476Y-91809524D01*
X85738095Y-91714286D01*
X85785714Y-91523810D01*
X85785714Y-91380952D01*
X85738095Y-91190476D01*
X85690476Y-91095238D01*
X85595238Y-91000000D01*
X85452380Y-90952381D01*
X85357142Y-90952381D01*
X85214285Y-91000000D01*
X85166666Y-91047619D01*
X84214285Y-91952381D02*
X84785714Y-91952381D01*
X84500000Y-91952381D02*
X84500000Y-90952381D01*
X84595238Y-91095238D01*
X84690476Y-91190476D01*
X84785714Y-91238095D01*
X48166666Y-43607143D02*
X48214285Y-43654762D01*
X48357142Y-43702381D01*
X48452380Y-43702381D01*
X48595238Y-43654762D01*
X48690476Y-43559524D01*
X48738095Y-43464286D01*
X48785714Y-43273810D01*
X48785714Y-43130952D01*
X48738095Y-42940476D01*
X48690476Y-42845238D01*
X48595238Y-42750000D01*
X48452380Y-42702381D01*
X48357142Y-42702381D01*
X48214285Y-42750000D01*
X48166666Y-42797619D01*
X47833333Y-42702381D02*
X47214285Y-42702381D01*
X47547619Y-43083333D01*
X47404761Y-43083333D01*
X47309523Y-43130952D01*
X47261904Y-43178571D01*
X47214285Y-43273810D01*
X47214285Y-43511905D01*
X47261904Y-43607143D01*
X47309523Y-43654762D01*
X47404761Y-43702381D01*
X47690476Y-43702381D01*
X47785714Y-43654762D01*
X47833333Y-43607143D01*
X82666666Y-92857143D02*
X82714285Y-92904762D01*
X82857142Y-92952381D01*
X82952380Y-92952381D01*
X83095238Y-92904762D01*
X83190476Y-92809524D01*
X83238095Y-92714286D01*
X83285714Y-92523810D01*
X83285714Y-92380952D01*
X83238095Y-92190476D01*
X83190476Y-92095238D01*
X83095238Y-92000000D01*
X82952380Y-91952381D01*
X82857142Y-91952381D01*
X82714285Y-92000000D01*
X82666666Y-92047619D01*
X81761904Y-91952381D02*
X82238095Y-91952381D01*
X82285714Y-92428571D01*
X82238095Y-92380952D01*
X82142857Y-92333333D01*
X81904761Y-92333333D01*
X81809523Y-92380952D01*
X81761904Y-92428571D01*
X81714285Y-92523810D01*
X81714285Y-92761905D01*
X81761904Y-92857143D01*
X81809523Y-92904762D01*
X81904761Y-92952381D01*
X82142857Y-92952381D01*
X82238095Y-92904762D01*
X82285714Y-92857143D01*
X73166666Y-44607143D02*
X73214285Y-44654762D01*
X73357142Y-44702381D01*
X73452380Y-44702381D01*
X73595238Y-44654762D01*
X73690476Y-44559524D01*
X73738095Y-44464286D01*
X73785714Y-44273810D01*
X73785714Y-44130952D01*
X73738095Y-43940476D01*
X73690476Y-43845238D01*
X73595238Y-43750000D01*
X73452380Y-43702381D01*
X73357142Y-43702381D01*
X73214285Y-43750000D01*
X73166666Y-43797619D01*
X72833333Y-43702381D02*
X72166666Y-43702381D01*
X72595238Y-44702381D01*
X70166666Y-92857143D02*
X70214285Y-92904762D01*
X70357142Y-92952381D01*
X70452380Y-92952381D01*
X70595238Y-92904762D01*
X70690476Y-92809524D01*
X70738095Y-92714286D01*
X70785714Y-92523810D01*
X70785714Y-92380952D01*
X70738095Y-92190476D01*
X70690476Y-92095238D01*
X70595238Y-92000000D01*
X70452380Y-91952381D01*
X70357142Y-91952381D01*
X70214285Y-92000000D01*
X70166666Y-92047619D01*
X69690476Y-92952381D02*
X69500000Y-92952381D01*
X69404761Y-92904762D01*
X69357142Y-92857143D01*
X69261904Y-92714286D01*
X69214285Y-92523810D01*
X69214285Y-92142857D01*
X69261904Y-92047619D01*
X69309523Y-92000000D01*
X69404761Y-91952381D01*
X69595238Y-91952381D01*
X69690476Y-92000000D01*
X69738095Y-92047619D01*
X69785714Y-92142857D01*
X69785714Y-92380952D01*
X69738095Y-92476190D01*
X69690476Y-92523810D01*
X69595238Y-92571429D01*
X69404761Y-92571429D01*
X69309523Y-92523810D01*
X69261904Y-92476190D01*
X69214285Y-92380952D01*
X98642857Y-44607143D02*
X98690476Y-44654762D01*
X98833333Y-44702381D01*
X98928571Y-44702381D01*
X99071429Y-44654762D01*
X99166667Y-44559524D01*
X99214286Y-44464286D01*
X99261905Y-44273810D01*
X99261905Y-44130952D01*
X99214286Y-43940476D01*
X99166667Y-43845238D01*
X99071429Y-43750000D01*
X98928571Y-43702381D01*
X98833333Y-43702381D01*
X98690476Y-43750000D01*
X98642857Y-43797619D01*
X97690476Y-44702381D02*
X98261905Y-44702381D01*
X97976191Y-44702381D02*
X97976191Y-43702381D01*
X98071429Y-43845238D01*
X98166667Y-43940476D01*
X98261905Y-43988095D01*
X96738095Y-44702381D02*
X97309524Y-44702381D01*
X97023810Y-44702381D02*
X97023810Y-43702381D01*
X97119048Y-43845238D01*
X97214286Y-43940476D01*
X97309524Y-43988095D01*
X110142857Y-87357143D02*
X110190476Y-87404762D01*
X110333333Y-87452381D01*
X110428571Y-87452381D01*
X110571429Y-87404762D01*
X110666667Y-87309524D01*
X110714286Y-87214286D01*
X110761905Y-87023810D01*
X110761905Y-86880952D01*
X110714286Y-86690476D01*
X110666667Y-86595238D01*
X110571429Y-86500000D01*
X110428571Y-86452381D01*
X110333333Y-86452381D01*
X110190476Y-86500000D01*
X110142857Y-86547619D01*
X109190476Y-87452381D02*
X109761905Y-87452381D01*
X109476191Y-87452381D02*
X109476191Y-86452381D01*
X109571429Y-86595238D01*
X109666667Y-86690476D01*
X109761905Y-86738095D01*
X108857143Y-86452381D02*
X108238095Y-86452381D01*
X108571429Y-86833333D01*
X108428571Y-86833333D01*
X108333333Y-86880952D01*
X108285714Y-86928571D01*
X108238095Y-87023810D01*
X108238095Y-87261905D01*
X108285714Y-87357143D01*
X108333333Y-87404762D01*
X108428571Y-87452381D01*
X108714286Y-87452381D01*
X108809524Y-87404762D01*
X108857143Y-87357143D01*
X54166666Y-92857143D02*
X54214285Y-92904762D01*
X54357142Y-92952381D01*
X54452380Y-92952381D01*
X54595238Y-92904762D01*
X54690476Y-92809524D01*
X54738095Y-92714286D01*
X54785714Y-92523810D01*
X54785714Y-92380952D01*
X54738095Y-92190476D01*
X54690476Y-92095238D01*
X54595238Y-92000000D01*
X54452380Y-91952381D01*
X54357142Y-91952381D01*
X54214285Y-92000000D01*
X54166666Y-92047619D01*
X53785714Y-92047619D02*
X53738095Y-92000000D01*
X53642857Y-91952381D01*
X53404761Y-91952381D01*
X53309523Y-92000000D01*
X53261904Y-92047619D01*
X53214285Y-92142857D01*
X53214285Y-92238095D01*
X53261904Y-92380952D01*
X53833333Y-92952381D01*
X53214285Y-92952381D01*
M02*
