M48
;DRILL file {KiCad 4.0.7} date 12/30/17 16:42:01
;FORMAT={3:3/ absolute / metric / suppress leading zeros}
FMAT,2
METRIC,TZ
T1C0.400
T2C0.800
T3C1.016
T4C1.350
T5C1.450
T6C1.500
T7C3.500
%
G90
G05
M71
T1
X25000Y-35000
X25000Y-40000
X25000Y-45000
X25000Y-50000
X25000Y-55000
X25000Y-60000
X25000Y-75000
X25000Y-90000
X25000Y-95000
X25000Y-100000
X25000Y-105000
X25000Y-110000
X25000Y-115000
X30000Y-70000
X30000Y-75000
X30000Y-80000
X30000Y-120000
X34000Y-34000
X35000Y-50000
X35000Y-55000
X35000Y-60000
X35000Y-65000
X35000Y-70000
X35000Y-75000
X35000Y-80000
X35000Y-120000
X37000Y-92000
X37000Y-103000
X39000Y-97000
X39000Y-107000
X40000Y-34000
X40000Y-80000
X40000Y-110000
X40000Y-120000
X41000Y-94000
X41000Y-105000
X41900Y-90000
X41900Y-93000
X41900Y-96000
X41900Y-101000
X45000Y-34000
X45000Y-70000
X45000Y-75000
X50000Y-55000
X50000Y-60000
X50000Y-65000
X50000Y-70000
X50000Y-110000
X50000Y-34000
X50500Y-101000
X51000Y-90000
X51000Y-93000
X51000Y-96000
X53000Y-42500
X54000Y-34000
X54500Y-40500
X55000Y-70000
X55000Y-75000
X55000Y-80000
X55000Y-101000
X55000Y-110000
X55000Y-120000
X57000Y-101000
X60000Y-34000
X60000Y-40500
X60000Y-55000
X60000Y-60000
X60000Y-65000
X60000Y-70000
X60000Y-75000
X65000Y-34000
X65000Y-40500
X65000Y-70000
X65000Y-75000
X65000Y-110000
X65000Y-120000
X65500Y-92500
X68000Y-89500
X68000Y-92500
X68000Y-99500
X69000Y-98000
X70000Y-80000
X70000Y-110000
X70000Y-120000
X70500Y-89500
X70500Y-102500
X71000Y-40500
X71000Y-96500
X72540Y-32540
X73500Y-102500
X74500Y-101500
X75000Y-55000
X75000Y-60000
X75000Y-65000
X75000Y-75000
X76000Y-34000
X76500Y-96000
X76500Y-100000
X77000Y-98000
X80000Y-34000
X80000Y-40500
X80000Y-70000
X80000Y-110000
X80000Y-120000
X80500Y-102500
X82000Y-95500
X82500Y-94000
X82500Y-102500
X84000Y-92500
X85000Y-34000
X85000Y-40500
X85000Y-70000
X85000Y-75000
X85000Y-80000
X85000Y-110000
X85000Y-120000
X85500Y-105000
X86000Y-92500
X86750Y-95000
X87500Y-103500
X87500Y-105000
X89200Y-95000
X90000Y-34000
X90000Y-40500
X90000Y-55000
X90000Y-60000
X90000Y-65000
X90000Y-70000
X90000Y-75000
X90000Y-80000
X91500Y-42000
X91500Y-45500
X92000Y-103000
X92000Y-105000
X93000Y-93500
X94000Y-103000
X94500Y-93500
X95000Y-34000
X95000Y-70000
X95000Y-75000
X95000Y-110000
X95000Y-120000
X95500Y-40500
X96000Y-92500
X97000Y-42000
X97000Y-44000
X97750Y-92500
X99000Y-36000
X99500Y-44000
X100000Y-110000
X100000Y-120000
X102000Y-44000
X102500Y-39000
X102500Y-42000
X105000Y-70000
X105000Y-75000
X105500Y-93750
X105750Y-95250
X106750Y-93750
X108500Y-92500
X110000Y-30000
X110000Y-70000
X110000Y-75000
X110000Y-80000
X110000Y-110000
X115000Y-35000
X115000Y-45000
X115000Y-55000
X115000Y-60000
X115000Y-65000
X115000Y-75000
X115000Y-90000
X115000Y-95000
X115000Y-100000
X115000Y-105000
X115000Y-110000
X115000Y-115000
T2
X60460Y-89920
X60460Y-95000
X60460Y-97540
X60460Y-100080
X65540Y-89920
X65540Y-95000
X65540Y-97540
X65540Y-100080
X79460Y-89920
X79460Y-95000
X79460Y-97540
X79460Y-100080
X84540Y-89920
X84540Y-95000
X84540Y-97540
X84540Y-100080
X91460Y-89920
X91460Y-95000
X91460Y-97540
X91460Y-100080
X96540Y-89920
X96540Y-95000
X96540Y-97540
X96540Y-100080
X103460Y-89920
X103460Y-95000
X103460Y-97540
X103460Y-100080
X108540Y-89920
X108540Y-95000
X108540Y-97540
X108540Y-100080
T3
X32576Y-37420
X32576Y-39960
X32576Y-42500
X32576Y-45040
X32576Y-47580
X33076Y-86650
X33076Y-89190
X33076Y-91730
X33076Y-94270
X33076Y-96810
X33076Y-99350
T4
X40000Y-70000
X45000Y-120000
X47500Y-80000
X60000Y-120000
X63000Y-80000
X70000Y-30000
X70000Y-70000
X75000Y-120000
X78000Y-80000
X90000Y-120000
X100000Y-70000
X100000Y-80000
X105000Y-120000
T5
X37460Y-67460
X37460Y-72540
X42460Y-117460
X42460Y-122540
X42540Y-67460
X42540Y-72540
X44960Y-77460
X44960Y-82540
X47540Y-117460
X47540Y-122540
X50040Y-77460
X50040Y-82540
X57460Y-117460
X57460Y-122540
X60460Y-77460
X60460Y-82540
X62540Y-117460
X62540Y-122540
X65540Y-77460
X65540Y-82540
X67460Y-27460
X67460Y-32540
X67460Y-67460
X67460Y-72540
X72460Y-117460
X72460Y-122540
X72540Y-27460
X72540Y-32540
X72540Y-67460
X72540Y-72540
X75460Y-77460
X75460Y-82540
X77540Y-117460
X77540Y-122540
X80540Y-77460
X80540Y-82540
X87460Y-117460
X87460Y-122540
X92540Y-117460
X92540Y-122540
X97460Y-67460
X97460Y-72540
X97460Y-77460
X97460Y-82540
X102460Y-117460
X102460Y-122540
X102540Y-67460
X102540Y-72540
X102540Y-77460
X102540Y-82540
X107540Y-117460
X107540Y-122540
T6
X44000Y-43300
X44000Y-55500
X50000Y-41300
X56000Y-43300
X56000Y-55500
X69000Y-43300
X69000Y-55500
X75000Y-41300
X81000Y-43300
X81000Y-55500
X94000Y-43300
X94000Y-55500
X100000Y-41300
X106000Y-43300
X106000Y-55500
T7
X25000Y-30000
X25000Y-70000
X25000Y-80000
X25000Y-120000
X115000Y-30000
X115000Y-70000
X115000Y-80000
X115000Y-120000
T0
M30
