G04 #@! TF.FileFunction,Soldermask,Bot*
%FSLAX46Y46*%
G04 Gerber Fmt 4.6, Leading zero omitted, Abs format (unit mm)*
G04 Created by KiCad (PCBNEW 4.0.7) date 01/21/18 17:54:54*
%MOMM*%
%LPD*%
G01*
G04 APERTURE LIST*
%ADD10C,0.100000*%
%ADD11C,3.400000*%
%ADD12C,2.400000*%
%ADD13C,2.700000*%
%ADD14C,2.900000*%
%ADD15O,2.597100X1.924000*%
%ADD16R,2.597100X1.924000*%
%ADD17R,1.900000X1.650000*%
%ADD18C,7.400000*%
%ADD19R,1.900000X5.480000*%
%ADD20C,0.254000*%
G04 APERTURE END LIST*
D10*
D11*
X106000000Y-55500000D03*
X94000000Y-55500000D03*
X94000000Y-43300000D03*
X106000000Y-43300000D03*
X100000000Y-41300000D03*
D12*
X103460000Y-89920000D03*
X108540000Y-89920000D03*
X103460000Y-95000000D03*
X108540000Y-95000000D03*
X103460000Y-97540000D03*
X103460000Y-100080000D03*
X108540000Y-100080000D03*
X108540000Y-97540000D03*
D13*
X47500000Y-80000000D03*
D14*
X50040000Y-77460000D03*
X44960000Y-77460000D03*
X44960000Y-82540000D03*
X50040000Y-82540000D03*
D15*
X33076200Y-99270000D03*
X33076200Y-96730000D03*
X33076200Y-104350000D03*
X33076200Y-101810000D03*
D16*
X33076200Y-91650000D03*
D15*
X33076200Y-94190000D03*
D17*
X94250000Y-87000000D03*
X91750000Y-87000000D03*
X49250000Y-45000000D03*
X46750000Y-45000000D03*
X84250000Y-87000000D03*
X81750000Y-87000000D03*
X74250000Y-46000000D03*
X71750000Y-46000000D03*
X63850000Y-92200000D03*
X61350000Y-92200000D03*
X99250000Y-46000000D03*
X96750000Y-46000000D03*
X106250000Y-87000000D03*
X103750000Y-87000000D03*
D12*
X79460000Y-89920000D03*
X84540000Y-89920000D03*
X79460000Y-95000000D03*
X84540000Y-95000000D03*
X79460000Y-97540000D03*
X79460000Y-100080000D03*
X84540000Y-100080000D03*
X84540000Y-97540000D03*
D11*
X56000000Y-55500000D03*
X44000000Y-55500000D03*
X44000000Y-43300000D03*
X56000000Y-43300000D03*
X50000000Y-41300000D03*
D12*
X91460000Y-89920000D03*
X96540000Y-89920000D03*
X91460000Y-95000000D03*
X96540000Y-95000000D03*
X91460000Y-97540000D03*
X91460000Y-100080000D03*
X96540000Y-100080000D03*
X96540000Y-97540000D03*
D11*
X81000000Y-55500000D03*
X69000000Y-55500000D03*
X69000000Y-43300000D03*
X81000000Y-43300000D03*
X75000000Y-41300000D03*
D12*
X60460000Y-89920000D03*
X65540000Y-89920000D03*
X60460000Y-95000000D03*
X65540000Y-95000000D03*
X60460000Y-97540000D03*
X60460000Y-100080000D03*
X65540000Y-100080000D03*
X65540000Y-97540000D03*
D13*
X75000000Y-120000000D03*
D14*
X77540000Y-117460000D03*
X72460000Y-117460000D03*
X72460000Y-122540000D03*
X77540000Y-122540000D03*
D13*
X40000000Y-70000000D03*
D14*
X42540000Y-67460000D03*
X37460000Y-67460000D03*
X37460000Y-72540000D03*
X42540000Y-72540000D03*
D13*
X90000000Y-120000000D03*
D14*
X92540000Y-117460000D03*
X87460000Y-117460000D03*
X87460000Y-122540000D03*
X92540000Y-122540000D03*
D13*
X70000000Y-30000000D03*
D14*
X72540000Y-27460000D03*
X67460000Y-27460000D03*
X67460000Y-32540000D03*
X72540000Y-32540000D03*
D13*
X70000000Y-70000000D03*
D14*
X72540000Y-67460000D03*
X67460000Y-67460000D03*
X67460000Y-72540000D03*
X72540000Y-72540000D03*
D13*
X105000000Y-120000000D03*
D14*
X107540000Y-117460000D03*
X102460000Y-117460000D03*
X102460000Y-122540000D03*
X107540000Y-122540000D03*
D13*
X78000000Y-80000000D03*
D14*
X80540000Y-77460000D03*
X75460000Y-77460000D03*
X75460000Y-82540000D03*
X80540000Y-82540000D03*
D13*
X60000000Y-120000000D03*
D14*
X62540000Y-117460000D03*
X57460000Y-117460000D03*
X57460000Y-122540000D03*
X62540000Y-122540000D03*
D13*
X100000000Y-80000000D03*
D14*
X102540000Y-77460000D03*
X97460000Y-77460000D03*
X97460000Y-82540000D03*
X102540000Y-82540000D03*
D13*
X100000000Y-70000000D03*
D14*
X102540000Y-67460000D03*
X97460000Y-67460000D03*
X97460000Y-72540000D03*
X102540000Y-72540000D03*
D15*
X34076200Y-49000000D03*
X34076200Y-54080000D03*
X34076200Y-51540000D03*
D16*
X34076200Y-43920000D03*
D15*
X34076200Y-46460000D03*
D13*
X45000000Y-120000000D03*
D14*
X47540000Y-117460000D03*
X42460000Y-117460000D03*
X42460000Y-122540000D03*
X47540000Y-122540000D03*
D13*
X63000000Y-80000000D03*
D14*
X65540000Y-77460000D03*
X60460000Y-77460000D03*
X60460000Y-82540000D03*
X65540000Y-82540000D03*
D18*
X115000000Y-70000000D03*
X25000000Y-70000000D03*
X25000000Y-120000000D03*
X115000000Y-120000000D03*
X115000000Y-80000000D03*
X25000000Y-80000000D03*
X25000000Y-30000000D03*
X115000000Y-30000000D03*
D19*
X43250000Y-77500000D03*
X51750000Y-77500000D03*
X47500000Y-77500000D03*
X35750000Y-72400000D03*
X44250000Y-72400000D03*
X79250000Y-122500000D03*
X70750000Y-122500000D03*
X75000000Y-122500000D03*
X74250000Y-72500000D03*
X65750000Y-72500000D03*
X70000000Y-72500000D03*
X95750000Y-77500000D03*
X104250000Y-77500000D03*
X100000000Y-77500000D03*
X94250000Y-122500000D03*
X85750000Y-122500000D03*
X90000000Y-122500000D03*
X104250000Y-72500000D03*
X95750000Y-72500000D03*
X100000000Y-72500000D03*
X109250000Y-122500000D03*
X100750000Y-122500000D03*
X105000000Y-122500000D03*
X64250000Y-122500000D03*
X55750000Y-122500000D03*
X60000000Y-122500000D03*
X49250000Y-122500000D03*
X40750000Y-122500000D03*
X45000000Y-122500000D03*
X65750000Y-27500000D03*
X74250000Y-27500000D03*
X70000000Y-27500000D03*
X58750000Y-77500000D03*
X67250000Y-77500000D03*
X63000000Y-77500000D03*
X73750000Y-77500000D03*
X82250000Y-77500000D03*
X78000000Y-77500000D03*
D20*
G36*
X119873000Y-124873000D02*
X20127000Y-124873000D01*
X20127000Y-80000000D01*
X24873000Y-80000000D01*
X24873000Y-120000000D01*
X24883006Y-120049410D01*
X24911447Y-120091035D01*
X24953841Y-120118315D01*
X25000000Y-120127000D01*
X115000000Y-120127000D01*
X115049410Y-120116994D01*
X115091035Y-120088553D01*
X115118315Y-120046159D01*
X115127000Y-120000000D01*
X115127000Y-80000000D01*
X115116994Y-79950590D01*
X115088553Y-79908965D01*
X115046159Y-79881685D01*
X115000000Y-79873000D01*
X25000000Y-79873000D01*
X24950590Y-79883006D01*
X24908965Y-79911447D01*
X24881685Y-79953841D01*
X24873000Y-80000000D01*
X20127000Y-80000000D01*
X20127000Y-30000000D01*
X24873000Y-30000000D01*
X24873000Y-70000000D01*
X24883006Y-70049410D01*
X24911447Y-70091035D01*
X24953841Y-70118315D01*
X25000000Y-70127000D01*
X115000000Y-70127000D01*
X115049410Y-70116994D01*
X115091035Y-70088553D01*
X115118315Y-70046159D01*
X115127000Y-70000000D01*
X115127000Y-30000000D01*
X115116994Y-29950590D01*
X115088553Y-29908965D01*
X115046159Y-29881685D01*
X115000000Y-29873000D01*
X25000000Y-29873000D01*
X24950590Y-29883006D01*
X24908965Y-29911447D01*
X24881685Y-29953841D01*
X24873000Y-30000000D01*
X20127000Y-30000000D01*
X20127000Y-25127000D01*
X119873000Y-25127000D01*
X119873000Y-124873000D01*
X119873000Y-124873000D01*
G37*
X119873000Y-124873000D02*
X20127000Y-124873000D01*
X20127000Y-80000000D01*
X24873000Y-80000000D01*
X24873000Y-120000000D01*
X24883006Y-120049410D01*
X24911447Y-120091035D01*
X24953841Y-120118315D01*
X25000000Y-120127000D01*
X115000000Y-120127000D01*
X115049410Y-120116994D01*
X115091035Y-120088553D01*
X115118315Y-120046159D01*
X115127000Y-120000000D01*
X115127000Y-80000000D01*
X115116994Y-79950590D01*
X115088553Y-79908965D01*
X115046159Y-79881685D01*
X115000000Y-79873000D01*
X25000000Y-79873000D01*
X24950590Y-79883006D01*
X24908965Y-79911447D01*
X24881685Y-79953841D01*
X24873000Y-80000000D01*
X20127000Y-80000000D01*
X20127000Y-30000000D01*
X24873000Y-30000000D01*
X24873000Y-70000000D01*
X24883006Y-70049410D01*
X24911447Y-70091035D01*
X24953841Y-70118315D01*
X25000000Y-70127000D01*
X115000000Y-70127000D01*
X115049410Y-70116994D01*
X115091035Y-70088553D01*
X115118315Y-70046159D01*
X115127000Y-70000000D01*
X115127000Y-30000000D01*
X115116994Y-29950590D01*
X115088553Y-29908965D01*
X115046159Y-29881685D01*
X115000000Y-29873000D01*
X25000000Y-29873000D01*
X24950590Y-29883006D01*
X24908965Y-29911447D01*
X24881685Y-29953841D01*
X24873000Y-30000000D01*
X20127000Y-30000000D01*
X20127000Y-25127000D01*
X119873000Y-25127000D01*
X119873000Y-124873000D01*
M02*
