M48
;DRILL file {KiCad (5.0.2)-1} date 14/03/2019 17:05:02
;FORMAT={-:-/ absolute / inch / decimal}
FMAT,2
INCH,TZ
T1C0.0157
T2C0.0315
T3C0.0400
T4C0.0472
T5C0.0531
T6C0.0571
T7C0.0591
T8C0.1378
%
G90
G05
T1
X0.8268Y-2.9528
X0.8661Y-2.9528
X0.9055Y-2.9528
X0.9449Y-2.9528
X0.9843Y-2.9528
X1.0236Y-2.9528
X1.063Y-2.9528
X1.1024Y-2.9528
X1.1417Y-2.9528
X1.1811Y-2.9528
X1.2205Y-2.9528
X1.2303Y-3.7697
X1.2303Y-4.2323
X1.2598Y-2.9528
X1.2795Y-3.878
X1.2795Y-4.1831
X1.2992Y-2.9528
X1.3268Y-3.9764
X1.3287Y-4.1358
X1.3386Y-2.9528
X1.378Y-2.9528
X1.378Y-3.6909
X1.378Y-4.0846
X1.4173Y-2.9528
X1.4173Y-3.5039
X1.4469Y-4.0354
X1.4567Y-2.2835
X1.4567Y-2.3228
X1.4567Y-2.3622
X1.4567Y-2.4016
X1.4567Y-2.4409
X1.4567Y-2.4803
X1.4567Y-2.5197
X1.4567Y-2.5591
X1.4567Y-2.9528
X1.4567Y-3.5433
X1.4862Y-4.0354
X1.4961Y-2.0866
X1.4961Y-2.2441
X1.4961Y-2.9528
X1.4961Y-3.5827
X1.5256Y-4.0354
X1.5354Y-2.0866
X1.5354Y-2.2047
X1.5354Y-2.9528
X1.5354Y-3.622
X1.565Y-4.0354
X1.5748Y-2.0866
X1.5748Y-2.1654
X1.5748Y-2.9528
X1.5748Y-3.6614
X1.6043Y-4.0354
X1.6142Y-2.0866
X1.6142Y-2.126
X1.6142Y-2.9528
X1.6535Y-1.9685
X1.6535Y-2.0866
X1.6535Y-2.9528
X1.6535Y-4.0354
X1.6535Y-4.2913
X1.6535Y-4.3307
X1.6535Y-4.3701
X1.6535Y-4.4094
X1.6535Y-4.4488
X1.6535Y-4.4882
X1.6535Y-4.5276
X1.6929Y-2.0866
X1.6929Y-2.3622
X1.6929Y-2.4016
X1.6929Y-2.4409
X1.6929Y-2.4803
X1.6929Y-2.5197
X1.6929Y-2.5591
X1.6929Y-2.9528
X1.6929Y-3.5236
X1.6929Y-3.563
X1.6929Y-3.6024
X1.6929Y-3.6417
X1.6929Y-4.0354
X1.7323Y-1.8504
X1.7323Y-2.0866
X1.7323Y-2.3228
X1.7323Y-2.9528
X1.7323Y-4.0354
X1.7717Y-1.8504
X1.7717Y-2.0866
X1.7717Y-2.2835
X1.7717Y-2.9528
X1.7717Y-3.7992
X1.7717Y-4.0354
X1.811Y-1.8504
X1.811Y-2.0276
X1.811Y-2.0866
X1.811Y-2.2441
X1.811Y-2.9528
X1.811Y-3.8386
X1.811Y-3.878
X1.811Y-3.9173
X1.811Y-3.9567
X1.811Y-3.9961
X1.811Y-4.0354
X1.8504Y-1.8504
X1.8504Y-2.0866
X1.8504Y-2.126
X1.8504Y-2.1654
X1.8504Y-2.2047
X1.8504Y-2.9528
X1.8504Y-4.2913
X1.8504Y-4.3307
X1.8504Y-4.3701
X1.8504Y-4.4094
X1.8504Y-4.4488
X1.8504Y-4.4882
X1.8504Y-4.5276
X1.8898Y-1.8504
X1.8898Y-2.0866
X1.8898Y-2.9528
X1.9291Y-1.8504
X1.9291Y-2.0866
X1.9291Y-2.9528
X1.9685Y-1.8504
X1.9685Y-2.0866
X1.9685Y-2.9528
X2.0079Y-1.8504
X2.0079Y-2.0866
X2.0079Y-2.9528
X2.0079Y-4.0354
X2.0472Y-1.8504
X2.0472Y-2.0866
X2.0472Y-2.9528
X2.0472Y-4.0354
X2.0768Y-3.6319
X2.0768Y-3.6713
X2.0866Y-1.8504
X2.0866Y-2.0866
X2.0866Y-2.9528
X2.0866Y-4.0354
X2.1161Y-3.6319
X2.1161Y-3.6713
X2.126Y-1.8504
X2.126Y-2.0866
X2.126Y-2.9528
X2.126Y-4.0354
X2.1654Y-1.8504
X2.1654Y-2.0866
X2.1654Y-2.9528
X2.1654Y-4.0354
X2.2047Y-1.8504
X2.2047Y-2.0866
X2.2047Y-2.9528
X2.2047Y-4.0354
X2.2343Y-4.0354
X2.2441Y-1.8504
X2.2441Y-2.0866
X2.2441Y-2.9528
X2.2736Y-3.5138
X2.2736Y-3.5531
X2.2736Y-3.5925
X2.2736Y-3.6319
X2.2736Y-3.6713
X2.2835Y-1.8504
X2.2835Y-2.0866
X2.2835Y-2.9528
X2.2835Y-4.2913
X2.2835Y-4.3307
X2.2835Y-4.3701
X2.2835Y-4.4094
X2.2835Y-4.4488
X2.2835Y-4.4882
X2.2835Y-4.5276
X2.3228Y-1.8504
X2.3228Y-2.0866
X2.3228Y-2.9528
X2.3622Y-2.0866
X2.3622Y-2.9528
X2.4016Y-2.0866
X2.4016Y-2.9528
X2.4409Y-2.0866
X2.4409Y-2.9528
X2.4409Y-4.2913
X2.4409Y-4.3307
X2.4409Y-4.3701
X2.4409Y-4.4094
X2.4409Y-4.4488
X2.4409Y-4.4882
X2.4409Y-4.5276
X2.4803Y-2.0866
X2.4803Y-2.9528
X2.5197Y-2.0866
X2.5197Y-2.9528
X2.5394Y-4.0354
X2.5591Y-2.0866
X2.5591Y-2.9528
X2.5787Y-4.0354
X2.5984Y-1.8898
X2.5984Y-2.0866
X2.5984Y-2.9528
X2.6181Y-4.0354
X2.6378Y-1.8898
X2.6378Y-2.0866
X2.6378Y-2.126
X2.6378Y-2.1654
X2.6378Y-2.2047
X2.6378Y-2.2441
X2.6378Y-2.2835
X2.6378Y-2.3228
X2.6378Y-2.3622
X2.6378Y-2.4016
X2.6378Y-2.4409
X2.6378Y-2.4803
X2.6378Y-2.5197
X2.6378Y-2.5591
X2.6378Y-2.9528
X2.6575Y-4.0354
X2.6772Y-1.8898
X2.6772Y-2.0866
X2.6772Y-2.9528
X2.6969Y-4.0354
X2.7165Y-1.8898
X2.7165Y-2.0866
X2.7165Y-2.9528
X2.7362Y-4.0354
X2.7559Y-1.8898
X2.7559Y-2.0866
X2.7559Y-2.9528
X2.7559Y-4.7244
X2.7756Y-4.0354
X2.7854Y-3.5039
X2.7854Y-3.5433
X2.7854Y-3.5827
X2.7854Y-3.622
X2.7854Y-3.6614
X2.7854Y-3.7008
X2.7854Y-3.7402
X2.7953Y-1.8898
X2.7953Y-2.0866
X2.7953Y-2.126
X2.7953Y-2.9528
X2.815Y-4.0354
X2.8346Y-1.8898
X2.8346Y-2.0866
X2.8346Y-2.1654
X2.8346Y-2.9528
X2.8543Y-4.0354
X2.8559Y-1.2811
X2.874Y-1.8898
X2.874Y-2.0866
X2.874Y-2.2047
X2.874Y-2.2441
X2.874Y-2.2835
X2.874Y-2.3228
X2.874Y-2.3622
X2.874Y-2.4016
X2.874Y-2.4409
X2.874Y-2.4803
X2.874Y-2.5197
X2.874Y-2.5591
X2.874Y-2.9528
X2.874Y-4.2913
X2.874Y-4.3307
X2.874Y-4.3701
X2.874Y-4.4094
X2.874Y-4.4488
X2.874Y-4.4882
X2.874Y-4.5276
X2.9134Y-1.8898
X2.9134Y-2.0866
X2.9134Y-2.9528
X2.9232Y-3.5039
X2.9232Y-3.5433
X2.9232Y-3.5827
X2.9232Y-3.622
X2.9232Y-3.6614
X2.9528Y-1.8898
X2.9528Y-2.0866
X2.9528Y-2.9528
X2.9921Y-1.8898
X2.9921Y-2.0866
X2.9921Y-2.9528
X3.0315Y-1.8898
X3.0315Y-2.0866
X3.0315Y-2.9528
X3.0315Y-4.2913
X3.0315Y-4.3307
X3.0315Y-4.3701
X3.0315Y-4.4094
X3.0315Y-4.4488
X3.0315Y-4.4882
X3.0315Y-4.5276
X3.0512Y-3.6811
X3.0512Y-3.7205
X3.0512Y-3.7598
X3.0512Y-3.7992
X3.0512Y-3.8386
X3.0512Y-3.878
X3.0512Y-3.9173
X3.0709Y-1.8898
X3.0709Y-2.0866
X3.0709Y-2.9528
X3.1102Y-1.8898
X3.1102Y-2.0866
X3.1102Y-2.9528
X3.1398Y-4.0354
X3.1496Y-1.8898
X3.1496Y-2.0866
X3.1496Y-2.9528
X3.1791Y-4.0354
X3.189Y-1.8898
X3.189Y-2.0866
X3.189Y-2.9528
X3.189Y-3.7795
X3.2087Y-3.6713
X3.2185Y-4.0354
X3.2283Y-1.8898
X3.2283Y-2.0866
X3.2283Y-2.9528
X3.2283Y-3.7795
X3.248Y-3.6713
X3.2579Y-4.0354
X3.2677Y-1.8898
X3.2677Y-2.0866
X3.2677Y-2.9528
X3.2677Y-3.7795
X3.2874Y-3.6713
X3.2972Y-4.0354
X3.3071Y-1.8504
X3.3071Y-2.0866
X3.3071Y-2.9528
X3.3268Y-3.6713
X3.3366Y-4.0354
X3.3465Y-1.811
X3.3465Y-2.0866
X3.3465Y-2.9528
X3.3465Y-4.7244
X3.3661Y-3.6713
X3.376Y-4.0354
X3.3858Y-2.0866
X3.3858Y-2.9528
X3.4055Y-3.6713
X3.4154Y-4.0354
X3.4252Y-2.0866
X3.4252Y-2.9528
X3.4646Y-2.0866
X3.4646Y-2.9528
X3.4646Y-4.2913
X3.4646Y-4.3307
X3.4646Y-4.3701
X3.4646Y-4.4094
X3.4646Y-4.4488
X3.4646Y-4.4882
X3.4646Y-4.5276
X3.5039Y-2.0866
X3.5039Y-2.9528
X3.5433Y-1.9291
X3.5433Y-2.0866
X3.5433Y-2.9528
X3.5728Y-3.6713
X3.5827Y-1.9291
X3.5827Y-2.0866
X3.5827Y-2.126
X3.5827Y-2.1654
X3.5827Y-2.2047
X3.5827Y-2.9528
X3.6122Y-3.6713
X3.6122Y-4.0354
X3.622Y-1.9291
X3.622Y-2.0866
X3.622Y-2.2441
X3.622Y-2.9528
X3.622Y-4.2913
X3.622Y-4.3307
X3.622Y-4.3701
X3.622Y-4.4094
X3.622Y-4.4488
X3.622Y-4.4882
X3.622Y-4.5276
X3.6516Y-3.6713
X3.6516Y-4.0354
X3.6516Y-4.0748
X3.6516Y-4.1142
X3.6516Y-4.1535
X3.6614Y-1.9291
X3.6614Y-2.0866
X3.6614Y-2.2835
X3.6614Y-2.9528
X3.6614Y-3.7795
X3.6909Y-3.6713
X3.6909Y-4.0354
X3.7008Y-1.9291
X3.7008Y-2.0866
X3.7008Y-2.3228
X3.7008Y-2.9528
X3.7008Y-3.7795
X3.7303Y-3.6713
X3.7303Y-4.0354
X3.7402Y-1.9291
X3.7402Y-2.0866
X3.7402Y-2.3622
X3.7402Y-2.9528
X3.7402Y-3.7795
X3.7402Y-4.7244
X3.7697Y-3.6713
X3.7697Y-4.0354
X3.7795Y-1.9291
X3.7795Y-2.0866
X3.7795Y-2.4016
X3.7795Y-2.9528
X3.8091Y-3.6713
X3.8091Y-4.0354
X3.8189Y-1.6929
X3.8189Y-1.9291
X3.8189Y-2.0866
X3.8189Y-2.126
X3.8189Y-2.4409
X3.8189Y-2.4803
X3.8189Y-2.5197
X3.8189Y-2.5591
X3.8189Y-2.9528
X3.8484Y-3.6713
X3.8583Y-1.7323
X3.8583Y-1.9291
X3.8583Y-2.0866
X3.8583Y-2.1654
X3.8583Y-2.9528
X3.8976Y-1.7323
X3.8976Y-1.9291
X3.8976Y-2.0866
X3.8976Y-2.2047
X3.8976Y-2.9528
X3.937Y-1.9291
X3.937Y-2.0866
X3.937Y-2.2441
X3.937Y-2.9528
X3.9764Y-1.9291
X3.9764Y-2.0866
X3.9764Y-2.2835
X3.9764Y-2.9528
X4.0157Y-1.9291
X4.0157Y-2.0866
X4.0157Y-2.3228
X4.0157Y-2.9528
X4.0256Y-3.6713
X4.0551Y-1.9291
X4.0551Y-2.0866
X4.0551Y-2.3622
X4.0551Y-2.4016
X4.0551Y-2.4409
X4.0551Y-2.4803
X4.0551Y-2.5197
X4.0551Y-2.5591
X4.0551Y-2.9528
X4.0551Y-4.0551
X4.0551Y-4.0945
X4.0551Y-4.1339
X4.0551Y-4.1732
X4.0551Y-4.2126
X4.0551Y-4.252
X4.0551Y-4.2913
X4.0551Y-4.3307
X4.0551Y-4.3701
X4.0551Y-4.4094
X4.0551Y-4.4488
X4.0551Y-4.4882
X4.0551Y-4.5276
X4.065Y-3.6713
X4.0945Y-1.9291
X4.0945Y-2.0866
X4.0945Y-2.9528
X4.1043Y-3.6713
X4.1339Y-1.9291
X4.1339Y-2.0866
X4.1339Y-2.9528
X4.1437Y-3.6713
X4.1732Y-1.9291
X4.1732Y-2.0866
X4.1732Y-2.9528
X4.1831Y-3.6713
X4.2126Y-1.8898
X4.2126Y-2.0866
X4.2126Y-2.9528
X4.2126Y-4.0551
X4.2126Y-4.0945
X4.2126Y-4.1339
X4.2126Y-4.1732
X4.2126Y-4.2126
X4.2126Y-4.252
X4.2126Y-4.2913
X4.2126Y-4.3307
X4.2126Y-4.3701
X4.2126Y-4.4094
X4.2126Y-4.4488
X4.2126Y-4.4882
X4.2126Y-4.5276
X4.2224Y-3.6713
X4.252Y-1.8504
X4.252Y-2.0866
X4.252Y-2.9528
X4.252Y-4.0157
X4.2618Y-3.6713
X4.2913Y-1.811
X4.2913Y-2.0866
X4.2913Y-2.9528
X4.2913Y-4.0157
X4.3012Y-3.6713
X4.3307Y-2.9528
X4.3307Y-4.0157
X4.3406Y-3.6713
X4.3701Y-2.9528
X4.3701Y-3.937
X4.3701Y-3.9764
X4.3701Y-4.0157
X4.4094Y-2.9528
X4.4488Y-2.9528
X4.4882Y-2.9528
X4.5276Y-2.9528
X4.5669Y-2.9528
X4.6063Y-2.9528
X4.6457Y-2.9528
X4.685Y-2.9528
T2
X2.126Y-4.4094
X4.5669Y-2.2047
X1.8898Y-2.5197
X4.1732Y-2.5197
X4.1732Y-2.4409
X3.3858Y-1.1417
X3.2677Y-4.8031
X2.2047Y-2.5197
X1.1811Y-2.4409
X4.0157Y-1.1417
X0.9449Y-1.5354
X2.5197Y-1.2992
X2.9921Y-2.5984
X4.3307Y-1.2205
X0.9449Y-1.6142
X2.5197Y-2.7559
X1.1811Y-2.2835
X3.4646Y-1.2992
X3.7008Y-1.2992
X4.1732Y-1.2992
X3.6008Y-3.5402
X3.6008Y-3.7402
X3.6008Y-3.8402
X3.6008Y-3.9402
X3.8008Y-3.5402
X3.8008Y-3.7402
X3.8008Y-3.8402
X3.8008Y-3.9402
X1.2598Y-1.1417
X2.2047Y-1.1417
X1.4961Y-3.2677
X2.5197Y-1.2205
X2.2835Y-3.1102
X1.3386Y-1.2992
X4.1732Y-3.2677
X3.189Y-4.4882
X4.5669Y-1.5748
X2.2047Y-3.189
X3.8976Y-4.4882
X4.5669Y-4.252
X1.7323Y-3.2677
X2.7559Y-4.5669
X3.3465Y-4.5669
X4.5669Y-3.8583
X4.1732Y-2.5984
X4.3307Y-3.189
X2.7559Y-4.8031
X0.9449Y-4.4094
X1.1024Y-4.4094
X2.0472Y-4.3307
X0.9449Y-2.0866
X2.3622Y-2.7559
X0.9449Y-4.0945
X4.3307Y-2.5197
X1.5748Y-4.8031
X0.9449Y-2.4016
X2.2835Y-2.5197
X0.9449Y-3.622
X1.4173Y-4.3307
X1.1811Y-2.5984
X2.5984Y-4.5669
X0.9449Y-2.4803
X3.1496Y-2.5197
X1.1811Y-4.4882
X3.622Y-2.5197
X3.5433Y-1.1417
X3.0709Y-2.5197
X1.3386Y-2.5984
X3.7795Y-1.1417
X0.9449Y-1.7717
X1.8898Y-2.7559
X2.9921Y-2.6772
X4.3307Y-1.1417
X0.9449Y-1.378
X2.4409Y-1.2992
X3.3858Y-2.7559
X1.4173Y-1.1417
X3.937Y-1.2992
X1.1811Y-1.1417
X1.6535Y-1.2992
X1.4961Y-1.2992
X2.5197Y-3.2677
X1.9685Y-1.2992
X1.4961Y-3.1102
X1.4961Y-1.1417
X2.5984Y-3.2677
X3.3465Y-4.4094
X4.5669Y-1.4961
X3.1496Y-3.1102
X3.8976Y-4.4094
X4.5669Y-4.0945
X1.5748Y-3.2677
X2.5984Y-4.6457
X3.189Y-4.5669
X4.5669Y-1.7323
X1.3386Y-4.8031
X4.3307Y-3.1102
X2.0472Y-4.8031
X0.9449Y-3.937
X1.2598Y-4.3307
X2.7559Y-4.6457
X0.9449Y-2.3228
X1.9685Y-2.5197
X0.9449Y-3.5433
X4.3307Y-2.5984
X1.1811Y-2.3622
X1.9685Y-4.8031
X4.5669Y-2.5197
X1.811Y-2.7559
X1.1811Y-4.3307
X4.3307Y-2.3622
X2.5984Y-4.4882
X4.5669Y-1.9685
X3.2283Y-2.5197
X1.3386Y-4.3307
X1.3386Y-2.5197
X3.2283Y-1.1417
X2.2835Y-1.2992
X3.7008Y-2.7559
X4.252Y-1.1417
X3.8976Y-4.7244
X2.2835Y-2.7559
X2.9921Y-2.7559
X2.9921Y-1.2205
X3.7402Y-4.4094
X3.0709Y-2.7559
X3.7795Y-1.2992
X4.0945Y-1.2992
X2.126Y-1.1417
X1.3386Y-1.1417
X4.0732Y-3.5402
X4.0732Y-3.7402
X4.0732Y-3.8402
X4.0732Y-3.9402
X4.2732Y-3.5402
X4.2732Y-3.7402
X4.2732Y-3.8402
X4.2732Y-3.9402
X1.7323Y-1.2992
X2.3622Y-3.2677
X1.8898Y-1.1417
X1.1811Y-3.189
X1.1811Y-1.2205
X2.4409Y-3.2677
X3.7402Y-4.4882
X4.5669Y-1.4173
X3.1496Y-3.2677
X3.189Y-4.7244
X4.5669Y-3.4646
X2.4409Y-3.1102
X2.7559Y-4.7244
X3.3465Y-4.3307
X1.5748Y-4.6457
X2.5197Y-3.1102
X2.126Y-4.7244
X0.9449Y-3.3858
X1.2598Y-4.8031
X2.5984Y-4.7244
X4.5669Y-2.126
X2.2047Y-2.7559
X0.9449Y-3.4646
X1.4961Y-4.8031
X3.2283Y-2.7559
X1.9685Y-4.4882
X4.5669Y-1.8898
X2.5197Y-2.6772
X4.3307Y-2.4409
X1.2598Y-2.7559
X3.0709Y-1.1417
X3.189Y-4.8031
X2.0472Y-2.5197
X1.1024Y-4.4882
X3.7008Y-2.5197
X3.4646Y-1.1417
X3.7402Y-4.6457
X1.811Y-2.5984
X1.1811Y-2.7559
X3.8583Y-1.1417
X3.8189Y-4.3307
X2.126Y-2.5197
X3.3071Y-2.7559
X2.9921Y-1.2992
X3.8976Y-4.3307
X3.8583Y-1.2992
X4.3307Y-1.2992
X2.5197Y-1.1417
X3.1283Y-3.5402
X3.1283Y-3.7402
X3.1283Y-3.8402
X3.1283Y-3.9402
X3.3283Y-3.5402
X3.3283Y-3.7402
X3.3283Y-3.8402
X3.3283Y-3.9402
X2.0472Y-1.1417
X1.1811Y-3.1102
X2.126Y-1.2992
X1.6535Y-3.2677
X1.8898Y-1.2992
X3.0709Y-3.2677
X1.1811Y-1.2992
X1.5748Y-3.1102
X3.3465Y-4.7244
X4.5669Y-4.3307
X1.6535Y-3.1102
X3.3465Y-4.4882
X4.5669Y-3.7795
X2.3622Y-3.1102
X3.3465Y-4.8031
X3.0709Y-3.1102
X2.126Y-4.4882
X4.5669Y-4.4094
X1.1024Y-4.3307
X2.7559Y-4.4882
X0.9449Y-2.2441
X2.126Y-2.7559
X0.9449Y-4.0157
X1.5748Y-4.4882
X3.4646Y-2.7559
X1.9685Y-4.6457
X4.5669Y-2.4409
X2.4409Y-2.7559
X1.5748Y-4.5669
X1.3386Y-2.3622
X2.9921Y-1.1417
X2.7559Y-4.3307
X3.3071Y-2.5197
X1.5748Y-4.4094
X1.3386Y-2.2835
X4.3307Y-3.2677
X3.8976Y-4.6457
X2.4409Y-2.5197
X1.3386Y-2.7559
X3.937Y-1.1417
X3.7402Y-4.8031
X2.3622Y-2.5197
X1.1811Y-2.5197
X3.0709Y-1.2992
X0.9449Y-1.8504
X3.3858Y-1.2992
X4.0157Y-1.2992
X2.5181Y-3.5598
X2.5181Y-3.7598
X2.5181Y-3.8598
X2.5181Y-3.9598
X2.7181Y-3.5598
X2.7181Y-3.7598
X2.7181Y-3.8598
X2.7181Y-3.9598
X2.2047Y-1.2992
X1.811Y-1.1417
X1.7323Y-3.189
X4.252Y-1.2992
X2.2835Y-3.2677
X2.4409Y-1.1417
X4.252Y-3.1102
X1.811Y-1.2992
X2.2047Y-3.2677
X3.189Y-4.6457
X4.5669Y-3.622
X4.1732Y-3.1102
X3.3465Y-4.6457
X4.5669Y-3.937
X4.1732Y-2.6772
X1.3386Y-3.1102
X2.6772Y-4.8031
X4.5669Y-4.4882
X1.1811Y-4.8031
X2.2047Y-3.1102
X2.7559Y-4.4094
X0.9449Y-4.3307
X1.1811Y-4.6457
X2.5984Y-4.4094
X4.5669Y-2.3622
X1.811Y-2.6772
X0.9449Y-3.8583
X1.1811Y-4.7244
X3.5433Y-2.7559
X2.126Y-4.3307
X4.5669Y-2.0472
X3.4646Y-2.5197
X4.1732Y-2.7559
X1.3386Y-2.4409
X3.1496Y-1.1417
X2.6772Y-4.3307
X3.3858Y-2.5197
X1.5748Y-4.7244
X3.622Y-2.7559
X1.8882Y-3.5598
X1.8882Y-3.7598
X1.8882Y-3.8598
X1.8882Y-3.9598
X2.0882Y-3.5598
X2.0882Y-3.7598
X2.0882Y-3.8598
X2.0882Y-3.9598
X3.622Y-1.1417
X3.7402Y-4.7244
X2.3622Y-1.2992
X3.7008Y-2.6772
X4.0945Y-1.1417
X0.9449Y-1.4567
X2.5197Y-2.5984
X1.2598Y-2.2835
X3.2283Y-1.2992
X3.7402Y-4.3307
X3.5433Y-1.2992
X1.5748Y-1.2992
X1.2598Y-3.1102
X1.2598Y-1.2992
X1.9685Y-1.1417
X1.4173Y-3.1102
X3.1496Y-1.2992
X2.5984Y-3.189
X1.6535Y-1.1417
X1.4173Y-3.2677
X4.5669Y-3.3858
X1.4173Y-1.2992
X3.0709Y-3.189
X3.8976Y-4.5669
X4.5669Y-4.0157
X1.1811Y-3.2677
X3.189Y-4.3307
X4.5669Y-4.1732
X1.4961Y-4.3307
X3.1496Y-3.189
X1.9685Y-4.7244
X0.9449Y-4.1732
X1.1811Y-4.5669
X2.126Y-4.6457
X0.9449Y-1.9291
X0.9449Y-4.252
X4.3307Y-2.7559
X2.5984Y-4.3307
X4.5669Y-1.811
X2.0472Y-2.7559
X0.9449Y-3.7008
X1.1024Y-4.5669
X1.1811Y-2.6772
X1.9685Y-4.4094
X4.5669Y-2.2835
X2.5197Y-2.5197
X4.3307Y-2.6772
X4.252Y-2.3622
X3.3071Y-1.1417
X2.5984Y-4.8031
X3.5433Y-2.5197
X3.7008Y-2.5984
X3.7008Y-1.1417
X3.8976Y-4.8031
X2.9921Y-2.5197
X3.1496Y-2.7559
X4.1732Y-1.1417
X0.9449Y-1.6929
X1.811Y-2.5197
X1.3386Y-2.6772
X3.3071Y-1.2992
X3.8189Y-4.8031
X3.622Y-1.2992
X2.2835Y-1.1417
X1.7323Y-1.1417
X2.0472Y-1.2992
X1.7323Y-3.1102
X1.5748Y-1.1417
X4.1732Y-3.189
X2.3622Y-1.1417
X1.2598Y-3.2677
X3.189Y-4.4094
X4.5669Y-1.6535
X2.5984Y-3.1102
X3.7402Y-4.5669
X4.5669Y-3.7008
X1.3386Y-3.2677
X1.9685Y-4.5669
X3.2677Y-4.3307
X4.5669Y-3.5433
X1.4173Y-4.8031
X4.252Y-3.2677
X2.126Y-4.8031
X0.9449Y-4.4882
X1.1811Y-4.4094
X1.9685Y-4.3307
X0.9449Y-2.0079
X4.252Y-2.7559
X2.126Y-4.5669
X0.9449Y-2.1654
X1.9685Y-2.7559
X0.9449Y-3.7795
X1.5748Y-4.3307
X4.1732Y-2.3622
T3
X1.3416Y-1.7291
X1.3416Y-1.8291
X1.3416Y-1.9291
X1.3416Y-2.0291
X1.3416Y-2.1291
T4
X1.1024Y-3.5433
X1.1024Y-3.6433
X1.1024Y-3.7433
X1.1024Y-3.8433
X1.1024Y-3.9433
X1.1024Y-4.0433
X1.1024Y-4.1433
T5
X3.5433Y-4.7244
X1.5748Y-2.7559
X3.937Y-2.7559
X2.9528Y-4.7244
X3.4055Y-3.1496
X3.937Y-3.1496
X4.1339Y-4.7244
X1.9685Y-3.1496
X2.3622Y-4.7244
X2.7559Y-2.7559
X2.7559Y-1.1811
X2.8543Y-3.1496
X1.752Y-4.7244
T6
X3.4433Y-4.6244
X3.4433Y-4.8244
X3.6433Y-4.6244
X3.6433Y-4.8244
X1.4748Y-2.6559
X1.4748Y-2.8559
X1.6748Y-2.6559
X1.6748Y-2.8559
X3.837Y-2.6559
X3.837Y-2.8559
X4.037Y-2.6559
X4.037Y-2.8559
X2.8528Y-4.6244
X2.8528Y-4.8244
X3.0528Y-4.6244
X3.0528Y-4.8244
X3.3055Y-3.0496
X3.3055Y-3.2496
X3.5055Y-3.0496
X3.5055Y-3.2496
X3.837Y-3.0496
X3.837Y-3.2496
X4.037Y-3.0496
X4.037Y-3.2496
X4.0339Y-4.6244
X4.0339Y-4.8244
X4.2339Y-4.6244
X4.2339Y-4.8244
X1.8685Y-3.0496
X1.8685Y-3.2496
X2.0685Y-3.0496
X2.0685Y-3.2496
X2.2622Y-4.6244
X2.2622Y-4.8244
X2.4622Y-4.6244
X2.4622Y-4.8244
X2.6559Y-2.6559
X2.6559Y-2.8559
X2.8559Y-2.6559
X2.8559Y-2.8559
X2.6559Y-1.0811
X2.6559Y-1.2811
X2.8559Y-1.0811
X2.8559Y-1.2811
X2.7543Y-3.0496
X2.7543Y-3.2496
X2.9543Y-3.0496
X2.9543Y-3.2496
X1.652Y-4.6244
X1.652Y-4.8244
X1.852Y-4.6244
X1.852Y-4.8244
T7
X1.7323Y-1.7047
X1.7323Y-2.185
X1.9685Y-1.626
X2.2047Y-1.7047
X2.2047Y-2.185
X3.7008Y-1.7047
X3.7008Y-2.185
X3.937Y-1.626
X4.1732Y-1.7047
X4.1732Y-2.185
X2.7165Y-1.7047
X2.7165Y-2.185
X2.9528Y-1.626
X3.189Y-1.7047
X3.189Y-2.185
T8
X0.9843Y-4.7244
X4.5276Y-3.1496
X0.9843Y-2.7559
X4.5276Y-2.7559
X4.5276Y-4.7244
X0.9843Y-1.1811
X4.5276Y-1.1811
X0.9843Y-3.1496
T0
M30
